<svg xmlns="http://www.w3.org/2000/svg" viewBox="0 0 175.8 123.33"><title>Asset 1</title><g id="Layer_2" data-name="Layer 2"><g id="Layer_1-2" data-name="Layer 1"><path d="M36.23,94.91,17,61.67H64.28L87.9,102.58H49.51A15.34,15.34,0,0,1,36.23,94.91Z" fill="#0abec8"/><polygon points="111.52 61.67 87.9 102.58 64.28 61.67 87.9 20.75 111.52 61.67" fill="#0aaac8"/><path d="M126.29,20.75H87.9l23.62,40.91h47.24L139.57,28.42A15.34,15.34,0,0,0,126.29,20.75Z" fill="#0abec8"/><path d="M49.51,20.75H76.09L58.37,51.44H22.94l13.29-23A15.34,15.34,0,0,1,49.51,20.75Z" fill="#0adcc8"/><path d="M117.43,71.9h35.43l-13.29,23a15.34,15.34,0,0,1-13.29,7.67H99.71Z" fill="#0adcc8"/><ellipse cx="87.9" cy="61.67" rx="87.9" ry="61.67" fill="#0affc8"/></g></g></svg>