<svg xmlns="http://www.w3.org/2000/svg" viewBox="0 0 283.46 55.64"><title>AssetText</title><g id="Layer_2" data-name="Layer 2"><g id="Layer_2-2" data-name="Layer 2"><path d="M20.27,18.34H13.42q-5.32,0-5.32-4.89Q8.1,7,19.11,7A39.57,39.57,0,0,1,33,9.48V2.14A44.67,44.67,0,0,0,19.11,0Q0,0,0,13.45,0,25.68,13.42,25.68h6.85q6.18,0,6.18,4.89,0,6.73-10.06,6.73A42.36,42.36,0,0,1,1.53,34.85v7.34a47.88,47.88,0,0,0,14.86,2.14q18.16,0,18.16-13.76Q34.55,18.34,20.27,18.34Z" fill="#fff"/><path d="M54.21,11.92q-15.07,0-15.07,15.68Q39.13,44,56.59,44a49.81,49.81,0,0,0,10.33-.92V36.69a52.33,52.33,0,0,1-9.72.92q-10,0-10-6.79H68.54a28.92,28.92,0,0,0,.28-4Q68.82,11.92,54.21,11.92Zm6.73,13.27H47.23q.55-6.91,7-6.91,6.73,0,6.73,6.66Z" fill="#fff"/><path d="M92.7,11.92a14.36,14.36,0,0,0-10.52,4.71l-1-4.71H74.9V44H83V21.61a11.94,11.94,0,0,1,7.7-3.15q5.29,0,5.29,5.32V44h8.1V23.78Q104.1,11.92,92.7,11.92Z" fill="#fff"/><path d="M117.28,6.73h-6V35.37q0,8.65,8.07,8.65h7.21V37.6h-3.3q-3.88,0-3.88-4.49V18.34h7.18V11.92H118.5Z" fill="#fff"/><path d="M149.87,11.92a12.62,12.62,0,0,0-9.69,4.1V.31h-8.1V44h8.1V21.61a11.94,11.94,0,0,1,7.7-3.15q5.29,0,5.29,5.32V44h8.1V23.78Q161.27,11.92,149.87,11.92Z" fill="#fff"/><rect x="168.91" y="0.31" width="8.1" height="6.42" fill="#fff"/><rect x="168.91" y="11.92" width="8.1" height="32.1" fill="#fff"/><path d="M202.45,11.92a14.36,14.36,0,0,0-10.52,4.71l-1-4.71h-6.27V44h8.1V21.61a11.94,11.94,0,0,1,7.7-3.15q5.29,0,5.29,5.32V44h8.1V23.78Q213.85,11.92,202.45,11.92Z" fill="#fff"/><path d="M220,27.79q0,15.62,14.31,15.62A19.7,19.7,0,0,0,242,41.88q0,7.34-8.74,7.34a34,34,0,0,1-10.58-1.53v6.42a33.23,33.23,0,0,0,10.52,1.53q16.91,0,16.91-14.06V13.24a84.59,84.59,0,0,0-13.51-1.31Q220,11.92,220,27.79ZM242,35a15.2,15.2,0,0,1-6.82,1.65q-7.25,0-7.25-9,0-9.26,8.41-9.26a17,17,0,0,1,5.66.73Z" fill="#fff"/><path d="M272.76,24.61h-5.2q-3.82,0-3.82-3.21,0-3.36,6.57-3.36a31,31,0,0,1,11.62,2.14V13.45a34.92,34.92,0,0,0-11.4-1.83q-14.28,0-14.28,10.09,0,9.63,9.78,9.63h5.81q3.52,0,3.52,3.21,0,3.36-5.23,3.36a33.08,33.08,0,0,1-12.35-2.14v6.73a37,37,0,0,0,12,1.83q13.63,0,13.64-10.09Q283.46,24.61,272.76,24.61Z" fill="#fff"/></g></g></svg>