<svg xmlns="http://www.w3.org/2000/svg" viewBox="0 0 22.36 22.73"><title>Asset 3</title><g style="isolation:isolate"><g id="Layer_2" data-name="Layer 2"><g id="Layer_1-2" data-name="Layer 1"><g opacity="0.15"><path d="M15.77,8.12l2-1.09A11.09,11.09,0,0,0,14,2.91l1.31-1.84L15.18,1,13.88,2.86a11.05,11.05,0,0,1,3.77,4.08L15.75,8a9.14,9.14,0,0,0-1.94-2.47l-.57.61.08.07.55-.58A9.14,9.14,0,0,1,15.77,8.12Z" fill="#fff"/><path d="M15.2,1.1c.21.14.4.22.43.18s-.11-.19-.33-.33-.42-.21-.45-.17S15,1,15.2,1.1Z" fill="#fff"/><ellipse cx="13.95" cy="2.88" rx="0.09" ry="0.39" transform="translate(3.6 12.66) rotate(-55.02)" fill="#fff"/><ellipse cx="13.29" cy="6.18" rx="0.07" ry="0.23" transform="translate(-0.25 11.78) rotate(-47.42)" fill="#fff"/><ellipse cx="17.7" cy="6.98" rx="0.09" ry="0.36" transform="translate(-1.14 9.65) rotate(-29.58)" fill="#fff"/><ellipse cx="15.75" cy="8.07" rx="0.09" ry="0.29" transform="translate(-1.93 8.79) rotate(-29.45)" fill="#fff"/><ellipse cx="13.86" cy="5.62" rx="0.06" ry="0.19" transform="translate(0.23 11.78) rotate(-46.38)" fill="#fff"/><path d="M12,11.44l2.13-.68a7.13,7.13,0,0,0-1.64-2.93l1.66-1.54-.08-.08L12.41,7.78a7.06,7.06,0,0,1,1.67,2.9L12,11.37a5.17,5.17,0,0,0-.72-1.5l-.68.48,0,0,.66-.46A5.14,5.14,0,0,1,12,11.44Z" fill="#fff"/><ellipse cx="14.12" cy="6.25" rx="0.09" ry="0.3" transform="translate(-0.48 11.26) rotate(-42.83)" fill="#fff"/><ellipse cx="12.46" cy="7.8" rx="0.09" ry="0.23" transform="translate(-1.98 10.55) rotate(-42.83)" fill="#fff"/><ellipse cx="10.65" cy="10.37" rx="0.07" ry="0.11" transform="translate(-4.05 8.17) rotate(-35.72)" fill="#fff"/><ellipse cx="14.11" cy="10.72" rx="0.09" ry="0.22" transform="translate(-2.67 5.03) rotate(-18.48)" fill="#fff"/><ellipse cx="12" cy="11.41" rx="0.09" ry="0.16" transform="translate(-2.91 4.22) rotate(-17.8)" fill="#fff"/><ellipse cx="11.31" cy="9.93" rx="0.06" ry="0.1" transform="matrix(0.82, -0.58, 0.58, 0.82, -3.66, 8.34)" fill="#fff"/><path d="M15.46,13.17h2.22a11.37,11.37,0,0,0-.87-4.67l2.05-.94-.06-.13-2.08,1a11.3,11.3,0,0,1,.91,4.64H15.5a9.37,9.37,0,0,0-.34-2.62l-.79.25,0,.08.76-.23A9.27,9.27,0,0,1,15.46,13.17Z" fill="#fff"/><ellipse cx="18.84" cy="7.51" rx="0.09" ry="0.38" transform="translate(-1.41 8.69) rotate(-25.06)" fill="#fff"/><ellipse cx="16.78" cy="8.46" rx="0.09" ry="0.31" transform="translate(-2 7.9) rotate(-25.06)" fill="#fff"/><ellipse cx="14.39" cy="10.75" rx="0.07" ry="0.19" transform="matrix(0.96, -0.29, 0.29, 0.96, -2.51, 4.68)" fill="#fff"/><path d="M17.59,13.13c0,.17,0,.31.08.31s.1-.14.1-.31,0-.32-.09-.32S17.59,13,17.59,13.13Z" fill="#fff"/><path d="M15.38,13.13c0,.13,0,.25.08.25s.09-.11.1-.25,0-.26-.09-.26S15.39,13,15.38,13.13Z" fill="#fff"/><ellipse cx="15.16" cy="10.54" rx="0.06" ry="0.16" transform="translate(-2.43 4.91) rotate(-17.07)" fill="#fff"/><path d="M19,21.26l0,0a15.66,15.66,0,0,0,1.55-3.38l.89.31a17,17,0,0,0-.12-11l-1.28.51A12.93,12.93,0,0,0,12.92.19v0a12.91,12.91,0,0,1,7.24,7.7l1.28-.5A16.94,16.94,0,0,1,21.53,18l-.89-.3A15.69,15.69,0,0,1,19,21.26Z" fill="#fff"/><path d="M13.35.4S13.2.23,13,.12,12.49,0,12.47,0s.17.16.41.26S13.32.44,13.35.4Z" fill="#fff"/><path d="M20.25,8.18s0-.21-.05-.42S20,7.39,20,7.4s0,.21.06.42S20.21,8.19,20.25,8.18Z" fill="#fff"/><path d="M18.9,21.52s.14-.09.24-.25.15-.32.11-.34-.14.1-.24.26S18.87,21.49,18.9,21.52Z" fill="#fff"/><ellipse cx="21.39" cy="7.28" rx="0.09" ry="0.45" transform="translate(-1.2 7.72) rotate(-19.92)" fill="#fff"/><ellipse cx="21.5" cy="18.17" rx="0.45" ry="0.09" transform="translate(-2.42 33.02) rotate(-72.03)" fill="#fff"/><path d="M20.55,18.12s.09-.09.13-.23.06-.26,0-.27-.09.09-.13.24S20.52,18.11,20.55,18.12Z" fill="#fff"/><path d="M13.07,17.31l0,0a8.26,8.26,0,0,0,.8-1.74l.89.3a9.21,9.21,0,0,0-.06-6l-1.27.51a6.49,6.49,0,0,0-3.61-3.8l0,0a6.47,6.47,0,0,1,3.62,3.85l1.28-.5a9.22,9.22,0,0,1,.06,5.77l-.89-.29A8,8,0,0,1,13.07,17.31Z" fill="#fff"/><path d="M10,6.75s-.05-.12-.18-.18-.24-.06-.26,0,.06.12.18.17S10,6.8,10,6.75Z" fill="#fff"/><ellipse cx="13.44" cy="10.46" rx="0.09" ry="0.21" transform="translate(-2.77 5.23) rotate(-20)" fill="#fff"/><ellipse cx="13.1" cy="17.3" rx="0.18" ry="0.07" transform="translate(-8.5 19.4) rotate(-58.44)" fill="#fff"/><ellipse cx="14.71" cy="9.95" rx="0.09" ry="0.24" transform="translate(-2.53 5.7) rotate(-20.23)" fill="#fff"/><ellipse cx="14.77" cy="15.87" rx="0.25" ry="0.09" transform="translate(-4.88 25.03) rotate(-72.03)" fill="#fff"/><ellipse cx="13.9" cy="15.57" rx="0.14" ry="0.06" transform="translate(-5.21 23.96) rotate(-71.95)" fill="#fff"/><path d="M11.8,22.18v0a9.24,9.24,0,0,0,2.09-1.58l.66.69a11.86,11.86,0,0,0,3.28-7.11l-1.35-.13a10,10,0,0,0-1.62-6.73l0,0a9.94,9.94,0,0,1,1.6,6.81l1.35.15a11.85,11.85,0,0,1-3.18,6.88L14,20.53A9.21,9.21,0,0,1,11.8,22.18Z" fill="#fff"/><ellipse cx="14.86" cy="7.37" rx="0.09" ry="0.28" transform="translate(-1.54 9.85) rotate(-34.97)" fill="#fff"/><ellipse cx="16.45" cy="14.1" rx="0.28" ry="0.09" transform="translate(0.69 28.96) rotate(-83.9)" fill="#fff"/><ellipse cx="11.84" cy="22.18" rx="0.25" ry="0.07" transform="translate(-9.31 8.59) rotate(-29.19)" fill="#fff"/><ellipse cx="17.83" cy="14.23" rx="0.32" ry="0.09" transform="translate(1.74 30.41) rotate(-83.77)" fill="#fff"/><ellipse cx="14.56" cy="21.29" rx="0.32" ry="0.09" transform="translate(-10.81 16.61) rotate(-45.18)" fill="#fff"/><ellipse cx="13.92" cy="20.61" rx="0.19" ry="0.06" transform="translate(-10.54 16.11) rotate(-45.53)" fill="#fff"/><path d="M10.4,17.16l0,0a5.33,5.33,0,0,0,.86-1.06l.79.52a7,7,0,0,0,1-4.35l-1.35.18a4.68,4.68,0,0,0-1.61-3.14l0,0a4.67,4.67,0,0,1,1.61,3.18L13,12.37a7,7,0,0,1-.94,4.2l-.8-.51A5.42,5.42,0,0,1,10.4,17.16Z" fill="#fff"/><ellipse cx="10.07" cy="9.34" rx="0.09" ry="0.15" transform="translate(-3.56 11.06) rotate(-50.03)" fill="#fff"/><ellipse cx="11.68" cy="12.48" rx="0.09" ry="0.14" transform="translate(-1.21 1.25) rotate(-5.83)" fill="#fff"/><ellipse cx="10.43" cy="17.16" rx="0.13" ry="0.07" transform="translate(-8.97 11.97) rotate(-43.74)" fill="#fff"/><ellipse cx="13.03" cy="12.31" rx="0.09" ry="0.18" transform="translate(-1.25 1.48) rotate(-6.19)" fill="#fff"/><path d="M12,16.77s.12,0,.17-.1.06-.18,0-.21-.12,0-.17.11S11.93,16.75,12,16.77Z" fill="#fff"/><ellipse cx="11.29" cy="16.11" rx="0.1" ry="0.06" transform="translate(-8.34 17.35) rotate(-58.61)" fill="#fff"/><path d="M5.74,20.33v0a8.22,8.22,0,0,0,2.27,0l.16.93a7.48,7.48,0,0,0,5.12-3l-1.08-.85a7.52,7.52,0,0,0,1.43-4.66h0a7.53,7.53,0,0,1-1.47,4.7l1.07.86a7.44,7.44,0,0,1-4.94,2.93l-.17-.93A8.11,8.11,0,0,1,5.74,20.33Z" fill="#fff"/><ellipse cx="13.62" cy="12.78" rx="0.09" ry="0.2" transform="translate(-0.37 0.4) rotate(-1.68)" fill="#fff"/><ellipse cx="12.18" cy="17.44" rx="0.2" ry="0.09" transform="translate(-9.08 16.89) rotate(-53.57)" fill="#fff"/><ellipse cx="5.77" cy="20.35" rx="0.07" ry="0.22" transform="translate(-15.19 23.14) rotate(-81.75)" fill="#fff"/><path d="M13.12,18.48s.13,0,.22-.13.11-.22.07-.25-.13,0-.21.13S13.08,18.45,13.12,18.48Z" fill="#fff"/><path d="M7.91,21.33c0,.05.14.08.29.06s.26-.08.25-.13-.14-.07-.28,0S7.9,21.29,7.91,21.33Z" fill="#fff"/><ellipse cx="8.02" cy="20.38" rx="0.15" ry="0.06" transform="translate(-2.72 1.29) rotate(-7.88)" fill="#fff"/><path d="M13.53,20.19h0a9.36,9.36,0,0,0,.73-.84l.33.27a10.52,10.52,0,0,0,1.56-2.84l-.57-.22a10.63,10.63,0,0,0,.62-3h0a10.52,10.52,0,0,1-.64,3.05l.57.23a10.56,10.56,0,0,1-1.51,2.75l-.33-.27A10,10,0,0,1,13.53,20.19Z" fill="#fff"/><ellipse cx="16.2" cy="13.56" rx="0.12" ry="0.04" transform="translate(1.83 29.04) rotate(-87.07)" fill="#fff"/><ellipse cx="15.57" cy="16.58" rx="0.12" ry="0.04" transform="translate(-5.37 25.45) rotate(-69.76)" fill="#fff"/><ellipse cx="13.54" cy="20.18" rx="0.1" ry="0.03" transform="translate(-10.33 15.65) rotate(-45.4)" fill="#fff"/><ellipse cx="16.15" cy="16.8" rx="0.13" ry="0.04" transform="translate(-5.24 26.07) rotate(-69.58)" fill="#fff"/><ellipse cx="14.59" cy="19.63" rx="0.13" ry="0.04" transform="translate(-9.86 19.09) rotate(-52.12)" fill="#fff"/><ellipse cx="14.27" cy="19.36" rx="0.08" ry="0.02" transform="translate(-9.78 19.03) rotate(-52.84)" fill="#fff"/><path d="M12.41,16.58h0a7.49,7.49,0,0,1-.41.63l-.34-.26a5.78,5.78,0,0,1-1.42,1.38l.35.52a6.08,6.08,0,0,1-2.12.91v0a6.09,6.09,0,0,0,2.15-.93l-.35-.52A5.81,5.81,0,0,0,11.65,17l.34.26A6.52,6.52,0,0,0,12.41,16.58Z" fill="#fff"/><ellipse cx="8.47" cy="19.76" rx="0.1" ry="0.04" transform="translate(-3.93 2.2) rotate(-12.03)" fill="#fff"/><ellipse cx="10.59" cy="18.85" rx="0.09" ry="0.04" transform="translate(-8.79 9.28) rotate(-34.4)" fill="#fff"/><ellipse cx="12.4" cy="16.58" rx="0.07" ry="0.03" transform="translate(-8.12 19.37) rotate(-60.94)" fill="#fff"/><ellipse cx="10.24" cy="18.33" rx="0.08" ry="0.04" transform="translate(-8.62 9.1) rotate(-34.74)" fill="#fff"/><ellipse cx="11.66" cy="16.95" rx="0.08" ry="0.04" transform="translate(-8.9 16.31) rotate(-53.7)" fill="#fff"/><ellipse cx="11.99" cy="17.21" rx="0.05" ry="0.03" transform="translate(-8.97 16.4) rotate(-52.91)" fill="#fff"/><path d="M17.1,3.31l0,0a12.37,12.37,0,0,1,1.59,2l-.57.37a13.23,13.23,0,0,1,2,6.42l1-.07a16,16,0,0,1-1.32,7.18h0A16,16,0,0,0,21.06,12l-1,.08A13.28,13.28,0,0,0,18.18,5.8l.57-.37A12.39,12.39,0,0,0,17.1,3.31Z" fill="#fff"/><ellipse cx="19.73" cy="19.27" rx="0.29" ry="0.06" transform="translate(-5.91 29.41) rotate(-65.91)" fill="#fff"/><ellipse cx="21.05" cy="12.07" rx="0.07" ry="0.3" transform="translate(-0.55 1.02) rotate(-2.75)" fill="#fff"/><ellipse cx="17.12" cy="3.34" rx="0.05" ry="0.24" transform="translate(2.43 12.75) rotate(-43.7)" fill="#fff"/><ellipse cx="20.09" cy="12.14" rx="0.06" ry="0.28" transform="translate(-0.64 1.12) rotate(-3.14)" fill="#fff"/><ellipse cx="18.13" cy="5.74" rx="0.07" ry="0.28" transform="translate(-0.29 10.47) rotate(-31.97)" fill="#fff"/><ellipse cx="18.69" cy="5.37" rx="0.04" ry="0.18" transform="translate(-0.02 10.67) rotate(-31.85)" fill="#fff"/><path d="M15.85,17.79l0,.07.5.26a11.08,11.08,0,0,1-1.22,2l1.23,1a12.83,12.83,0,0,0,1.88-3.35l1.48.6,0-.1-1.5-.59A12.9,12.9,0,0,1,16.36,21l-1.2-1a11.14,11.14,0,0,0,1.21-2Z" fill="#fff"/><ellipse cx="19.71" cy="18.28" rx="0.29" ry="0.06" transform="translate(-4.58 29.8) rotate(-68.23)" fill="#fff"/><ellipse cx="18.2" cy="17.72" rx="0.25" ry="0.06" transform="translate(-4.77 28.56) rotate(-69.5)" fill="#fff"/><path d="M15.79,17.8c0,.09-.05.16,0,.18s.08,0,.12-.13,0-.16,0-.18S15.83,17.72,15.79,17.8Z" fill="#fff"/><path d="M16.29,21c-.09.11-.13.21-.11.24s.12,0,.21-.16.13-.22.1-.24S16.38,20.92,16.29,21Z" fill="#fff"/><ellipse cx="15.12" cy="20.06" rx="0.22" ry="0.06" transform="translate(-9.99 19.27) rotate(-51.19)" fill="#fff"/><ellipse cx="16.32" cy="18.11" rx="0.14" ry="0.04" transform="translate(-7.28 24.23) rotate(-62.51)" fill="#fff"/><path d="M10.7,19l0,0,.31.48a6.63,6.63,0,0,1-1.5.76l.57,1.5a8.21,8.21,0,0,0,2.52-1.45l1,1.25.06-.05-1-1.27a8.07,8.07,0,0,1-2.5,1.46l-.57-1.45a6.71,6.71,0,0,0,1.5-.77Z" fill="#fff"/><ellipse cx="13.62" cy="21.53" rx="0.22" ry="0.06" transform="translate(-10.7 13.95) rotate(-40.38)" fill="#fff"/><ellipse cx="12.6" cy="20.27" rx="0.19" ry="0.07" transform="translate(-10.03 12.68) rotate(-39.61)" fill="#fff"/><ellipse cx="10.68" cy="19.01" rx="0.12" ry="0.05" transform="matrix(0.83, -0.55, 0.55, 0.83, -8.75, 9.11)" fill="#fff"/><ellipse cx="10.08" cy="21.73" rx="0.2" ry="0.07" transform="translate(-7.33 5.28) rotate(-21.74)" fill="#fff"/><ellipse cx="9.5" cy="20.24" rx="0.16" ry="0.07" transform="translate(-6.72 4.86) rotate(-21.38)" fill="#fff"/><ellipse cx="10.98" cy="19.49" rx="0.1" ry="0.04" transform="translate(-8.8 9.04) rotate(-32.75)" fill="#fff"/><path d="M9.52,7.86l0,0,.27-.5a5.9,5.9,0,0,1,1.28.83L12.19,7A7.74,7.74,0,0,0,9.75,5.62l.59-1.48-.08,0L9.67,5.62A7.78,7.78,0,0,1,12.12,7l-1,1.17a6,6,0,0,0-1.3-.83Z" fill="#fff"/><path d="M10.28,4.19c.12,0,.23.05.25,0s-.07-.1-.2-.14-.24,0-.25,0S10.15,4.14,10.28,4.19Z" fill="#fff"/><ellipse cx="9.71" cy="5.62" rx="0.06" ry="0.2" transform="matrix(0.35, -0.94, 0.94, 0.35, 1.02, 12.71)" fill="#fff"/><ellipse cx="9.55" cy="7.86" rx="0.05" ry="0.11" transform="translate(-1.77 12.83) rotate(-63.19)" fill="#fff"/><ellipse cx="12.2" cy="7.03" rx="0.07" ry="0.18" transform="translate(-1.12 11.61) rotate(-48.95)" fill="#fff"/><ellipse cx="11.1" cy="8.2" rx="0.07" ry="0.14" transform="translate(-2.39 11.12) rotate(-48.67)" fill="#fff"/><ellipse cx="9.83" cy="7.37" rx="0.04" ry="0.1" transform="translate(-1.28 12.63) rotate(-62.2)" fill="#fff"/><path d="M20.06,9.15v0l.23-.07c.11.41.2.84.27,1.26l.66-.13a15.25,15.25,0,0,0-.45-1.9l.65-.22v0l-.66.23a15.42,15.42,0,0,1,.45,1.9l-.64.13c-.07-.43-.16-.84-.27-1.26Z" fill="#fff"/><ellipse cx="21.43" cy="8.11" rx="0.03" ry="0.13" transform="translate(-1.44 6.68) rotate(-17.15)" fill="#fff"/><ellipse cx="20.78" cy="8.33" rx="0.03" ry="0.13" transform="translate(-1.53 6.44) rotate(-17)" fill="#fff"/><ellipse cx="20.07" cy="9.17" rx="0.02" ry="0.1" transform="translate(-1.92 7.33) rotate(-19.77)" fill="#fff"/><ellipse cx="21.23" cy="10.23" rx="0.03" ry="0.13" transform="translate(-1.31 3.36) rotate(-8.79)" fill="#fff"/><ellipse cx="20.57" cy="10.36" rx="0.03" ry="0.12" transform="translate(-1.79 4.85) rotate(-12.9)" fill="#fff"/><ellipse cx="20.3" cy="9.12" rx="0.02" ry="0.08" transform="translate(-1.62 5.3) rotate(-14.31)" fill="#fff"/><path d="M17.69,11.78s0,0,0,0l.24,0c0,.34,0,.69.05,1l.67,0a13,13,0,0,0-.11-1.58l.67-.11a.26.26,0,0,0,0,0l-.68.11a12.73,12.73,0,0,1,.11,1.58l-.65,0c0-.34,0-.69-.06-1Z" fill="#fff"/><ellipse cx="19.22" cy="11.09" rx="0.03" ry="0.11" transform="translate(-1.32 2.69) rotate(-7.74)" fill="#fff"/><ellipse cx="18.54" cy="11.2" rx="0.03" ry="0.1" transform="matrix(0.99, -0.14, 0.14, 0.99, -1.42, 2.78)" fill="#fff"/><ellipse cx="17.7" cy="11.8" rx="0.02" ry="0.08" transform="translate(-1.5 2.65) rotate(-8.21)" fill="#fff"/><ellipse cx="18.66" cy="12.78" rx="0.03" ry="0.1" transform="translate(-0.44 0.67) rotate(-2.03)" fill="#fff"/><ellipse cx="17.99" cy="12.8" rx="0.03" ry="0.1" transform="translate(-0.44 0.64) rotate(-2.03)" fill="#fff"/><ellipse cx="17.93" cy="11.78" rx="0.02" ry="0.06" transform="translate(-1.39 2.46) rotate(-7.55)" fill="#fff"/><path d="M13.36,8.82v0l.23-.15a7.49,7.49,0,0,1,.41.74l.7-.35A8.15,8.15,0,0,0,14,7.93l.64-.46,0,0L14,7.91a8.24,8.24,0,0,1,.68,1.16L14,9.41a7.23,7.23,0,0,0-.41-.74Z" fill="#fff"/><ellipse cx="14.67" cy="7.45" rx="0.03" ry="0.1" transform="translate(-1.62 9.79) rotate(-35.1)" fill="#fff"/><ellipse cx="14.02" cy="7.91" rx="0.03" ry="0.09" transform="translate(-2.01 9.39) rotate(-34.68)" fill="#fff"/><ellipse cx="13.37" cy="8.84" rx="0.03" ry="0.06" transform="translate(-2.65 8.52) rotate(-32.34)" fill="#fff"/><ellipse cx="14.7" cy="9.08" rx="0.03" ry="0.09" transform="translate(-2.55 8.15) rotate(-28.62)" fill="#fff"/><ellipse cx="14.01" cy="9.43" rx="0.03" ry="0.08" transform="translate(-2.71 7.05) rotate(-25.83)" fill="#fff"/><ellipse cx="13.61" cy="8.69" rx="0.02" ry="0.05" transform="translate(-2.53 9.16) rotate(-34.22)" fill="#fff"/><path d="M19.12,17.39h0q.18-.54.31-1.1l.31.08a15,15,0,0,0,.41-3.25H19.7A14,14,0,0,0,19.4,10h0a14,14,0,0,1,.3,3.21h.46a15,15,0,0,1-.4,3.15l-.31-.07C19.35,16.63,19.24,17,19.12,17.39Z" fill="#fff"/><ellipse cx="19.39" cy="9.96" rx="0.03" ry="0.13" transform="translate(-1.6 4.08) rotate(-11.53)" fill="#fff"/><ellipse cx="19.7" cy="13.13" rx="0.13" ry="0.03" transform="translate(6.19 32.58) rotate(-88.89)" fill="#fff"/><ellipse cx="19.13" cy="17.38" rx="0.11" ry="0.02" transform="translate(-3.24 30.32) rotate(-72.29)" fill="#fff"/><ellipse cx="20.16" cy="13.13" rx="0.13" ry="0.03" transform="translate(6.95 33.25) rotate(-89.78)" fill="#fff"/><ellipse cx="19.75" cy="16.37" rx="0.13" ry="0.03" transform="translate(-0.64 31.92) rotate(-76.98)" fill="#fff"/><ellipse cx="19.44" cy="16.29" rx="0.08" ry="0.02" transform="translate(-0.9 31.44) rotate(-76.65)" fill="#fff"/><path d="M15.62,15.56h0c-.07.26-.15.51-.23.76l-.3-.11a9.62,9.62,0,0,1-.94,1.95l.39.26a9.11,9.11,0,0,1-1.46,1.76h0a9,9,0,0,0,1.47-1.79l-.39-.26a9.73,9.73,0,0,0,.91-1.89l.3.12Q15.51,16,15.62,15.56Z" fill="#fff"/><ellipse cx="13.07" cy="20.19" rx="0.09" ry="0.03" transform="translate(-10.17 14) rotate(-42.17)" fill="#fff"/><ellipse cx="14.53" cy="18.42" rx="0.09" ry="0.03" transform="translate(-8.83 20.64) rotate(-57.16)" fill="#fff"/><ellipse cx="15.61" cy="15.57" rx="0.08" ry="0.03" transform="translate(-3.46 26.63) rotate(-75.05)" fill="#fff"/><ellipse cx="14.14" cy="18.16" rx="0.09" ry="0.03" transform="translate(-8.76 20.39) rotate(-57.65)" fill="#fff"/><ellipse cx="15.08" cy="16.22" rx="0.09" ry="0.03" transform="translate(-5.26 24.99) rotate(-70.44)" fill="#fff"/><ellipse cx="15.37" cy="16.33" rx="0.06" ry="0.02" transform="translate(-5.01 25.7) rotate(-71.42)" fill="#fff"/><path d="M11.15,8.42h0l.32.31-.19.17a5.19,5.19,0,0,1,.71.94l.31-.2a6.18,6.18,0,0,1,.52,1.12h0a6.14,6.14,0,0,0-.54-1.14l-.31.2a5.44,5.44,0,0,0-.69-.91l.19-.17C11.38,8.63,11.27,8.52,11.15,8.42Z" fill="#fff"/><ellipse cx="12.83" cy="10.77" rx="0.02" ry="0.05" transform="translate(-2.89 4.98) rotate(-19.78)" fill="#fff"/><ellipse cx="12.31" cy="9.65" rx="0.02" ry="0.05" transform="translate(-3.23 7.88) rotate(-31.61)" fill="#fff"/><ellipse cx="11.16" cy="8.42" rx="0.02" ry="0.04" transform="translate(-2.54 11.22) rotate(-48.61)" fill="#fff"/><ellipse cx="12" cy="9.84" rx="0.02" ry="0.05" transform="matrix(0.87, -0.5, 0.5, 0.87, -3.31, 7.33)" fill="#fff"/><ellipse cx="11.29" cy="8.91" rx="0.02" ry="0.05" transform="translate(-3.05 10.02) rotate(-42.73)" fill="#fff"/><ellipse cx="11.47" cy="8.74" rx="0.02" ry="0.03" transform="translate(-2.86 10.36) rotate(-43.75)" fill="#fff"/><path d="M13.3,4.15h0c.22.15.44.31.64.48l-.17.19a9.54,9.54,0,0,1,1.49,1.5l.29-.23A10.12,10.12,0,0,1,16.7,7.9h0a10,10,0,0,0-1.16-1.84l-.29.23a9.3,9.3,0,0,0-1.45-1.46L14,4.64C13.76,4.47,13.54,4.3,13.3,4.15Z" fill="#fff"/><ellipse cx="16.7" cy="7.9" rx="0.02" ry="0.08" transform="translate(-1.77 8.06) rotate(-25.81)" fill="#fff"/><ellipse cx="15.56" cy="6.09" rx="0.03" ry="0.09" transform="translate(-0.44 10.89) rotate(-38.08)" fill="#fff"/><ellipse cx="13.31" cy="4.16" rx="0.02" ry="0.08" transform="translate(2.38 12.82) rotate(-55.74)" fill="#fff"/><ellipse cx="15.27" cy="6.32" rx="0.03" ry="0.08" transform="translate(-0.63 10.81) rotate(-38.24)" fill="#fff"/><ellipse cx="13.79" cy="4.82" rx="0.02" ry="0.09" transform="translate(1.39 12.55) rotate(-51.21)" fill="#fff"/><ellipse cx="13.95" cy="4.63" rx="0.01" ry="0.06" transform="translate(1.51 12.46) rotate(-50.57)" fill="#fff"/><path d="M14.32,10.95h0c.05.22.1.44.14.66l-.32.06a8.07,8.07,0,0,1,.09,1.82l.46,0a9,9,0,0,1-.34,1.93h0a9,9,0,0,0,.33-2l-.46,0a8.45,8.45,0,0,0-.09-1.77l.31-.06C14.43,11.41,14.38,11.18,14.32,10.95Z" fill="#fff"/><ellipse cx="14.35" cy="15.45" rx="0.08" ry="0.03" transform="translate(-4.44 25.02) rotate(-74.08)" fill="#fff"/><ellipse cx="14.69" cy="13.51" rx="0.08" ry="0.03" transform="translate(0.37 27.42) rotate(-86.78)" fill="#fff"/><ellipse cx="14.32" cy="10.96" rx="0.03" ry="0.06" transform="matrix(0.97, -0.25, 0.25, 0.97, -2.31, 3.99)" fill="#fff"/><ellipse cx="14.23" cy="13.49" rx="0.07" ry="0.03" transform="translate(-0.08 26.89) rotate(-86.61)" fill="#fff"/><ellipse cx="14.14" cy="11.68" rx="0.03" ry="0.07" transform="translate(-1.7 2.43) rotate(-9.27)" fill="#fff"/><ellipse cx="14.45" cy="11.62" rx="0.02" ry="0.05" transform="translate(-1.64 2.4) rotate(-8.99)" fill="#fff"/><path d="M9.95,9.1h0l.17-.21a4.77,4.77,0,0,1,.44.38l.54-.54a5.22,5.22,0,0,0-.75-.61l.46-.63,0,0-.46.64a5.46,5.46,0,0,1,.75.61l-.52.53a5,5,0,0,0-.45-.38Z" fill="#fff"/><ellipse cx="10.81" cy="7.49" rx="0.03" ry="0.07" transform="translate(-1.72 11.48) rotate(-52.39)" fill="#fff"/><ellipse cx="10.36" cy="8.12" rx="0.03" ry="0.07" transform="translate(-2.44 11.16) rotate(-51.47)" fill="#fff"/><ellipse cx="9.96" cy="9.1" rx="0.03" ry="0.04" transform="matrix(0.65, -0.76, 0.76, 0.65, -3.42, 10.82)" fill="#fff"/><ellipse cx="11.11" cy="8.73" rx="0.03" ry="0.06" transform="translate(-2.92 10.42) rotate(-45.03)" fill="#fff"/><ellipse cx="10.57" cy="9.27" rx="0.03" ry="0.05" transform="translate(-3.44 10.42) rotate(-45.94)" fill="#fff"/><ellipse cx="10.13" cy="8.89" rx="0.02" ry="0.04" transform="translate(-3.16 11.16) rotate(-50.96)" fill="#fff"/><path d="M18.51,17.83h0a13.92,13.92,0,0,0,.25-9.1l-1.29.47a10.26,10.26,0,0,0-5.14-6l.47-.83A13.78,13.78,0,0,0,9.07,1.09v0a13.58,13.58,0,0,1,3.61,1.18l-.45.83A10.26,10.26,0,0,1,17.5,9.33l1.29-.45A13.87,13.87,0,0,1,18.51,17.83Z" fill="#fff"/><ellipse cx="18.53" cy="17.83" rx="0.37" ry="0.09" transform="translate(-4.66 28.95) rotate(-69.53)" fill="#fff"/><path d="M18.69,8.5s0,.18,0,.38.14.33.19.32,0-.19,0-.38S18.74,8.48,18.69,8.5Z" fill="#fff"/><ellipse cx="9.12" cy="1.12" rx="0.07" ry="0.38" transform="translate(6.33 9.88) rotate(-79.3)" fill="#fff"/><ellipse cx="17.51" cy="9.31" rx="0.09" ry="0.33" transform="translate(-2 5.77) rotate(-17.72)" fill="#fff"/><path d="M11.91,3s.11.15.3.24.34.14.37.09-.1-.16-.28-.25S11.93,2.93,11.91,3Z" fill="#fff"/><path d="M12.47,2.2s.08.1.2.16.23.09.25.07-.07-.1-.19-.16S12.48,2.18,12.47,2.2Z" fill="#fff"/><path d="M11.13,5.19l1.12-2-.06,0-1.11,2Z" fill="#fff"/><path d="M11.06,5.27c.16.08.3.11.33.06s-.08-.15-.23-.23S10.84,5,10.81,5,10.9,5.19,11.06,5.27Z" fill="#fff"/><path d="M19.71,18.32h0a15.56,15.56,0,0,0,1-4.65,14.73,14.73,0,0,0,.37-1.58A.26.26,0,0,1,21,12a15.3,15.3,0,0,1-.37,1.6A15.64,15.64,0,0,1,19.71,18.32Z" fill="#fff"/><path d="M13.22,18.34l.22.18A9,9,0,0,0,14.77,16h0a8.87,8.87,0,0,1-1.29,2.5l-.21-.16Z" fill="#fff"/><path d="M18.19,17.71h0A13.82,13.82,0,0,0,19,14.3l-1.18-.11s0,.06,0,.09L19,14.4A13.84,13.84,0,0,1,18.19,17.71Z" fill="#fff"/><path d="M13,12.31h0a6.72,6.72,0,0,0-.11-.71l-.86.21c0-.13-.06-.26-.09-.38h0c0,.14.07.28.1.42l.86-.21A5.77,5.77,0,0,1,13,12.31Z" fill="#fff"/><path d="M13.68,15.54l.21.07,0-.06-.18-.06a8.22,8.22,0,0,0,.39-2.77l-.49,0s0,0,0,.06l.46,0A8.28,8.28,0,0,1,13.68,15.54Z" fill="#fff"/><path d="M16.31,18.1h0a12,12,0,0,0,.9-2.58l-1-.22a11,11,0,0,0,.2-1.22h0a11.47,11.47,0,0,1-.22,1.29l1,.23A11.63,11.63,0,0,1,16.31,18.1Z" fill="#fff"/><path d="M15.4,15.57l.2.05v0l-.18-.05a10.21,10.21,0,0,0,.32-2l.45,0v-.05l-.47,0A10.27,10.27,0,0,1,15.4,15.57Z" fill="#fff"/><path d="M21.39,7.28h0c-.16-.43-.33-.85-.52-1.26L20,6.46A13.13,13.13,0,0,0,15.26,1V1A13.1,13.1,0,0,1,20,6.54l.89-.44C21.08,6.48,21.24,6.88,21.39,7.28Z" fill="#fff"/><path d="M12.46,1.67,13.15.29l-.08,0L12.4,1.63a14.5,14.5,0,0,0-3.2-1l-.09.47.09,0L9.29.68A14.31,14.31,0,0,1,12.46,1.67Z" fill="#fff"/><path d="M13.28,6.19l0,0a8.43,8.43,0,0,0-1-.79l-.56.79a8,8,0,0,1,.78.59l-.28.31.05,0,.29-.32a7,7,0,0,0-.77-.6l.54-.74A8.76,8.76,0,0,1,13.28,6.19Z" fill="#fff"/><path d="M10.77,5.89l.37-.66-.05,0-.35.64q-.34-.17-.71-.31l0,.11-.24,0,0,0,.26,0,0-.1C10.31,5.67,10.55,5.78,10.77,5.89Z" fill="#fff"/><path d="M18.11,5.75h0a11.88,11.88,0,0,0-1.5-1.93l.5-.48-.05-.06-.51.49A12,12,0,0,1,18.11,5.75Z" fill="#fff"/><path d="M16.09,8.82l.71-.33,0-.05-.69.32c-.1-.23-.21-.46-.33-.69h0C15.86,8.32,16,8.57,16.09,8.82Z" fill="#fff"/><path d="M9.54,7.87v0a6.22,6.22,0,0,0-.93-.36L9,6.36a7.28,7.28,0,0,1,.83.3v0A8.18,8.18,0,0,0,9,6.33L8.57,7.5A6.21,6.21,0,0,1,9.54,7.87Z" fill="#fff"/><path d="M11.42,12.57l.27,0v0l-.25,0a4.61,4.61,0,0,0-.78-2.18h0A4.61,4.61,0,0,1,11.42,12.57Z" fill="#fff"/><path d="M10.66,19l0,0c.16-.11.31-.22.46-.34l-.06-.07a6.49,6.49,0,0,0,1.12-1.17l0,0A6.66,6.66,0,0,1,11,18.64l.06.07C10.94,18.82,10.81,18.92,10.66,19Z" fill="#fff"/><path d="M14.57,22.2l.36.41a11.76,11.76,0,0,0,1.4-1.5l0,0A11.67,11.67,0,0,1,15,22.53l-.33-.37.38-.37-.46-.48-.06.06.44.46Z" fill="#fff"/></g><path d="M14.94,8.35l1.77-1a9.94,9.94,0,0,0-3.35-3.71L14.54,2l-.13-.08L13.23,3.61a10,10,0,0,1,3.39,3.67l-1.71,1A8.23,8.23,0,0,0,13.17,6l-.51.55.07.06.5-.52A8.19,8.19,0,0,1,14.94,8.35Z" fill="#fff"/><ellipse cx="14.47" cy="1.96" rx="0.08" ry="0.42" transform="translate(4.65 12.77) rotate(-55.45)" fill="#fff"/><path d="M13.25,3.69c.16.11.31.17.34.13s-.08-.15-.24-.26S13,3.4,13,3.44,13.1,3.59,13.25,3.69Z" fill="#fff"/><ellipse cx="12.7" cy="6.6" rx="0.07" ry="0.21" transform="translate(-0.78 11.41) rotate(-47.08)" fill="#fff"/><ellipse cx="16.67" cy="7.32" rx="0.08" ry="0.32" transform="translate(-1.43 9.24) rotate(-29.76)" fill="#fff"/><ellipse cx="14.92" cy="8.3" rx="0.08" ry="0.26" transform="translate(-2.15 8.37) rotate(-29.33)" fill="#fff"/><ellipse cx="13.22" cy="6.1" rx="0.05" ry="0.17" transform="translate(-0.37 11.31) rotate(-45.75)" fill="#fff"/><path d="M11.55,11.33l1.92-.61A6.42,6.42,0,0,0,12,8.08l1.5-1.39-.07-.07L11.91,8a6.38,6.38,0,0,1,1.5,2.61l-1.85.61a4.58,4.58,0,0,0-.65-1.35l-.61.44,0,0,.59-.41A4.58,4.58,0,0,1,11.55,11.33Z" fill="#fff"/><ellipse cx="13.45" cy="6.66" rx="0.08" ry="0.27" transform="translate(-0.96 10.86) rotate(-42.59)" fill="#fff"/><ellipse cx="11.95" cy="8.05" rx="0.08" ry="0.21" transform="translate(-2.29 10.28) rotate(-42.84)" fill="#fff"/><ellipse cx="10.32" cy="10.37" rx="0.07" ry="0.1" transform="translate(-4.1 7.92) rotate(-35.5)" fill="#fff"/><ellipse cx="13.45" cy="10.68" rx="0.08" ry="0.2" transform="translate(-2.66 4.71) rotate(-18.12)" fill="#fff"/><ellipse cx="11.55" cy="11.3" rx="0.08" ry="0.14" transform="matrix(0.95, -0.3, 0.3, 0.95, -2.87, 4)" fill="#fff"/><ellipse cx="10.92" cy="9.97" rx="0.05" ry="0.09" transform="translate(-3.73 7.95) rotate(-34.53)" fill="#fff"/><path d="M14.66,12.89h2a10.2,10.2,0,0,0-.78-4.2l1.85-.85-.05-.12-1.87.88a10.14,10.14,0,0,1,.83,4.18H14.69a8.36,8.36,0,0,0-.3-2.36l-.71.22,0,.08.68-.21A8.27,8.27,0,0,1,14.66,12.89Z" fill="#fff"/><ellipse cx="17.69" cy="7.8" rx="0.08" ry="0.34" transform="translate(-1.64 8.28) rotate(-25.21)" fill="#fff"/><ellipse cx="15.85" cy="8.65" rx="0.08" ry="0.28" transform="translate(-2.18 7.62) rotate(-25.35)" fill="#fff"/><ellipse cx="13.7" cy="10.71" rx="0.07" ry="0.17" transform="translate(-2.51 4.42) rotate(-16.82)" fill="#fff"/><path d="M16.57,12.85c0,.15,0,.28.07.28s.09-.12.09-.28,0-.29-.08-.29S16.57,12.7,16.57,12.85Z" fill="#fff"/><ellipse cx="14.67" cy="12.85" rx="0.23" ry="0.08" transform="translate(1.64 27.37) rotate(-89.32)" fill="#fff"/><ellipse cx="14.38" cy="10.53" rx="0.05" ry="0.14" transform="translate(-2.42 4.58) rotate(-16.71)" fill="#fff"/><path d="M17.88,20.17l0,0a14,14,0,0,0,1.4-3l.8.28A15.3,15.3,0,0,0,20,7.56L18.85,8a11.64,11.64,0,0,0-6.48-6.81v0a11.62,11.62,0,0,1,6.51,6.93L20,7.71a15.26,15.26,0,0,1,.1,9.55l-.8-.27A14.18,14.18,0,0,1,17.88,20.17Z" fill="#fff"/><path d="M12.76,1.4s-.14-.15-.36-.25S12,1,12,1.05s.15.14.37.24S12.73,1.44,12.76,1.4Z" fill="#fff"/><path d="M19,8.4s0-.19,0-.38-.16-.33-.21-.31,0,.19.06.38S18.93,8.41,19,8.4Z" fill="#fff"/><path d="M17.75,20.4s.13-.08.22-.22.13-.29.1-.31-.13.09-.21.23S17.72,20.38,17.75,20.4Z" fill="#fff"/><ellipse cx="19.99" cy="7.59" rx="0.08" ry="0.4" transform="translate(-1.39 7.27) rotate(-19.94)" fill="#fff"/><ellipse cx="20.09" cy="17.39" rx="0.41" ry="0.08" transform="translate(-2.63 31.18) rotate(-72.13)" fill="#fff"/><ellipse cx="19.31" cy="17.12" rx="0.24" ry="0.05" transform="translate(-2.93 30.23) rotate(-72.09)" fill="#fff"/><path d="M12.51,16.62l0,0a7.23,7.23,0,0,0,.72-1.57l.8.28A8.31,8.31,0,0,0,14,10l-1.15.46A5.84,5.84,0,0,0,9.6,7V7a5.82,5.82,0,0,1,3.26,3.46L14,10.06A8.28,8.28,0,0,1,14,15.25l-.8-.27A7.41,7.41,0,0,1,12.51,16.62Z" fill="#fff"/><path d="M9.79,7.12S9.74,7,9.62,7s-.22-.05-.24,0,.06.11.17.16S9.77,7.16,9.79,7.12Z" fill="#fff"/><ellipse cx="12.83" cy="10.45" rx="0.08" ry="0.18" transform="translate(-2.79 5) rotate(-19.92)" fill="#fff"/><ellipse cx="12.53" cy="16.6" rx="0.16" ry="0.07" transform="translate(-8.18 18.56) rotate(-58.35)" fill="#fff"/><ellipse cx="13.98" cy="9.99" rx="0.08" ry="0.22" transform="translate(-2.56 5.35) rotate(-19.89)" fill="#fff"/><path d="M14,15.53s.11-.07.15-.18,0-.23,0-.24-.1.07-.14.18S13.93,15.52,14,15.53Z" fill="#fff"/><ellipse cx="13.25" cy="15.05" rx="0.12" ry="0.05" transform="translate(-5.18 22.96) rotate(-71.87)" fill="#fff"/><path d="M11.36,21v0a8.51,8.51,0,0,0,1.88-1.42l.59.62a10.68,10.68,0,0,0,3-6.4l-1.22-.12a9,9,0,0,0-1.46-6.05l0,0a9,9,0,0,1,1.44,6.12l1.21.13a10.65,10.65,0,0,1-2.86,6.19l-.6-.61A8.29,8.29,0,0,1,11.36,21Z" fill="#fff"/><ellipse cx="14.12" cy="7.67" rx="0.08" ry="0.26" transform="translate(-1.85 9.44) rotate(-34.83)" fill="#fff"/><ellipse cx="15.55" cy="13.72" rx="0.26" ry="0.08" transform="translate(0.24 27.71) rotate(-83.85)" fill="#fff"/><ellipse cx="11.4" cy="21" rx="0.22" ry="0.07" transform="translate(-8.79 8.21) rotate(-29.16)" fill="#fff"/><ellipse cx="16.79" cy="13.85" rx="0.29" ry="0.08" transform="translate(1.2 29.03) rotate(-83.75)" fill="#fff"/><ellipse cx="13.85" cy="20.2" rx="0.29" ry="0.08" transform="translate(-10.24 15.8) rotate(-45.21)" fill="#fff"/><ellipse cx="13.27" cy="19.59" rx="0.17" ry="0.05" transform="translate(-9.98 15.21) rotate(-45.22)" fill="#fff"/><path d="M10.11,16.48l0,0a4.83,4.83,0,0,0,.77-1l.71.47a6.31,6.31,0,0,0,.88-3.91l-1.22.16A4.21,4.21,0,0,0,9.82,9.44l0,0a4.19,4.19,0,0,1,1.45,2.86l1.22-.15a6.27,6.27,0,0,1-.84,3.78l-.72-.46A4.77,4.77,0,0,1,10.11,16.48Z" fill="#fff"/><path d="M9.91,9.54s0-.1,0-.15-.13-.06-.16,0,0,.1.05.15S9.88,9.57,9.91,9.54Z" fill="#fff"/><ellipse cx="11.25" cy="12.27" rx="0.08" ry="0.13" transform="translate(-1.19 1.21) rotate(-5.85)" fill="#fff"/><ellipse cx="10.13" cy="16.48" rx="0.11" ry="0.07" transform="translate(-8.6 11.65) rotate(-43.95)" fill="#fff"/><ellipse cx="12.47" cy="12.11" rx="0.08" ry="0.16" transform="translate(-1.22 1.4) rotate(-6.14)" fill="#fff"/><path d="M11.52,16.13s.11,0,.15-.09.05-.16,0-.19-.1,0-.15.1S11.48,16.11,11.52,16.13Z" fill="#fff"/><ellipse cx="10.9" cy="15.53" rx="0.09" ry="0.05" transform="translate(-8.04 16.74) rotate(-58.6)" fill="#fff"/><path d="M5.91,19.33v0a7.41,7.41,0,0,0,2,0l.15.84A6.74,6.74,0,0,0,12.7,17.5l-1-.77A6.78,6.78,0,0,0,13,12.54h0a6.78,6.78,0,0,1-1.32,4.23l1,.78a6.7,6.7,0,0,1-4.45,2.64L8,19.34A7.24,7.24,0,0,1,5.91,19.33Z" fill="#fff"/><ellipse cx="13" cy="12.54" rx="0.08" ry="0.18" transform="translate(-0.37 0.4) rotate(-1.72)" fill="#fff"/><ellipse cx="11.71" cy="16.73" rx="0.18" ry="0.08" transform="translate(-8.71 16.24) rotate(-53.63)" fill="#fff"/><ellipse cx="5.94" cy="19.35" rx="0.06" ry="0.2" transform="translate(-14.07 22.42) rotate(-81.66)" fill="#fff"/><ellipse cx="12.68" cy="17.5" rx="0.21" ry="0.08" transform="translate(-8.93 17.12) rotate(-53.08)" fill="#fff"/><ellipse cx="8.1" cy="20.21" rx="0.25" ry="0.08" transform="translate(-2.74 1.33) rotate(-8.01)" fill="#fff"/><ellipse cx="7.96" cy="19.38" rx="0.13" ry="0.05" transform="translate(-2.47 1.21) rotate(-7.52)" fill="#fff"/><path d="M12.92,19.2h0a8.12,8.12,0,0,0,.66-.75l.3.25a9.48,9.48,0,0,0,1.4-2.55l-.51-.2a9.6,9.6,0,0,0,.56-2.71h0A9.63,9.63,0,0,1,14.74,16l.51.2a9.43,9.43,0,0,1-1.36,2.47l-.3-.25A8.81,8.81,0,0,1,12.92,19.2Z" fill="#fff"/><ellipse cx="15.32" cy="13.24" rx="0.11" ry="0.04" transform="translate(1.17 27.73) rotate(-86.51)" fill="#fff"/><ellipse cx="14.76" cy="15.96" rx="0.11" ry="0.04" transform="translate(-5.32 24.28) rotate(-69.75)" fill="#fff"/><ellipse cx="12.93" cy="19.2" rx="0.09" ry="0.03" transform="translate(-9.82 14.94) rotate(-45.44)" fill="#fff"/><ellipse cx="15.27" cy="16.16" rx="0.12" ry="0.04" transform="translate(-5.15 24.95) rotate(-69.89)" fill="#fff"/><ellipse cx="13.88" cy="18.7" rx="0.12" ry="0.04" transform="translate(-9.4 18.12) rotate(-52)" fill="#fff"/><ellipse cx="13.58" cy="18.46" rx="0.07" ry="0.02" transform="translate(-9.33 17.99) rotate(-52.48)" fill="#fff"/><path d="M11.91,16h0a6.78,6.78,0,0,1-.37.57l-.3-.24A5.22,5.22,0,0,1,10,17.53l.31.46a5.5,5.5,0,0,1-1.9.82h0A5.54,5.54,0,0,0,10.3,18L10,17.53a5.26,5.26,0,0,0,1.24-1.21l.3.24A6,6,0,0,0,11.91,16Z" fill="#fff"/><ellipse cx="8.37" cy="18.82" rx="0.09" ry="0.04" transform="translate(-3.78 2.19) rotate(-12.18)" fill="#fff"/><ellipse cx="10.28" cy="18" rx="0.08" ry="0.04" transform="translate(-8.31 8.82) rotate(-34)" fill="#fff"/><ellipse cx="11.9" cy="15.96" rx="0.06" ry="0.03" transform="translate(-7.8 18.8) rotate(-61.47)" fill="#fff"/><ellipse cx="9.96" cy="17.53" rx="0.07" ry="0.04" transform="translate(-8.2 8.78) rotate(-34.66)" fill="#fff"/><ellipse cx="11.23" cy="16.29" rx="0.07" ry="0.04" transform="translate(-8.55 15.82) rotate(-54.05)" fill="#fff"/><ellipse cx="11.53" cy="16.53" rx="0.05" ry="0.02" transform="translate(-8.6 15.76) rotate(-52.91)" fill="#fff"/><path d="M16.13,4l0,0a11.25,11.25,0,0,1,1.43,1.83L17,6.19A11.9,11.9,0,0,1,18.81,12l.87-.06a14.36,14.36,0,0,1-1.19,6.46h0a14.44,14.44,0,0,0,1.19-6.57l-.87.07A12,12,0,0,0,17.1,6.26l.52-.33A11.29,11.29,0,0,0,16.13,4Z" fill="#fff"/><ellipse cx="18.5" cy="18.38" rx="0.26" ry="0.06" transform="translate(-5.8 27.83) rotate(-66.08)" fill="#fff"/><ellipse cx="19.69" cy="11.9" rx="0.06" ry="0.27" transform="translate(-0.61 1.06) rotate(-3.05)" fill="#fff"/><ellipse cx="16.15" cy="4.05" rx="0.05" ry="0.22" transform="translate(1.69 12.3) rotate(-43.78)" fill="#fff"/><ellipse cx="18.82" cy="11.96" rx="0.06" ry="0.25" transform="translate(-0.57 0.94) rotate(-2.82)" fill="#fff"/><ellipse cx="17.05" cy="6.2" rx="0.06" ry="0.25" transform="translate(-0.69 10) rotate(-32.07)" fill="#fff"/><ellipse cx="17.56" cy="5.87" rx="0.04" ry="0.16" transform="translate(-0.43 10.27) rotate(-32.22)" fill="#fff"/><path d="M15,17l0,.06.45.23a9.92,9.92,0,0,1-1.1,1.77l1.1.92a11.47,11.47,0,0,0,1.69-3l1.33.54,0-.09-1.35-.54a11.56,11.56,0,0,1-1.66,3l-1.08-.88a10,10,0,0,0,1.09-1.78Z" fill="#fff"/><ellipse cx="18.48" cy="17.49" rx="0.26" ry="0.06" transform="translate(-4.65 28.08) rotate(-68.01)" fill="#fff"/><ellipse cx="17.12" cy="16.98" rx="0.23" ry="0.06" transform="translate(-4.86 26.91) rotate(-69.06)" fill="#fff"/><path d="M15,17.06c0,.08,0,.15,0,.16s.07,0,.11-.12,0-.15,0-.16S15,17,15,17.06Z" fill="#fff"/><ellipse cx="15.45" cy="20" rx="0.23" ry="0.06" transform="translate(-9.8 19.03) rotate(-50.12)" fill="#fff"/><ellipse cx="14.35" cy="19.09" rx="0.2" ry="0.06" transform="translate(-9.51 18.16) rotate(-50.85)" fill="#fff"/><ellipse cx="15.43" cy="17.34" rx="0.12" ry="0.03" transform="translate(-7.15 22.7) rotate(-61.68)" fill="#fff"/><path d="M10.38,18.13l0,0,.28.43a6.14,6.14,0,0,1-1.35.68l.51,1.35a7.37,7.37,0,0,0,2.27-1.3L13,20.44l.06-.05-.94-1.14a7.23,7.23,0,0,1-2.25,1.32l-.51-1.3a6,6,0,0,0,1.35-.69Z" fill="#fff"/><ellipse cx="13" cy="20.41" rx="0.2" ry="0.06" transform="translate(-9.97 12.81) rotate(-39.19)" fill="#fff"/><ellipse cx="12.08" cy="19.28" rx="0.17" ry="0.06" transform="translate(-9.39 11.74) rotate(-38.57)" fill="#fff"/><ellipse cx="10.36" cy="18.14" rx="0.11" ry="0.05" transform="translate(-8.15 8.45) rotate(-32.64)" fill="#fff"/><ellipse cx="9.81" cy="20.59" rx="0.18" ry="0.06" transform="translate(-6.58 4.73) rotate(-20.47)" fill="#fff"/><ellipse cx="9.3" cy="19.25" rx="0.15" ry="0.06" transform="translate(-6.43 4.77) rotate(-21.59)" fill="#fff"/><ellipse cx="10.63" cy="18.58" rx="0.09" ry="0.04" transform="translate(-8.34 8.66) rotate(-32.62)" fill="#fff"/><path d="M9.31,8.11l0,0,.24-.45a5.36,5.36,0,0,1,1.15.75l1-1.08A7,7,0,0,0,9.52,6.1l.53-1.33-.08,0L9.45,6.1a7,7,0,0,1,2.2,1.23l-.92,1.05a5.43,5.43,0,0,0-1.17-.75Z" fill="#fff"/><ellipse cx="10.01" cy="4.75" rx="0.06" ry="0.22" transform="translate(1.91 12.31) rotate(-68.41)" fill="#fff"/><ellipse cx="9.48" cy="6.09" rx="0.06" ry="0.18" transform="translate(0.45 12.83) rotate(-69.43)" fill="#fff"/><ellipse cx="9.34" cy="8.11" rx="0.05" ry="0.1" transform="translate(-2.05 12.93) rotate(-63.94)" fill="#fff"/><ellipse cx="11.72" cy="7.37" rx="0.06" ry="0.16" transform="translate(-1.51 11.43) rotate(-49.23)" fill="#fff"/><ellipse cx="10.73" cy="8.41" rx="0.06" ry="0.13" transform="translate(-2.66 10.98) rotate(-48.95)" fill="#fff"/><ellipse cx="9.59" cy="7.67" rx="0.04" ry="0.09" transform="translate(-1.73 12.45) rotate(-61.54)" fill="#fff"/><path d="M18.8,9.27v0L19,9.25c.1.37.18.75.24,1.14l.6-.12a13.54,13.54,0,0,0-.4-1.71l.58-.2v0l-.59.2a14.22,14.22,0,0,1,.41,1.71l-.58.12c-.07-.38-.15-.76-.25-1.13Z" fill="#fff"/><ellipse cx="20.03" cy="8.33" rx="0.03" ry="0.12" transform="translate(-1.58 6.38) rotate(-17.41)" fill="#fff"/><ellipse cx="19.45" cy="8.53" rx="0.03" ry="0.12" transform="matrix(0.96, -0.28, 0.28, 0.96, -1.62, 5.86)" fill="#fff"/><ellipse cx="18.8" cy="9.29" rx="0.02" ry="0.09" transform="translate(-1.97 6.42) rotate(-18.43)" fill="#fff"/><ellipse cx="19.85" cy="10.24" rx="0.02" ry="0.12" transform="translate(-1.41 3.39) rotate(-9.44)" fill="#fff"/><ellipse cx="19.25" cy="10.36" rx="0.02" ry="0.11" transform="translate(-1.85 4.66) rotate(-13.16)" fill="#fff"/><ellipse cx="19.01" cy="9.24" rx="0.02" ry="0.07" transform="matrix(0.96, -0.27, 0.27, 0.96, -1.8, 5.53)" fill="#fff"/><path d="M16.66,11.64s0,0,0,0l.21,0c0,.31,0,.62,0,.93l.6,0a11.77,11.77,0,0,0-.09-1.42L18,11a.22.22,0,0,0,0,0l-.61.1a11.51,11.51,0,0,1,.1,1.42l-.59,0c0-.31,0-.62,0-.93Z" fill="#fff"/><ellipse cx="18.04" cy="11.02" rx="0.03" ry="0.1" transform="translate(-1.06 1.97) rotate(-6.06)" fill="#fff"/><ellipse cx="17.43" cy="11.12" rx="0.02" ry="0.09" transform="translate(-1.19 2.13) rotate(-6.76)" fill="#fff"/><ellipse cx="16.67" cy="11.65" rx="0.02" ry="0.07" transform="translate(-1.49 2.49) rotate(-8.17)" fill="#fff"/><ellipse cx="17.53" cy="12.54" rx="0.02" ry="0.09" transform="translate(-0.49 0.72) rotate(-2.32)" fill="#fff"/><ellipse cx="16.93" cy="12.56" rx="0.02" ry="0.09" transform="translate(-0.51 0.72) rotate(-2.4)" fill="#fff"/><ellipse cx="16.88" cy="11.64" rx="0.02" ry="0.06" transform="translate(-1.28 2.11) rotate(-6.91)" fill="#fff"/><path d="M12.76,9l0,0L13,8.87a7,7,0,0,1,.37.67L14,9.22a7.32,7.32,0,0,0-.61-1L14,7.76l0,0-.58.42a7.14,7.14,0,0,1,.61,1l-.61.31A6.19,6.19,0,0,0,13,8.84Z" fill="#fff"/><ellipse cx="13.94" cy="7.75" rx="0.03" ry="0.09" transform="translate(-1.84 10.03) rotate(-37.28)" fill="#fff"/><ellipse cx="13.36" cy="8.16" rx="0.03" ry="0.08" transform="translate(-2.27 9) rotate(-34.5)" fill="#fff"/><ellipse cx="12.77" cy="8.99" rx="0.02" ry="0.06" transform="translate(-2.83 8.34) rotate(-32.74)" fill="#fff"/><ellipse cx="13.97" cy="9.21" rx="0.03" ry="0.08" transform="translate(-2.7 7.76) rotate(-28.41)" fill="#fff"/><ellipse cx="13.35" cy="9.52" rx="0.03" ry="0.07" transform="translate(-2.79 6.62) rotate(-25.31)" fill="#fff"/><ellipse cx="12.99" cy="8.86" rx="0.02" ry="0.05" transform="translate(-2.71 9.83) rotate(-37.83)" fill="#fff"/><path d="M18,16.69h0c.11-.32.2-.65.28-1l.28.07a13.57,13.57,0,0,0,.37-2.93h-.42A12.53,12.53,0,0,0,18.2,10h0a12.51,12.51,0,0,1,.27,2.89h.42a13.57,13.57,0,0,1-.36,2.83l-.28-.07C18.16,16,18.06,16.35,18,16.69Z" fill="#fff"/><ellipse cx="18.2" cy="10.01" rx="0.03" ry="0.11" transform="translate(-1.66 3.93) rotate(-11.79)" fill="#fff"/><ellipse cx="18.47" cy="12.86" rx="0.11" ry="0.03" transform="translate(5.3 31.11) rotate(-89.02)" fill="#fff"/><ellipse cx="17.96" cy="16.68" rx="0.1" ry="0.02" transform="translate(-3.44 28.62) rotate(-72.04)" fill="#fff"/><ellipse cx="18.89" cy="12.86" rx="0.12" ry="0.03" transform="translate(5.95 31.69) rotate(-89.76)" fill="#fff"/><ellipse cx="18.52" cy="15.77" rx="0.12" ry="0.03" transform="translate(-0.99 30.3) rotate(-77.1)" fill="#fff"/><ellipse cx="18.24" cy="15.7" rx="0.07" ry="0.02" transform="translate(-1.23 29.84) rotate(-76.71)" fill="#fff"/><path d="M14.8,15h0c-.06.23-.13.46-.21.69l-.27-.1a8.67,8.67,0,0,1-.84,1.75l.35.24a8.19,8.19,0,0,1-1.31,1.58h0a8.08,8.08,0,0,0,1.32-1.62l-.35-.24a8.61,8.61,0,0,0,.82-1.7l.27.1C14.66,15.53,14.73,15.29,14.8,15Z" fill="#fff"/><ellipse cx="12.51" cy="19.21" rx="0.08" ry="0.03" transform="translate(-9.72 13.62) rotate(-42.82)" fill="#fff"/><ellipse cx="13.82" cy="17.62" rx="0.08" ry="0.03" transform="translate(-8.46 19.89) rotate(-57.71)" fill="#fff"/><ellipse cx="14.79" cy="15.05" rx="0.07" ry="0.02" transform="translate(-3.4 25.75) rotate(-75.96)" fill="#fff"/><ellipse cx="13.47" cy="17.38" rx="0.08" ry="0.03" transform="matrix(0.55, -0.84, 0.84, 0.55, -8.45, 19.09)" fill="#fff"/><ellipse cx="14.31" cy="15.64" rx="0.08" ry="0.03" transform="translate(-5.2 23.93) rotate(-70.56)" fill="#fff"/><ellipse cx="14.58" cy="15.74" rx="0.05" ry="0.02" transform="translate(-4.96 24.59) rotate(-71.57)" fill="#fff"/><path d="M10.78,8.61h0l.29.28-.17.16a4.68,4.68,0,0,1,.64.85l.28-.18a5.29,5.29,0,0,1,.47,1h0a5.5,5.5,0,0,0-.48-1l-.28.18a4.81,4.81,0,0,0-.62-.82l.17-.16Z" fill="#fff"/><ellipse cx="12.29" cy="10.73" rx="0.02" ry="0.04" transform="translate(-2.87 4.7) rotate(-19.44)" fill="#fff"/><ellipse cx="11.82" cy="9.72" rx="0.02" ry="0.04" transform="translate(-3.37 7.87) rotate(-32.5)" fill="#fff"/><ellipse cx="10.78" cy="8.62" rx="0.02" ry="0.04" transform="matrix(0.66, -0.75, 0.75, 0.66, -2.81, 11.03)" fill="#fff"/><ellipse cx="11.54" cy="9.89" rx="0.02" ry="0.04" transform="translate(-3.44 7.31) rotate(-30.84)" fill="#fff"/><ellipse cx="10.9" cy="9.05" rx="0.02" ry="0.04" transform="translate(-3.25 9.79) rotate(-42.69)" fill="#fff"/><ellipse cx="11.07" cy="8.9" rx="0.01" ry="0.03" transform="translate(-3.07 10.25) rotate(-44.28)" fill="#fff"/><path d="M12.72,4.77h0c.2.14.39.28.58.43l-.15.17a8.62,8.62,0,0,1,1.35,1.35l.26-.21a9.08,9.08,0,0,1,1,1.63h0a9.08,9.08,0,0,0-1-1.65l-.26.21a8.52,8.52,0,0,0-1.3-1.31l.15-.17C13.13,5.06,12.93,4.91,12.72,4.77Z" fill="#fff"/><ellipse cx="15.78" cy="8.15" rx="0.02" ry="0.08" transform="translate(-1.97 7.61) rotate(-25.56)" fill="#fff"/><ellipse cx="14.74" cy="6.52" rx="0.02" ry="0.08" transform="translate(-0.86 10.58) rotate(-38.45)" fill="#fff"/><ellipse cx="12.72" cy="4.78" rx="0.02" ry="0.07" transform="translate(1.6 12.59) rotate(-55.68)" fill="#fff"/><ellipse cx="14.48" cy="6.72" rx="0.02" ry="0.08" transform="translate(-1.02 10.54) rotate(-38.74)" fill="#fff"/><ellipse cx="13.15" cy="5.38" rx="0.02" ry="0.08" transform="translate(0.77 12.35) rotate(-51.64)" fill="#fff"/><ellipse cx="13.3" cy="5.21" rx="0.01" ry="0.05" transform="translate(0.73 11.98) rotate(-49.72)" fill="#fff"/><path d="M13.63,10.89h0c0,.2.09.39.12.59l-.28.06a7.36,7.36,0,0,1,.08,1.64l.42,0a8,8,0,0,1-.3,1.73h0a8.07,8.07,0,0,0,.3-1.76l-.42,0a7.36,7.36,0,0,0-.08-1.59l.28-.05C13.73,11.3,13.68,11.1,13.63,10.89Z" fill="#fff"/><ellipse cx="13.66" cy="14.94" rx="0.07" ry="0.03" transform="translate(-4.36 24.16) rotate(-74.64)" fill="#fff"/><ellipse cx="13.96" cy="13.2" rx="0.07" ry="0.03" transform="translate(-0.08 26.31) rotate(-86.42)" fill="#fff"/><ellipse cx="13.63" cy="10.9" rx="0.02" ry="0.06" transform="translate(-2.2 3.55) rotate(-13.76)" fill="#fff"/><ellipse cx="13.54" cy="13.18" rx="0.07" ry="0.03" transform="translate(-0.31 26.03) rotate(-87.07)" fill="#fff"/><ellipse cx="13.46" cy="11.55" rx="0.03" ry="0.07" transform="translate(-1.77 2.47) rotate(-9.83)" fill="#fff"/><ellipse cx="13.75" cy="11.49" rx="0.02" ry="0.04" transform="translate(-1.58 2.21) rotate(-8.7)" fill="#fff"/><path d="M9.7,9.23h0L9.86,9a4.69,4.69,0,0,1,.4.34l.49-.49a4.74,4.74,0,0,0-.68-.55l.41-.56h0L10,8.34a4.92,4.92,0,0,1,.68.55l-.47.48A4.24,4.24,0,0,0,9.86,9Z" fill="#fff"/><ellipse cx="10.47" cy="7.78" rx="0.03" ry="0.07" transform="translate(-2.06 11.4) rotate(-52.72)" fill="#fff"/><ellipse cx="10.06" cy="8.34" rx="0.03" ry="0.06" transform="translate(-2.66 11.32) rotate(-52.82)" fill="#fff"/><ellipse cx="9.71" cy="9.23" rx="0.02" ry="0.04" transform="translate(-3.52 11.35) rotate(-52.66)" fill="#fff"/><ellipse cx="10.74" cy="8.89" rx="0.03" ry="0.06" transform="translate(-3.17 9.79) rotate(-43.29)" fill="#fff"/><ellipse cx="10.26" cy="9.38" rx="0.03" ry="0.05" transform="translate(-3.62 10.17) rotate(-45.69)" fill="#fff"/><ellipse cx="9.86" cy="9.04" rx="0.02" ry="0.03" transform="matrix(0.65, -0.76, 0.76, 0.65, -3.42, 10.67)" fill="#fff"/><path d="M17.4,17.08h0a12.53,12.53,0,0,0,.22-8.19l-1.16.42a9.24,9.24,0,0,0-4.63-5.43l.42-.74A12.36,12.36,0,0,0,8.91,2v0a12.16,12.16,0,0,1,3.25,1.07l-.41.75a9.22,9.22,0,0,1,4.76,5.57L17.66,9A12.5,12.5,0,0,1,17.4,17.08Z" fill="#fff"/><ellipse cx="17.42" cy="17.09" rx="0.33" ry="0.08" transform="translate(-4.67 27.45) rotate(-69.59)" fill="#fff"/><path d="M17.56,8.69s0,.17,0,.34.13.3.17.29,0-.17,0-.34S17.61,8.67,17.56,8.69Z" fill="#fff"/><ellipse cx="8.95" cy="2.05" rx="0.07" ry="0.34" transform="translate(5.29 10.47) rotate(-79.35)" fill="#fff"/><path d="M16.41,9.14s0,.15,0,.31.12.27.16.25,0-.15,0-.31S16.45,9.12,16.41,9.14Z" fill="#fff"/><ellipse cx="11.76" cy="3.86" rx="0.08" ry="0.33" transform="translate(3.03 12.64) rotate(-63.32)" fill="#fff"/><ellipse cx="12.17" cy="3.12" rx="0.05" ry="0.23" transform="translate(3.91 12.59) rotate(-63.27)" fill="#fff"/><path d="M10.76,5.71l1-1.82-.06,0-1,1.82Z" fill="#fff"/><path d="M10.7,5.78c.14.07.27.1.3.06s-.07-.14-.21-.21-.28-.09-.31,0S10.56,5.71,10.7,5.78Z" fill="#fff"/><path d="M18.48,17.53h0a14.07,14.07,0,0,0,.87-4.19,13.43,13.43,0,0,0,.33-1.42v-.05a13.52,13.52,0,0,1-.33,1.45A14,14,0,0,1,18.48,17.53Z" fill="#fff"/><path d="M12.64,17.55l.2.16A8.07,8.07,0,0,0,14,15.42h0a7.92,7.92,0,0,1-1.17,2.24l-.18-.14Z" fill="#fff"/><path d="M17.11,17h0a12.35,12.35,0,0,0,.72-3.08l-1.06-.1s0,.05,0,.08l1,.11A12.37,12.37,0,0,1,17.11,17Z" fill="#fff"/><path d="M12.46,12.11h0a6.08,6.08,0,0,0-.1-.64l-.78.19c0-.12-.05-.23-.08-.34h0c0,.12.07.25.09.38l.78-.19A5.68,5.68,0,0,1,12.46,12.11Z" fill="#fff"/><path d="M13.05,15l.19.07,0-.05L13.09,15a7.37,7.37,0,0,0,.35-2.49l-.44,0s0,0,0,.05l.42,0A7.36,7.36,0,0,1,13.05,15Z" fill="#fff"/><path d="M15.42,17.33h0A10.71,10.71,0,0,0,16.25,15l-.88-.2a9.8,9.8,0,0,0,.18-1.09h0a9.92,9.92,0,0,1-.2,1.16l.88.21A10.56,10.56,0,0,1,15.42,17.33Z" fill="#fff"/><path d="M14.6,15l.18,0v0l-.16,0a9,9,0,0,0,.29-1.79l.41,0s0,0,0,0l-.42,0A9.07,9.07,0,0,1,14.6,15Z" fill="#fff"/><path d="M20,7.59h0Q19.8,7,19.53,6.45l-.8.4A11.8,11.8,0,0,0,14.48,2h0a11.79,11.79,0,0,1,4.28,5l.8-.4C19.72,6.87,19.86,7.23,20,7.59Z" fill="#fff"/><path d="M12,2.54l.62-1.24-.07,0L11.9,2.5A13,13,0,0,0,9,1.62L8.94,2l.08,0,.08-.41A12.93,12.93,0,0,1,12,2.54Z" fill="#fff"/><path d="M12.7,6.61l0,0a7.58,7.58,0,0,0-.92-.72l-.5.71a7,7,0,0,1,.7.53l-.25.27,0,0,.26-.29a6.06,6.06,0,0,0-.7-.54l.48-.67A7.65,7.65,0,0,1,12.7,6.61Z" fill="#fff"/><path d="M10.44,6.34l.33-.59,0,0-.32.58c-.2-.1-.42-.19-.64-.28l0,.1-.22,0,0,0,.24,0,0-.09C10,6.14,10.24,6.24,10.44,6.34Z" fill="#fff"/><path d="M17,6.21h0a10.74,10.74,0,0,0-1.35-1.73L16.16,4l0-.05-.46.44A11,11,0,0,1,17,6.21Z" fill="#fff"/><path d="M15.22,9l.64-.29,0,0-.62.29c-.09-.21-.19-.42-.3-.62h0C15,8.53,15.12,8.75,15.22,9Z" fill="#fff"/><path d="M9.33,8.12h0a5.65,5.65,0,0,0-.84-.32l.34-1A6.49,6.49,0,0,1,9.59,7V7a7.57,7.57,0,0,0-.79-.28L8.46,7.79A5.62,5.62,0,0,1,9.33,8.12Z" fill="#fff"/><path d="M11,12.35l.24,0v0l-.23,0a4.12,4.12,0,0,0-.7-2h0A4.13,4.13,0,0,1,11,12.35Z" fill="#fff"/><path d="M10.34,18.15v0a4.87,4.87,0,0,0,.41-.3l-.05-.06a5.8,5.8,0,0,0,1-1.06h0a6,6,0,0,1-1,1.08l.05.07Z" fill="#fff"/><path d="M13.86,21l.32.37A10.72,10.72,0,0,0,15.44,20h0a10.39,10.39,0,0,1-1.19,1.28L13.94,21l.34-.33-.41-.43-.05.06.39.42Z" fill="#fff"/><ellipse cx="6.43" cy="21.79" rx="6.43" ry="0.93" fill="#fff" opacity="0.3" style="mix-blend-mode:multiply"/></g></g></g></svg>