<svg xmlns="http://www.w3.org/2000/svg" viewBox="0 0 22.36 22.73">
<title>Asset 5</title>
<g style="isolation:isolate">
<g id="Layer_2" data-name="Layer 2">
<g id="Layer_1-2" data-name="Layer 1">
<g opacity="0.15">
<path d="M6.59,14.6l-2,1.09a11.09,11.09,0,0,0,3.72,4.12L7,21.66l.14.09,1.31-1.88a11.05,11.05,0,0,1-3.77-4.08l1.89-1.07a9.14,9.14,0,0,0,1.94,2.47l.57-.61L9,16.5l-.55.58A9.14,9.14,0,0,1,6.59,14.6Z" fill="#fff"/>
<path d="M7.16,21.63c-.21-.14-.4-.22-.43-.18s.11.19.33.33.42.21.45.17S7.37,21.77,7.16,21.63Z" fill="#fff"/>
<ellipse cx="8.41" cy="19.85" rx="0.09" ry="0.39" transform="translate(-12.67 15.36) rotate(-55.02)" fill="#fff"/>
<ellipse cx="9.08" cy="16.55" rx="0.07" ry="0.23" transform="translate(-9.25 12.03) rotate(-47.42)" fill="#fff"/>
<ellipse cx="4.66" cy="15.75" rx="0.09" ry="0.36" transform="translate(-7.17 4.35) rotate(-29.58)" fill="#fff"/>
<ellipse cx="6.61" cy="14.65" rx="0.09" ry="0.29" transform="translate(-6.35 5.15) rotate(-29.45)" fill="#fff"/>
<ellipse cx="8.5" cy="17.1" rx="0.06" ry="0.19" transform="translate(-9.74 11.46) rotate(-46.38)" fill="#fff"/>
<path d="M10.36,11.29,8.23,12A7.13,7.13,0,0,0,9.87,14.9L8.21,16.44l.08.08L10,14.94A7.06,7.06,0,0,1,8.29,12l2.06-.68a5.17,5.17,0,0,0,.72,1.5l.68-.48,0,0-.66.46A5.14,5.14,0,0,1,10.36,11.29Z" fill="#fff"/>
<ellipse cx="8.24" cy="16.48" rx="0.09" ry="0.3" transform="translate(-9 10) rotate(-42.83)" fill="#fff"/>
<ellipse cx="9.91" cy="14.93" rx="0.09" ry="0.23" transform="translate(-7.51 10.71) rotate(-42.83)" fill="#fff"/>
<ellipse cx="11.72" cy="12.36" rx="0.07" ry="0.11" transform="translate(-5.01 9.17) rotate(-35.72)" fill="#fff"/>
<ellipse cx="8.25" cy="12.01" rx="0.09" ry="0.22" transform="translate(-3.38 3.23) rotate(-18.48)" fill="#fff"/>
<ellipse cx="10.36" cy="11.32" rx="0.09" ry="0.16" transform="translate(-2.96 3.71) rotate(-17.8)" fill="#fff"/>
<ellipse cx="11.06" cy="12.8" rx="0.06" ry="0.1" transform="translate(-5.36 8.72) rotate(-35.24)" fill="#fff"/>
<path d="M6.9,9.55H4.68a11.37,11.37,0,0,0,.87,4.67l-2.05.94.06.13,2.08-1a11.3,11.3,0,0,1-.91-4.64H6.86a9.37,9.37,0,0,0,.34,2.62L8,12l0-.08-.76.23A9.27,9.27,0,0,1,6.9,9.55Z" fill="#fff"/>
<ellipse cx="3.53" cy="15.22" rx="0.09" ry="0.38" transform="translate(-6.11 2.93) rotate(-25.06)" fill="#fff"/>
<ellipse cx="5.58" cy="14.26" rx="0.09" ry="0.31" transform="translate(-5.52 3.71) rotate(-25.06)" fill="#fff"/>
<ellipse cx="7.97" cy="11.98" rx="0.07" ry="0.19" transform="matrix(0.96, -0.29, 0.29, 0.96, -3.15, 2.85)" fill="#fff"/>
<path d="M4.78,9.6c0-.17,0-.31-.08-.31s-.1.14-.1.31,0,.32.09.32S4.77,9.77,4.78,9.6Z" fill="#fff"/><path d="M7,9.6c0-.13,0-.25-.08-.25s-.09.11-.1.25,0,.26.09.26S7,9.74,7,9.6Z" fill="#fff"/>
<ellipse cx="7.21" cy="12.18" rx="0.06" ry="0.16" transform="translate(-3.26 2.65) rotate(-17.07)" fill="#fff"/>
<path d="M3.32,1.46l0,0A15.66,15.66,0,0,0,1.74,4.83L.85,4.52a17,17,0,0,0,.12,11L2.24,15a12.93,12.93,0,0,0,7.2,7.57v0a12.91,12.91,0,0,1-7.24-7.7l-1.28.5A16.94,16.94,0,0,1,.83,4.69L1.72,5A15.69,15.69,0,0,1,3.32,1.46Z" fill="#fff"/>
<path d="M9,22.33s.15.17.4.28.46.15.48.1-.17-.16-.41-.26S9,22.28,9,22.33Z" fill="#fff"/>
<path d="M2.11,14.55s0,.21.05.42.18.37.23.35,0-.21-.06-.42S2.16,14.53,2.11,14.55Z" fill="#fff"/>
<path d="M3.46,1.21s-.14.09-.24.25-.15.32-.11.34.14-.1.24-.26S3.5,1.23,3.46,1.21Z" fill="#fff"/>
<ellipse cx="0.97" cy="15.45" rx="0.09" ry="0.45" transform="translate(-5.2 1.26) rotate(-19.92)" fill="#fff"/>
<ellipse cx="0.86" cy="4.55" rx="0.45" ry="0.09" transform="translate(-3.73 3.97) rotate(-72.03)" fill="#fff"/>
<path d="M1.82,4.6s-.09.09-.13.23-.06.26,0,.27.09-.09.13-.24S1.85,4.61,1.82,4.6Z" fill="#fff"/>
<path d="M9.29,5.41l0,0a8.26,8.26,0,0,0-.8,1.74l-.89-.3a9.21,9.21,0,0,0,.06,6l1.27-.51a6.49,6.49,0,0,0,3.61,3.8l0,0A6.47,6.47,0,0,1,8.92,12.2l-1.28.5a9.22,9.22,0,0,1-.06-5.77l.89.29A8,8,0,0,1,9.29,5.41Z" fill="#fff"/>
<path d="M12.32,16s.05.13.18.18.24.06.26,0-.06-.12-.18-.17S12.34,15.93,12.32,16Z" fill="#fff"/>
<ellipse cx="8.93" cy="12.27" rx="0.09" ry="0.21" transform="translate(-3.66 3.79) rotate(-20)" fill="#fff"/>
<ellipse cx="9.27" cy="5.43" rx="0.18" ry="0.07" transform="translate(-0.21 10.49) rotate(-58.44)" fill="#fff"/>
<ellipse cx="7.65" cy="12.78" rx="0.09" ry="0.24" transform="translate(-3.95 3.44) rotate(-20.23)" fill="#fff"/>
<ellipse cx="7.59" cy="6.85" rx="0.25" ry="0.09" transform="translate(-1.27 11.96) rotate(-72.03)" fill="#fff"/>
<ellipse cx="8.47" cy="7.15" rx="0.14" ry="0.06" transform="translate(-0.96 12.99) rotate(-71.95)" fill="#fff"/>
<path d="M10.56.54v0A9.24,9.24,0,0,0,8.46,2.09L7.8,1.4A11.86,11.86,0,0,0,4.51,8.51l1.35.13a10,10,0,0,0,1.62,6.73l0,0a9.94,9.94,0,0,1-1.6-6.81L4.56,8.39A11.85,11.85,0,0,1,7.74,1.51l.67.68A9.21,9.21,0,0,1,10.56.54Z" fill="#fff"/>
<ellipse cx="7.5" cy="15.36" rx="0.09" ry="0.28" transform="translate(-7.45 7.07) rotate(-34.97)" fill="#fff"/>
<ellipse cx="5.91" cy="8.63" rx="0.28" ry="0.09" transform="translate(-3.3 13.59) rotate(-83.9)" fill="#fff"/>
<ellipse cx="10.53" cy="0.55" rx="0.25" ry="0.07" transform="translate(1.07 5.2) rotate(-29.19)" fill="#fff"/>
<ellipse cx="4.54" cy="8.49" rx="0.32" ry="0.09" transform="translate(-4.4 12.08) rotate(-83.77)" fill="#fff"/>
<ellipse cx="7.8" cy="1.43" rx="0.32" ry="0.09" transform="translate(1.29 5.95) rotate(-45.18)" fill="#fff"/>
<ellipse cx="8.45" cy="2.11" rx="0.19" ry="0.06" transform="translate(1.02 6.66) rotate(-45.53)" fill="#fff"/>
<path d="M12,5.56l0,0a5.33,5.33,0,0,0-.86,1.06l-.79-.52a7,7,0,0,0-1,4.35l1.35-.18a4.68,4.68,0,0,0,1.61,3.14l0,0a4.67,4.67,0,0,1-1.61-3.18l-1.35.17a7,7,0,0,1,.94-4.2l.8.51A5.42,5.42,0,0,1,12,5.56Z" fill="#fff"/>
<ellipse cx="12.29" cy="13.38" rx="0.09" ry="0.15" transform="translate(-5.86 14.2) rotate(-50.03)" fill="#fff"/>
<ellipse cx="10.68" cy="10.24" rx="0.09" ry="0.14" transform="translate(-0.98 1.14) rotate(-5.83)" fill="#fff"/>
<ellipse cx="11.94" cy="5.57" rx="0.13" ry="0.07" transform="translate(-0.54 9.8) rotate(-43.74)" fill="#fff"/>
<ellipse cx="9.33" cy="10.42" rx="0.09" ry="0.18" transform="translate(-1.07 1.07) rotate(-6.19)" fill="#fff"/>
<path d="M10.4,6s-.12,0-.17.1-.06.18,0,.21.12,0,.17-.11S10.44,6,10.4,6Z" fill="#fff"/>
<ellipse cx="11.08" cy="6.62" rx="0.1" ry="0.06" transform="translate(-0.34 12.63) rotate(-58.61)" fill="#fff"/>
<path d="M16.63,2.4v0a8.22,8.22,0,0,0-2.27,0L14.2,1.4a7.48,7.48,0,0,0-5.12,3l1.08.85A7.52,7.52,0,0,0,8.73,9.95h0a7.53,7.53,0,0,1,1.47-4.7L9.16,4.38A7.44,7.44,0,0,1,14.1,1.45l.17.93A8.11,8.11,0,0,1,16.63,2.4Z" fill="#fff"/>
<ellipse cx="8.75" cy="9.95" rx="0.09" ry="0.2" transform="translate(-0.29 0.26) rotate(-1.68)" fill="#fff"/>
<ellipse cx="10.18" cy="5.29" rx="0.2" ry="0.09" transform="translate(-0.12 10.34) rotate(-53.57)" fill="#fff"/>
<ellipse cx="16.59" cy="2.38" rx="0.07" ry="0.22" transform="translate(11.86 18.46) rotate(-81.75)" fill="#fff"/>
<path d="M9.25,4.24s-.13,0-.22.13-.11.22-.07.25.13,0,.21-.13S9.28,4.28,9.25,4.24Z" fill="#fff"/>
<path d="M14.46,1.39c0-.05-.14-.08-.29-.06s-.26.08-.25.13.14.07.28,0S14.46,1.44,14.46,1.39Z" fill="#fff"/>
<ellipse cx="14.35" cy="2.34" rx="0.15" ry="0.06" transform="translate(-0.19 1.99) rotate(-7.88)" fill="#fff"/>
<path d="M8.84,2.54h0a9.36,9.36,0,0,0-.73.84l-.33-.27A10.52,10.52,0,0,0,6.21,5.93l.57.22a10.63,10.63,0,0,0-.62,3h0a10.52,10.52,0,0,1,.64-3.05l-.57-.23A10.56,10.56,0,0,1,7.75,3.14l.33.27A10,10,0,0,1,8.84,2.54Z" fill="#fff"/>
<ellipse cx="6.17" cy="9.17" rx="0.12" ry="0.04" transform="translate(-3.3 14.86) rotate(-87.07)" fill="#fff"/>
<ellipse cx="6.79" cy="6.15" rx="0.12" ry="0.04" transform="translate(-1.32 10.39) rotate(-69.76)" fill="#fff"/>
<ellipse cx="8.82" cy="2.55" rx="0.1" ry="0.03" transform="translate(0.81 7.04) rotate(-45.4)" fill="#fff"/>
<ellipse cx="6.22" cy="5.92" rx="0.13" ry="0.04" transform="translate(-1.5 9.68) rotate(-69.58)" fill="#fff"/>
<ellipse cx="7.77" cy="3.1" rx="0.13" ry="0.04" transform="translate(0.55 7.33) rotate(-52.12)" fill="#fff"/>
<ellipse cx="8.1" cy="3.37" rx="0.08" ry="0.02" transform="translate(0.52 7.79) rotate(-52.84)" fill="#fff"/>
<path d="M10,6.15h0a7.49,7.49,0,0,1,.41-.63l.34.26A5.78,5.78,0,0,1,12.13,4.4l-.35-.52A6.08,6.08,0,0,1,13.9,3V3a6.09,6.09,0,0,0-2.15.93l.35.52a5.81,5.81,0,0,0-1.38,1.35l-.34-.26A6.52,6.52,0,0,0,10,6.15Z" fill="#fff"/>
<ellipse cx="13.89" cy="2.96" rx="0.1" ry="0.04" transform="translate(-0.31 2.96) rotate(-12.03)" fill="#fff"/>
<ellipse cx="11.77" cy="3.88" rx="0.09" ry="0.04" transform="translate(-0.13 7.33) rotate(-34.4)" fill="#fff"/>
<ellipse cx="9.96" cy="6.14" rx="0.07" ry="0.03" transform="translate(-0.25 11.87) rotate(-60.94)" fill="#fff"/>
<ellipse cx="12.12" cy="4.4" rx="0.08" ry="0.04" transform="translate(-0.34 7.69) rotate(-34.74)" fill="#fff"/>
<ellipse cx="10.71" cy="5.78" rx="0.08" ry="0.04" transform="translate(-0.29 10.98) rotate(-53.7)" fill="#fff"/>
<ellipse cx="10.37" cy="5.52" rx="0.05" ry="0.03" transform="translate(-0.28 10.46) rotate(-52.91)" fill="#fff"/>
<path d="M5.26,19.42l0,0a12.37,12.37,0,0,1-1.59-2L4.26,17a13.23,13.23,0,0,1-2-6.42l-1,.07A16,16,0,0,1,2.64,3.46h0a16,16,0,0,0-1.32,7.3l1-.08a13.28,13.28,0,0,0,1.91,6.24l-.57.37A12.39,12.39,0,0,0,5.26,19.42Z" fill="#fff"/>
<ellipse cx="2.64" cy="3.46" rx="0.29" ry="0.06" transform="translate(-1.6 4.45) rotate(-65.91)" fill="#fff"/>
<ellipse cx="1.31" cy="10.66" rx="0.07" ry="0.3" transform="translate(-0.51 0.08) rotate(-2.75)" fill="#fff"/>
<ellipse cx="5.25" cy="19.38" rx="0.05" ry="0.24" transform="translate(-11.94 8.99) rotate(-43.7)" fill="#fff"/>
<ellipse cx="2.28" cy="10.59" rx="0.06" ry="0.28" transform="translate(-0.58 0.14) rotate(-3.14)" fill="#fff"/>
<ellipse cx="4.24" cy="16.99" rx="0.07" ry="0.28" transform="translate(-8.35 4.82) rotate(-31.97)" fill="#fff"/>
<ellipse cx="3.67" cy="17.35" rx="0.04" ry="0.18" transform="translate(-8.6 4.55) rotate(-31.85)" fill="#fff"/>
<path d="M6.52,4.93l0-.07-.5-.26a11.08,11.08,0,0,1,1.22-2L6,1.61A12.83,12.83,0,0,0,4.17,5L2.7,4.36l0,.1,1.5.59A12.9,12.9,0,0,1,6,1.71l1.2,1A11.14,11.14,0,0,0,6,4.67Z" fill="#fff"/>
<ellipse cx="2.65" cy="4.45" rx="0.29" ry="0.06" transform="translate(-2.46 5.26) rotate(-68.23)" fill="#fff"/>
<ellipse cx="4.16" cy="5.01" rx="0.25" ry="0.06" transform="translate(-1.99 7.15) rotate(-69.5)" fill="#fff"/>
<path d="M6.57,4.92c0-.09.05-.16,0-.18s-.08,0-.12.13,0,.16,0,.18S6.53,5,6.57,4.92Z" fill="#fff"/>
<path d="M6.07,1.7c.09-.11.13-.21.11-.24s-.12,0-.21.16-.13.22-.1.24S6,1.8,6.07,1.7Z" fill="#fff"/>
<ellipse cx="7.24" cy="2.67" rx="0.22" ry="0.06" transform="translate(0.63 6.64) rotate(-51.19)" fill="#fff"/>
<ellipse cx="6.04" cy="4.61" rx="0.14" ry="0.04" transform="translate(-0.84 7.84) rotate(-62.51)" fill="#fff"/>
<path d="M11.66,3.74l0,0-.31-.48a6.63,6.63,0,0,1,1.5-.76L12.32,1A8.21,8.21,0,0,0,9.79,2.42l-1-1.25-.06.05,1,1.27A8.07,8.07,0,0,1,12.26,1l.57,1.45a6.71,6.71,0,0,0-1.5.77Z" fill="#fff"/>
<ellipse cx="8.74" cy="1.2" rx="0.22" ry="0.06" transform="translate(1.31 5.95) rotate(-40.38)" fill="#fff"/>
<ellipse cx="9.77" cy="2.46" rx="0.19" ry="0.07" transform="translate(0.68 6.79) rotate(-39.61)" fill="#fff"/>
<ellipse cx="11.68" cy="3.72" rx="0.12" ry="0.05" transform="translate(-0.1 7.1) rotate(-33.68)" fill="#fff"/>
<ellipse cx="12.28" cy="1" rx="0.2" ry="0.07" transform="translate(0.5 4.62) rotate(-21.74)" fill="#fff"/>
<ellipse cx="12.86" cy="2.48" rx="0.16" ry="0.07" transform="translate(-0.02 4.86) rotate(-21.38)" fill="#fff"/>
<ellipse cx="11.38" cy="3.23" rx="0.1" ry="0.04" transform="translate(0.06 6.67) rotate(-32.75)" fill="#fff"/>
<path d="M12.84,14.87l0,0-.27.5a5.9,5.9,0,0,1-1.28-.83l-1.07,1.2a7.74,7.74,0,0,0,2.44,1.39L12,18.58l.08,0,.59-1.51a7.78,7.78,0,0,1-2.45-1.37l1-1.17a6,6,0,0,0,1.3.83Z" fill="#fff"/>
<path d="M12.09,18.54c-.12,0-.23-.05-.25,0s.07.1.2.14.24,0,.25,0S12.21,18.58,12.09,18.54Z" fill="#fff"/>
<ellipse cx="12.65" cy="17.11" rx="0.06" ry="0.2" transform="translate(-7.83 22.88) rotate(-69.24)" fill="#fff"/>
<ellipse cx="12.82" cy="14.87" rx="0.05" ry="0.11" transform="translate(-6.23 19.6) rotate(-63.19)" fill="#fff"/>
<ellipse cx="10.17" cy="15.69" rx="0.07" ry="0.18" transform="matrix(0.66, -0.75, 0.75, 0.66, -8.34, 13.05)" fill="#fff"/>
<ellipse cx="11.26" cy="14.53" rx="0.07" ry="0.14" transform="translate(-7.08 13.39) rotate(-48.67)" fill="#fff"/>
<ellipse cx="12.54" cy="15.35" rx="0.04" ry="0.1" transform="translate(-6.89 19.28) rotate(-62.2)" fill="#fff"/>
<path d="M2.3,13.58v0l-.23.07c-.11-.41-.2-.84-.27-1.26l-.66.13a15.25,15.25,0,0,0,.45,1.9l-.65.22v0l.66-.23a15.42,15.42,0,0,1-.45-1.9l.64-.13c.07.43.16.84.27,1.26Z" fill="#fff"/>
<ellipse cx="0.93" cy="14.62" rx="0.03" ry="0.13" transform="translate(-4.27 0.93) rotate(-17.15)" fill="#fff"/>
<ellipse cx="1.58" cy="14.4" rx="0.03" ry="0.13" transform="translate(-4.14 1.09) rotate(-17)" fill="#fff"/>
<ellipse cx="2.3" cy="13.56" rx="0.02" ry="0.1" transform="translate(-4.45 1.58) rotate(-19.77)" fill="#fff"/>
<ellipse cx="1.14" cy="12.5" rx="0.03" ry="0.13" transform="translate(-1.9 0.32) rotate(-8.79)" fill="#fff"/>
<ellipse cx="1.8" cy="12.37" rx="0.03" ry="0.12" transform="translate(-2.72 0.71) rotate(-12.9)" fill="#fff"/>
<ellipse cx="2.06" cy="13.61" rx="0.02" ry="0.08" transform="translate(-3.3 0.93) rotate(-14.31)" fill="#fff"/>
<path d="M4.67,10.95s0,0,0,0l-.24,0c0-.34,0-.69-.05-1l-.67,0a13,13,0,0,0,.11,1.58l-.67.11a.26.26,0,0,0,0,0l.68-.11A12.73,12.73,0,0,1,3.72,10l.65,0c0,.34,0,.69.06,1Z" fill="#fff"/>
<ellipse cx="3.14" cy="11.64" rx="0.03" ry="0.11" transform="translate(-1.54 0.53) rotate(-7.74)" fill="#fff"/>
<ellipse cx="3.82" cy="11.53" rx="0.03" ry="0.1" transform="matrix(0.99, -0.14, 0.14, 0.99, -1.62, 0.67)" fill="#fff"/>
<ellipse cx="4.67" cy="10.93" rx="0.02" ry="0.08" transform="translate(-1.51 0.78) rotate(-8.21)" fill="#fff"/>
<ellipse cx="3.71" cy="9.94" rx="0.03" ry="0.1" transform="translate(-0.35 0.14) rotate(-2.03)" fill="#fff"/>
<ellipse cx="4.38" cy="9.92" rx="0.03" ry="0.1" transform="translate(-0.35 0.16) rotate(-2.03)" fill="#fff"/>
<ellipse cx="4.43" cy="10.95" rx="0.02" ry="0.06" transform="translate(-1.4 0.68) rotate(-7.55)" fill="#fff"/>
<path d="M9,13.9v0L8.76,14a7.49,7.49,0,0,1-.41-.74l-.7.35a8.15,8.15,0,0,0,.67,1.17l-.64.46,0,0,.65-.46a8.24,8.24,0,0,1-.68-1.16l.67-.34a7.23,7.23,0,0,0,.41.74Z" fill="#fff"/>
<ellipse cx="7.7" cy="15.27" rx="0.03" ry="0.1" transform="translate(-7.38 7.2) rotate(-35.1)" fill="#fff"/>
<ellipse cx="8.34" cy="14.81" rx="0.03" ry="0.09" transform="translate(-6.95 7.38) rotate(-34.68)" fill="#fff"/>
<ellipse cx="8.99" cy="13.89" rx="0.03" ry="0.06" transform="translate(-6.03 6.97) rotate(-32.34)" fill="#fff"/>
<ellipse cx="7.66" cy="13.65" rx="0.03" ry="0.09" transform="translate(-5.6 5.34) rotate(-28.62)" fill="#fff"/>
<ellipse cx="8.35" cy="13.29" rx="0.03" ry="0.08" transform="translate(-4.96 4.97) rotate(-25.83)" fill="#fff"/>
<ellipse cx="8.76" cy="14.03" rx="0.02" ry="0.05" transform="translate(-6.38 7.35) rotate(-34.22)" fill="#fff"/>
<path d="M3.24,5.33h0q-.18.54-.31,1.1l-.31-.08A15,15,0,0,0,2.2,9.6h.46A14,14,0,0,0,3,12.76H3a14,14,0,0,1-.3-3.21H2.21a15,15,0,0,1,.4-3.15l.31.07C3,6.09,3.12,5.71,3.24,5.33Z" fill="#fff"/>
<ellipse cx="2.97" cy="12.76" rx="0.03" ry="0.13" transform="translate(-2.49 0.85) rotate(-11.53)" fill="#fff"/>
<ellipse cx="2.66" cy="9.59" rx="0.13" ry="0.03" transform="translate(-6.98 12.07) rotate(-88.89)" fill="#fff"/>
<ellipse cx="3.23" cy="5.35" rx="0.11" ry="0.02" transform="translate(-2.85 6.8) rotate(-72.29)" fill="#fff"/>
<ellipse cx="2.2" cy="9.59" rx="0.13" ry="0.03" transform="translate(-7.4 11.76) rotate(-89.78)" fill="#fff"/>
<ellipse cx="2.61" cy="6.36" rx="0.13" ry="0.03" transform="translate(-4.17 7.47) rotate(-76.98)" fill="#fff"/>
<ellipse cx="2.92" cy="6.44" rx="0.08" ry="0.02" transform="translate(-4.02 7.79) rotate(-76.65)" fill="#fff"/><path d="M6.75,7.16h0c.07-.26.15-.51.23-.76l.3.11a9.62,9.62,0,0,1,.94-1.95L7.84,4.3A9.11,9.11,0,0,1,9.29,2.54h0a9,9,0,0,0-1.47,1.8l.39.26a9.73,9.73,0,0,0-.91,1.89L7,6.36Q6.85,6.76,6.75,7.16Z" fill="#fff"/><ellipse cx="9.29" cy="2.54" rx="0.09" ry="0.03" transform="translate(0.7 6.89) rotate(-42.17)" fill="#fff"/><ellipse cx="7.83" cy="4.3" rx="0.09" ry="0.03" transform="translate(-0.03 8.55) rotate(-57.16)" fill="#fff"/><ellipse cx="6.75" cy="7.15" rx="0.08" ry="0.03" transform="translate(-1.9 11.83) rotate(-75.05)" fill="#fff"/><ellipse cx="8.22" cy="4.57" rx="0.09" ry="0.03" transform="translate(-0.04 9.07) rotate(-57.65)" fill="#fff"/><ellipse cx="7.29" cy="6.51" rx="0.09" ry="0.03" transform="translate(-1.28 11.19) rotate(-70.44)" fill="#fff"/><ellipse cx="6.99" cy="6.39" rx="0.06" ry="0.02" transform="translate(-1.3 10.98) rotate(-71.42)" fill="#fff"/><path d="M11.21,14.31h0L10.89,14l.19-.17a5.19,5.19,0,0,1-.71-.94l-.31.2A6.18,6.18,0,0,1,9.53,12h0a6.14,6.14,0,0,0,.54,1.14l.31-.2a5.44,5.44,0,0,0,.69.91l-.19.17C11,14.1,11.09,14.21,11.21,14.31Z" fill="#fff"/><ellipse cx="9.53" cy="11.96" rx="0.02" ry="0.05" transform="translate(-3.48 3.93) rotate(-19.78)" fill="#fff"/><ellipse cx="10.06" cy="13.08" rx="0.02" ry="0.05" transform="translate(-5.36 7.21) rotate(-31.61)" fill="#fff"/><ellipse cx="11.21" cy="14.3" rx="0.02" ry="0.04" transform="translate(-6.93 13.26) rotate(-48.61)" fill="#fff"/><ellipse cx="10.37" cy="12.88" rx="0.02" ry="0.05" transform="translate(-5.06 6.92) rotate(-30.04)" fill="#fff"/><ellipse cx="11.08" cy="13.82" rx="0.02" ry="0.05" transform="translate(-6.44 11.18) rotate(-42.73)" fill="#fff"/><ellipse cx="10.89" cy="13.99" rx="0.02" ry="0.03" transform="translate(-6.65 11.42) rotate(-43.75)" fill="#fff"/><path d="M9.06,18.58h0c-.22-.15-.44-.31-.64-.48l.17-.19a9.54,9.54,0,0,1-1.49-1.5l-.29.23a10.12,10.12,0,0,1-1.15-1.81h0a10,10,0,0,0,1.16,1.84l.29-.23a9.3,9.3,0,0,0,1.45,1.46l-.17.19C8.6,18.25,8.83,18.42,9.06,18.58Z" fill="#fff"/><ellipse cx="5.66" cy="14.82" rx="0.02" ry="0.08" transform="translate(-5.89 3.94) rotate(-25.81)" fill="#fff"/><ellipse cx="6.81" cy="16.64" rx="0.03" ry="0.09" transform="translate(-8.81 7.74) rotate(-38.08)" fill="#fff"/><ellipse cx="9.05" cy="18.57" rx="0.02" ry="0.08" transform="translate(-11.39 15.6) rotate(-55.74)" fill="#fff"/><ellipse cx="7.09" cy="16.41" rx="0.03" ry="0.08" transform="translate(-8.63 7.91) rotate(-38.24)" fill="#fff"/><ellipse cx="8.58" cy="17.9" rx="0.02" ry="0.09" transform="translate(-10.75 13.37) rotate(-51.21)" fill="#fff"/><ellipse cx="8.42" cy="18.09" rx="0.01" ry="0.06" transform="translate(-10.91 13.1) rotate(-50.57)" fill="#fff"/><path d="M8,11.78h0c-.05-.22-.1-.44-.14-.66l.32-.06a8.07,8.07,0,0,1-.09-1.82l-.46,0A9,9,0,0,1,8,7.28H8a9,9,0,0,0-.33,2l.46,0A8.45,8.45,0,0,0,8.22,11l-.31.06C7.94,11.32,8,11.55,8,11.78Z" fill="#fff"/><ellipse cx="8.01" cy="7.28" rx="0.08" ry="0.03" transform="translate(-1.18 12.98) rotate(-74.08)" fill="#fff"/><ellipse cx="7.67" cy="9.21" rx="0.08" ry="0.03" transform="translate(-1.95 16.36) rotate(-86.78)" fill="#fff"/><ellipse cx="8.05" cy="11.77" rx="0.03" ry="0.06" transform="translate(-2.72 2.42) rotate(-14.68)" fill="#fff"/><ellipse cx="8.14" cy="9.23" rx="0.07" ry="0.03" transform="translate(-1.56 16.81) rotate(-86.61)" fill="#fff"/><ellipse cx="8.23" cy="11.05" rx="0.03" ry="0.07" transform="translate(-1.67 1.47) rotate(-9.27)" fill="#fff"/><ellipse cx="7.91" cy="11.11" rx="0.02" ry="0.05" transform="translate(-1.64 1.37) rotate(-8.99)" fill="#fff"/><path d="M12.41,13.63h0l-.17.21a4.77,4.77,0,0,1-.44-.38l-.54.54a5.22,5.22,0,0,0,.75.61l-.46.63,0,0,.46-.64a5.46,5.46,0,0,1-.75-.61l.52-.53a5,5,0,0,0,.45.38Z" fill="#fff"/><ellipse cx="11.56" cy="15.24" rx="0.03" ry="0.07" transform="matrix(0.61, -0.79, 0.79, 0.61, -7.57, 15.09)" fill="#fff"/><ellipse cx="12.01" cy="14.61" rx="0.03" ry="0.07" transform="translate(-6.9 14.9) rotate(-51.47)" fill="#fff"/><ellipse cx="12.4" cy="13.63" rx="0.03" ry="0.04" transform="matrix(0.65, -0.76, 0.76, 0.65, -6.01, 14.28)" fill="#fff"/><ellipse cx="11.25" cy="14" rx="0.03" ry="0.06" transform="translate(-6.6 12.07) rotate(-45.03)" fill="#fff"/><ellipse cx="11.79" cy="13.46" rx="0.03" ry="0.05" transform="translate(-6.08 12.57) rotate(-45.94)" fill="#fff"/><ellipse cx="12.23" cy="13.83" rx="0.02" ry="0.04" transform="translate(-6.22 14.62) rotate(-50.96)" fill="#fff"/><path d="M3.85,4.9h0A13.92,13.92,0,0,0,3.57,14l1.29-.47a10.26,10.26,0,0,0,5.14,6l-.47.83a13.78,13.78,0,0,0,3.75,1.26v0a13.58,13.58,0,0,1-3.61-1.18l.45-.83a10.26,10.26,0,0,1-5.29-6.19l-1.29.45A13.87,13.87,0,0,1,3.85,4.9Z" fill="#fff"/><ellipse cx="3.84" cy="4.89" rx="0.37" ry="0.09" transform="translate(-2.09 6.78) rotate(-69.53)" fill="#fff"/><path d="M3.67,14.22s0-.18,0-.38-.14-.33-.19-.32,0,.19,0,.38S3.63,14.24,3.67,14.22Z" fill="#fff"/><ellipse cx="13.24" cy="21.6" rx="0.07" ry="0.38" transform="translate(-10.44 30.6) rotate(-79.3)" fill="#fff"/><ellipse cx="4.85" cy="13.42" rx="0.09" ry="0.33" transform="translate(-3.85 2.11) rotate(-17.72)" fill="#fff"/><path d="M10.46,19.75s-.11-.15-.3-.24-.34-.14-.37-.09.1.16.28.25S10.44,19.8,10.46,19.75Z" fill="#fff"/><path d="M9.9,20.52s-.08-.1-.2-.16-.23-.09-.25-.07.07.1.19.16S9.88,20.55,9.9,20.52Z" fill="#fff"/><path d="M11.23,17.53l-1.12,2,.06,0,1.11-2Z" fill="#fff"/><path d="M11.3,17.46c-.16-.08-.3-.11-.33-.06s.08.15.23.23.31.1.34.05S11.46,17.54,11.3,17.46Z" fill="#fff"/><path d="M2.65,4.4h0a15.56,15.56,0,0,0-1,4.65,14.73,14.73,0,0,0-.37,1.58.26.26,0,0,1,0,.06,15.3,15.3,0,0,1,.37-1.6A15.64,15.64,0,0,1,2.65,4.4Z" fill="#fff"/><path d="M9.14,4.38,8.92,4.2A9,9,0,0,0,7.6,6.74h0a8.87,8.87,0,0,1,1.29-2.5l.21.16Z" fill="#fff"/><path d="M4.18,5h0a13.82,13.82,0,0,0-.8,3.42l1.18.11s0-.06,0-.09L3.38,8.33A13.84,13.84,0,0,1,4.18,5Z" fill="#fff"/><path d="M9.34,10.42h0a6.72,6.72,0,0,0,.11.71l.86-.21c0,.13.06.26.09.38h0c0-.14-.07-.28-.1-.42l-.86.21A5.77,5.77,0,0,1,9.34,10.42Z" fill="#fff"/><path d="M8.69,7.18l-.21-.07,0,.06.18.06A8.22,8.22,0,0,0,8.26,10l.49,0s0,0,0-.06l-.46,0A8.28,8.28,0,0,1,8.69,7.18Z" fill="#fff"/><path d="M6.05,4.62H6a12,12,0,0,0-.9,2.58l1,.22a11,11,0,0,0-.2,1.22h0a11.47,11.47,0,0,1,.22-1.29l-1-.23A11.63,11.63,0,0,1,6.05,4.62Z" fill="#fff"/><path d="M7,7.16l-.2-.05v0l.18.05a10.21,10.21,0,0,0-.32,2l-.45,0v.05l.47,0A10.27,10.27,0,0,1,7,7.16Z" fill="#fff"/><path d="M1,15.45H1c.16.43.33.85.52,1.26l.89-.45A13.13,13.13,0,0,0,7.1,21.71v0a13.1,13.1,0,0,1-4.76-5.51l-.89.44C1.28,16.24,1.12,15.85,1,15.45Z" fill="#fff"/><path d="M9.9,21.05l-.69,1.38.08,0L10,21.1a14.5,14.5,0,0,0,3.2,1l.09-.47-.09,0-.09.46A14.31,14.31,0,0,1,9.9,21.05Z" fill="#fff"/><path d="M9.08,16.54l0,0a8.43,8.43,0,0,0,1,.79l.56-.79A8,8,0,0,1,9.86,16l.28-.31-.05,0-.29.32a7,7,0,0,0,.77.6l-.54.74A8.76,8.76,0,0,1,9.08,16.54Z" fill="#fff"/><path d="M11.59,16.83l-.37.66.05,0,.35-.64q.34.17.71.31l0-.11.24,0,0,0-.26,0,0,.1C12,17.05,11.82,16.94,11.59,16.83Z" fill="#fff"/><path d="M4.25,17h0a11.88,11.88,0,0,0,1.5,1.93l-.5.48.05.06L5.8,19A12,12,0,0,1,4.25,17Z" fill="#fff"/><path d="M6.28,13.91l-.71.33,0,.05L6.28,14c.1.23.21.46.33.69h0C6.5,14.4,6.38,14.16,6.28,13.91Z" fill="#fff"/><path d="M12.82,14.86v0a6.22,6.22,0,0,0,.93.36l-.38,1.13a7.28,7.28,0,0,1-.83-.3v0a8.18,8.18,0,0,0,.88.32l.38-1.17A6.21,6.21,0,0,1,12.82,14.86Z" fill="#fff"/><path d="M10.95,10.15l-.27,0v0l.25,0a4.61,4.61,0,0,0,.78,2.18h0A4.61,4.61,0,0,1,10.95,10.15Z" fill="#fff"/><path d="M11.7,3.71l0,0c-.16.11-.31.22-.46.34l.06.07a6.49,6.49,0,0,0-1.12,1.17l0,0a6.66,6.66,0,0,1,1.16-1.21L11.29,4C11.42,3.91,11.56,3.81,11.7,3.71Z" fill="#fff"/><path d="M7.79.52,7.43.11A11.76,11.76,0,0,0,6,1.6l0,0A11.67,11.67,0,0,1,7.38.19L7.7.57,7.32.94l.46.48.06-.06L7.4.89Z" fill="#fff"/></g><path d="M7.43,14.38l-1.77,1A9.94,9.94,0,0,0,9,19.07L7.83,20.72l.13.08,1.18-1.69a10,10,0,0,1-3.39-3.67l1.71-1A8.23,8.23,0,0,0,9.19,16.7l.51-.55-.07-.06-.5.52A8.19,8.19,0,0,1,7.43,14.38Z" fill="#fff"/><ellipse cx="7.89" cy="20.76" rx="0.08" ry="0.42" transform="translate(-13.68 15.49) rotate(-55.45)" fill="#fff"/><path d="M9.11,19c-.16-.11-.31-.17-.34-.13s.08.15.24.26.32.16.34.12S9.27,19.14,9.11,19Z" fill="#fff"/><ellipse cx="9.66" cy="16.13" rx="0.07" ry="0.21" transform="translate(-8.73 12.22) rotate(-47.08)" fill="#fff"/><ellipse cx="5.69" cy="15.41" rx="0.08" ry="0.32" transform="translate(-6.9 4.86) rotate(-29.76)" fill="#fff"/><ellipse cx="7.45" cy="14.42" rx="0.08" ry="0.26" transform="translate(-6.11 5.5) rotate(-29.33)" fill="#fff"/><ellipse cx="9.15" cy="16.63" rx="0.05" ry="0.17" transform="translate(-9.14 11.58) rotate(-45.75)" fill="#fff"/><path d="M10.82,11.39,8.9,12a6.42,6.42,0,0,0,1.48,2.64L8.88,16l.07.07,1.51-1.42A6.38,6.38,0,0,1,9,12.07l1.85-.61a4.58,4.58,0,0,0,.65,1.35l.61-.44,0,0-.59.41A4.58,4.58,0,0,1,10.82,11.39Z" fill="#fff"/><ellipse cx="8.91" cy="16.07" rx="0.08" ry="0.27" transform="translate(-8.52 10.27) rotate(-42.59)" fill="#fff"/><ellipse cx="10.41" cy="14.67" rx="0.08" ry="0.21" transform="translate(-7.2 10.99) rotate(-42.84)" fill="#fff"/><ellipse cx="12.04" cy="12.35" rx="0.07" ry="0.1" transform="translate(-4.94 9.29) rotate(-35.5)" fill="#fff"/><ellipse cx="8.92" cy="12.04" rx="0.08" ry="0.2" transform="translate(-3.3 3.37) rotate(-18.12)" fill="#fff"/><ellipse cx="10.82" cy="11.42" rx="0.08" ry="0.14" transform="translate(-2.94 3.79) rotate(-17.52)" fill="#fff"/><ellipse cx="11.44" cy="12.75" rx="0.05" ry="0.09" transform="translate(-5.21 8.73) rotate(-34.53)" fill="#fff"/><path d="M7.7,9.83h-2A10.2,10.2,0,0,0,6.49,14l-1.85.85.05.12,1.87-.88a10.14,10.14,0,0,1-.83-4.18H7.67A8.36,8.36,0,0,0,8,12.27l.71-.22,0-.08L8,12.18A8.27,8.27,0,0,1,7.7,9.83Z" fill="#fff"/><ellipse cx="4.67" cy="14.93" rx="0.08" ry="0.34" transform="translate(-5.91 3.41) rotate(-25.21)" fill="#fff"/><ellipse cx="6.52" cy="14.07" rx="0.08" ry="0.28" transform="translate(-5.4 4.15) rotate(-25.35)" fill="#fff"/><ellipse cx="8.67" cy="12.01" rx="0.07" ry="0.17" transform="matrix(0.96, -0.29, 0.29, 0.96, -3.11, 3.02)" fill="#fff"/><path d="M5.79,9.87c0-.15,0-.28-.07-.28s-.09.12-.09.28,0,.29.08.29S5.79,10,5.79,9.87Z" fill="#fff"/><ellipse cx="7.7" cy="9.87" rx="0.23" ry="0.08" transform="translate(-2.27 17.45) rotate(-89.32)" fill="#fff"/><ellipse cx="7.98" cy="12.2" rx="0.05" ry="0.14" transform="translate(-3.17 2.81) rotate(-16.71)" fill="#fff"/><path d="M4.48,2.55l0,0a14,14,0,0,0-1.4,3l-.8-.28a15.3,15.3,0,0,0,.1,9.86l1.15-.46A11.64,11.64,0,0,0,10,21.52v0a11.62,11.62,0,0,1-6.51-6.93L2.34,15a15.26,15.26,0,0,1-.1-9.55l.8.27A14.18,14.18,0,0,1,4.48,2.55Z" fill="#fff"/><path d="M9.61,21.33s.14.15.36.25.42.13.44.09-.15-.14-.37-.24S9.63,21.29,9.61,21.33Z" fill="#fff"/><path d="M3.4,14.33s0,.19,0,.38.17.33.21.31,0-.19-.06-.38S3.44,14.31,3.4,14.33Z" fill="#fff"/><path d="M4.61,2.32s-.13.08-.22.22-.13.29-.1.31.13-.09.21-.23S4.64,2.35,4.61,2.32Z" fill="#fff"/><ellipse cx="2.37" cy="15.14" rx="0.08" ry="0.4" transform="translate(-5.02 1.72) rotate(-19.94)" fill="#fff"/><ellipse cx="2.27" cy="5.33" rx="0.41" ry="0.08" transform="translate(-3.5 5.86) rotate(-72.13)" fill="#fff"/><ellipse cx="3.06" cy="5.6" rx="0.24" ry="0.05" transform="translate(-3.21 6.79) rotate(-72.09)" fill="#fff"/><path d="M9.86,6.11l0,0a7.23,7.23,0,0,0-.72,1.57l-.8-.28a8.31,8.31,0,0,0,.05,5.37l1.15-.46a5.84,5.84,0,0,0,3.25,3.42v0a5.82,5.82,0,0,1-3.26-3.46l-1.15.45a8.28,8.28,0,0,1-.05-5.19l.8.27A7.41,7.41,0,0,1,9.86,6.11Z" fill="#fff"/><path d="M12.58,15.61s0,.11.16.16.22.05.24,0-.06-.11-.17-.16S12.6,15.57,12.58,15.61Z" fill="#fff"/><ellipse cx="9.53" cy="12.28" rx="0.08" ry="0.18" transform="translate(-3.61 3.98) rotate(-19.92)" fill="#fff"/><ellipse cx="9.84" cy="6.12" rx="0.16" ry="0.07" transform="translate(-0.54 11.28) rotate(-58.35)" fill="#fff"/><ellipse cx="8.38" cy="12.74" rx="0.08" ry="0.22" transform="translate(-3.83 3.61) rotate(-19.89)" fill="#fff"/><path d="M8.4,7.19s-.11.07-.15.18,0,.23,0,.24.1-.07.14-.18S8.44,7.21,8.4,7.19Z" fill="#fff"/><ellipse cx="9.12" cy="7.67" rx="0.12" ry="0.05" transform="translate(-1.01 13.95) rotate(-71.87)" fill="#fff"/><path d="M11,1.73v0A8.51,8.51,0,0,0,9.11,3.12L8.51,2.5a10.68,10.68,0,0,0-3,6.4L6.77,9a9,9,0,0,0,1.46,6.05l0,0A9,9,0,0,1,6.81,8.92L5.6,8.79A10.65,10.65,0,0,1,8.46,2.6l.6.61A8.29,8.29,0,0,1,11,1.73Z" fill="#fff"/><ellipse cx="8.24" cy="15.06" rx="0.08" ry="0.26" transform="translate(-7.12 7.41) rotate(-34.83)" fill="#fff"/><ellipse cx="6.81" cy="9" rx="0.26" ry="0.08" transform="translate(-2.87 14.81) rotate(-83.85)" fill="#fff"/><ellipse cx="10.97" cy="1.73" rx="0.22" ry="0.07" transform="translate(0.55 5.56) rotate(-29.16)" fill="#fff"/><ellipse cx="5.58" cy="8.88" rx="0.29" ry="0.08" transform="translate(-3.86 13.46) rotate(-83.75)" fill="#fff"/><ellipse cx="8.51" cy="2.52" rx="0.29" ry="0.08" transform="translate(0.72 6.79) rotate(-45.21)" fill="#fff"/><ellipse cx="9.1" cy="3.14" rx="0.17" ry="0.05" transform="translate(0.46 7.38) rotate(-45.22)" fill="#fff"/><path d="M12.26,6.24l0,0a4.83,4.83,0,0,0-.77,1l-.71-.47a6.31,6.31,0,0,0-.88,3.91l1.22-.16a4.21,4.21,0,0,0,1.45,2.82l0,0a4.19,4.19,0,0,1-1.45-2.86l-1.22.15a6.27,6.27,0,0,1,.84-3.78l.72.46A4.77,4.77,0,0,1,12.26,6.24Z" fill="#fff"/><path d="M12.45,13.19s0,.1,0,.15.13.06.16,0,0-.1-.05-.15S12.48,13.16,12.45,13.19Z" fill="#fff"/><ellipse cx="11.11" cy="10.45" rx="0.08" ry="0.13" transform="translate(-1.01 1.19) rotate(-5.85)" fill="#fff"/><ellipse cx="12.23" cy="6.25" rx="0.11" ry="0.07" transform="translate(-0.91 10.24) rotate(-43.95)" fill="#fff"/><ellipse cx="9.89" cy="10.61" rx="0.08" ry="0.16" transform="translate(-1.08 1.12) rotate(-6.14)" fill="#fff"/><path d="M10.85,6.59s-.11,0-.15.09-.05.16,0,.19.1,0,.15-.1S10.89,6.62,10.85,6.59Z" fill="#fff"/><ellipse cx="11.47" cy="7.19" rx="0.09" ry="0.05" transform="translate(-0.65 13.23) rotate(-58.6)" fill="#fff"/><path d="M16.46,3.39v0a7.41,7.41,0,0,0-2,0l-.15-.84A6.74,6.74,0,0,0,9.67,5.23l1,.77a6.78,6.78,0,0,0-1.29,4.19h0A6.78,6.78,0,0,1,10.7,6l-1-.78a6.7,6.7,0,0,1,4.45-2.64l.16.84A7.24,7.24,0,0,1,16.46,3.39Z" fill="#fff"/><ellipse cx="9.37" cy="10.19" rx="0.08" ry="0.18" transform="translate(-0.3 0.29) rotate(-1.72)" fill="#fff"/><ellipse cx="10.65" cy="5.99" rx="0.18" ry="0.08" transform="translate(-0.49 11.02) rotate(-53.63)" fill="#fff"/><ellipse cx="16.43" cy="3.37" rx="0.06" ry="0.2" transform="translate(10.71 19.14) rotate(-81.66)" fill="#fff"/><ellipse cx="9.69" cy="5.23" rx="0.21" ry="0.08" transform="translate(-0.31 9.83) rotate(-53.08)" fill="#fff"/><ellipse cx="14.26" cy="2.52" rx="0.25" ry="0.08" transform="translate(-0.21 2.01) rotate(-8.01)" fill="#fff"/><ellipse cx="14.41" cy="3.35" rx="0.13" ry="0.05" transform="translate(-0.31 1.91) rotate(-7.52)" fill="#fff"/><path d="M9.45,3.52h0a8.12,8.12,0,0,0-.66.75L8.48,4a9.48,9.48,0,0,0-1.4,2.55l.51.2A9.6,9.6,0,0,0,7,9.48H7a9.63,9.63,0,0,1,.57-2.75l-.51-.2A9.43,9.43,0,0,1,8.47,4.06l.3.25A8.81,8.81,0,0,1,9.45,3.52Z" fill="#fff"/><ellipse cx="7.04" cy="9.49" rx="0.11" ry="0.04" transform="translate(-2.85 15.94) rotate(-86.51)" fill="#fff"/><ellipse cx="7.61" cy="6.77" rx="0.11" ry="0.04" transform="translate(-1.37 11.56) rotate(-69.75)" fill="#fff"/><ellipse cx="9.43" cy="3.53" rx="0.09" ry="0.03" transform="translate(0.3 7.77) rotate(-45.44)" fill="#fff"/><ellipse cx="7.09" cy="6.57" rx="0.12" ry="0.04" transform="translate(-1.51 10.97) rotate(-69.89)" fill="#fff"/><ellipse cx="8.49" cy="4.03" rx="0.12" ry="0.04" transform="translate(0.09 8.24) rotate(-52)" fill="#fff"/><ellipse cx="8.78" cy="4.27" rx="0.07" ry="0.02" transform="translate(0.05 8.63) rotate(-52.48)" fill="#fff"/><path d="M10.45,6.77h0a6.78,6.78,0,0,1,.37-.57l.3.24A5.22,5.22,0,0,1,12.41,5.2l-.31-.46A5.5,5.5,0,0,1,14,3.91h0a5.54,5.54,0,0,0-1.93.84l.32.47a5.26,5.26,0,0,0-1.24,1.21l-.3-.24A6,6,0,0,0,10.45,6.77Z" fill="#fff"/><ellipse cx="14" cy="3.9" rx="0.09" ry="0.04" transform="translate(-0.51 3.04) rotate(-12.18)" fill="#fff"/><ellipse cx="12.09" cy="4.73" rx="0.08" ry="0.04" transform="translate(-0.58 7.57) rotate(-34)" fill="#fff"/><ellipse cx="10.46" cy="6.76" rx="0.06" ry="0.03" transform="translate(-0.48 12.72) rotate(-61.47)" fill="#fff"/><ellipse cx="12.4" cy="5.19" rx="0.07" ry="0.04" transform="translate(-0.75 7.97) rotate(-34.66)" fill="#fff"/><ellipse cx="11.13" cy="6.43" rx="0.07" ry="0.04" transform="translate(-0.61 11.67) rotate(-54.05)" fill="#fff"/><ellipse cx="10.83" cy="6.2" rx="0.05" ry="0.02" transform="translate(-0.65 11.1) rotate(-52.91)" fill="#fff"/><path d="M6.23,18.71l0,0a11.25,11.25,0,0,1-1.43-1.83l.51-.33a11.9,11.9,0,0,1-1.77-5.78l-.87.06A14.36,14.36,0,0,1,3.88,4.35h0a14.44,14.44,0,0,0-1.19,6.57l.87-.07a12,12,0,0,0,1.72,5.62l-.52.33A11.29,11.29,0,0,0,6.23,18.71Z" fill="#fff"/><ellipse cx="3.87" cy="4.35" rx="0.26" ry="0.06" transform="translate(-1.68 6.12) rotate(-66.08)" fill="#fff"/><ellipse cx="2.67" cy="10.83" rx="0.06" ry="0.27" transform="translate(-0.57 0.16) rotate(-3.05)" fill="#fff"/><ellipse cx="6.22" cy="18.68" rx="0.05" ry="0.22" transform="translate(-11.2 9.49) rotate(-43.78)" fill="#fff"/><ellipse cx="3.54" cy="10.76" rx="0.06" ry="0.25" transform="translate(-0.53 0.19) rotate(-2.82)" fill="#fff"/><ellipse cx="5.31" cy="16.52" rx="0.06" ry="0.25" transform="matrix(0.85, -0.53, 0.53, 0.85, -7.96, 5.34)" fill="#fff"/><ellipse cx="4.8" cy="16.85" rx="0.04" ry="0.16" transform="translate(-8.25 5.15) rotate(-32.22)" fill="#fff"/><path d="M7.36,5.68l0-.06-.45-.23A9.92,9.92,0,0,1,8,3.61l-1.1-.92a11.47,11.47,0,0,0-1.69,3L3.92,5.16l0,.09,1.35.54a11.56,11.56,0,0,1,1.66-3L8,3.65A10,10,0,0,0,6.89,5.44Z" fill="#fff"/><ellipse cx="3.88" cy="5.24" rx="0.26" ry="0.06" transform="translate(-2.43 6.88) rotate(-68.01)" fill="#fff"/><ellipse cx="5.24" cy="5.74" rx="0.23" ry="0.06" transform="translate(-2 8.58) rotate(-69.06)" fill="#fff"/><path d="M7.41,5.67c0-.08,0-.15,0-.16s-.07,0-.11.12,0,.15,0,.16S7.37,5.74,7.41,5.67Z" fill="#fff"/><ellipse cx="6.91" cy="2.73" rx="0.23" ry="0.06" transform="translate(0.39 6.28) rotate(-50.12)" fill="#fff"/><ellipse cx="8.01" cy="3.64" rx="0.2" ry="0.06" transform="translate(0.13 7.56) rotate(-50.85)" fill="#fff"/><ellipse cx="6.93" cy="5.39" rx="0.12" ry="0.03" transform="translate(-1.1 8.93) rotate(-61.68)" fill="#fff"/><path d="M12,4.6l0,0-.28-.43a6.14,6.14,0,0,1,1.35-.68l-.51-1.35a7.37,7.37,0,0,0-2.27,1.3L9.39,2.29l-.06.05.94,1.14a7.23,7.23,0,0,1,2.25-1.32L13,3.46a6,6,0,0,0-1.35.69Z" fill="#fff"/><ellipse cx="9.36" cy="2.32" rx="0.2" ry="0.06" transform="translate(0.64 6.44) rotate(-39.19)" fill="#fff"/><ellipse cx="10.28" cy="3.44" rx="0.17" ry="0.06" transform="translate(0.1 7.16) rotate(-38.57)" fill="#fff"/><ellipse cx="12" cy="4.58" rx="0.11" ry="0.05" transform="translate(-0.58 7.2) rotate(-32.64)" fill="#fff"/><ellipse cx="12.55" cy="2.13" rx="0.18" ry="0.06" transform="translate(0.05 4.52) rotate(-20.47)" fill="#fff"/><ellipse cx="13.07" cy="3.47" rx="0.15" ry="0.06" transform="translate(-0.36 5.05) rotate(-21.59)" fill="#fff"/><ellipse cx="11.74" cy="4.15" rx="0.09" ry="0.04" transform="translate(-0.38 6.98) rotate(-32.62)" fill="#fff"/><path d="M13.05,14.62l0,0-.24.45a5.36,5.36,0,0,1-1.15-.75l-1,1.08a7,7,0,0,0,2.19,1.25L12.31,18l.08,0,.53-1.36a7,7,0,0,1-2.2-1.23l.92-1.05a5.43,5.43,0,0,0,1.17.75Z" fill="#fff"/><ellipse cx="12.35" cy="17.97" rx="0.06" ry="0.22" transform="translate(-8.91 22.85) rotate(-68.41)" fill="#fff"/><ellipse cx="12.88" cy="16.63" rx="0.06" ry="0.18" transform="translate(-7.22 22.85) rotate(-69.43)" fill="#fff"/><ellipse cx="13.03" cy="14.61" rx="0.05" ry="0.1" transform="translate(-5.82 19.9) rotate(-63.94)" fill="#fff"/><ellipse cx="10.64" cy="15.36" rx="0.06" ry="0.16" transform="translate(-7.94 13.39) rotate(-49.23)" fill="#fff"/><ellipse cx="11.63" cy="14.31" rx="0.06" ry="0.13" transform="translate(-6.8 13.69) rotate(-48.95)" fill="#fff"/><ellipse cx="12.78" cy="15.05" rx="0.04" ry="0.09" transform="translate(-6.55 19.11) rotate(-61.54)" fill="#fff"/><path d="M3.57,13.46v0l-.21.06c-.1-.37-.18-.75-.24-1.14l-.6.12a13.54,13.54,0,0,0,.4,1.71l-.58.2v0l.59-.2a14.22,14.22,0,0,1-.41-1.71l.58-.12c.07.38.15.76.25,1.13Z" fill="#fff"/><ellipse cx="2.33" cy="14.39" rx="0.03" ry="0.12" transform="translate(-4.2 1.36) rotate(-17.41)" fill="#fff"/><ellipse cx="2.92" cy="14.19" rx="0.03" ry="0.12" transform="matrix(0.96, -0.28, 0.28, 0.96, -3.9, 1.41)" fill="#fff"/><ellipse cx="3.56" cy="13.44" rx="0.02" ry="0.09" transform="translate(-4.07 1.82) rotate(-18.43)" fill="#fff"/><ellipse cx="2.52" cy="12.48" rx="0.02" ry="0.12" transform="translate(-2.01 0.58) rotate(-9.44)" fill="#fff"/><ellipse cx="3.11" cy="12.36" rx="0.02" ry="0.11" transform="translate(-2.73 1.03) rotate(-13.16)" fill="#fff"/><ellipse cx="3.35" cy="13.48" rx="0.02" ry="0.07" transform="matrix(0.96, -0.27, 0.27, 0.96, -3.55, 1.42)" fill="#fff"/><path d="M5.7,11.09s0,0,0,0l-.21,0c0-.31,0-.62,0-.93l-.6,0a11.77,11.77,0,0,0,.09,1.42l-.6.1a.22.22,0,0,0,0,0l.61-.1a11.51,11.51,0,0,1-.1-1.42l.59,0c0,.31,0,.62,0,.93Z" fill="#fff"/><ellipse cx="4.32" cy="11.71" rx="0.03" ry="0.1" transform="translate(-1.21 0.52) rotate(-6.06)" fill="#fff"/><ellipse cx="4.93" cy="11.61" rx="0.02" ry="0.09" transform="translate(-1.33 0.66) rotate(-6.76)" fill="#fff"/><ellipse cx="5.69" cy="11.07" rx="0.02" ry="0.07" transform="translate(-1.52 0.92) rotate(-8.17)" fill="#fff"/><ellipse cx="4.83" cy="10.18" rx="0.02" ry="0.09" transform="translate(-0.41 0.2) rotate(-2.32)" fill="#fff"/><ellipse cx="5.43" cy="10.17" rx="0.02" ry="0.09" transform="translate(-0.42 0.24) rotate(-2.4)" fill="#fff"/><ellipse cx="5.48" cy="11.09" rx="0.02" ry="0.06" transform="translate(-1.29 0.74) rotate(-6.91)" fill="#fff"/><path d="M9.6,13.74l0,0-.21.14A7,7,0,0,1,9,13.19l-.63.32a7.32,7.32,0,0,0,.61,1L8.41,15l0,0L9,14.57a7.14,7.14,0,0,1-.61-1L9,13.22a6.19,6.19,0,0,0,.37.67Z" fill="#fff"/><ellipse cx="8.42" cy="14.98" rx="0.03" ry="0.09" transform="translate(-7.35 8.16) rotate(-37.28)" fill="#fff"/><ellipse cx="9" cy="14.56" rx="0.03" ry="0.08" transform="translate(-6.67 7.66) rotate(-34.5)" fill="#fff"/><ellipse cx="9.59" cy="13.73" rx="0.02" ry="0.06" transform="translate(-5.9 7.37) rotate(-32.74)" fill="#fff"/><ellipse cx="8.39" cy="13.52" rx="0.03" ry="0.08" transform="translate(-5.42 5.62) rotate(-28.41)" fill="#fff"/><ellipse cx="9.01" cy="13.2" rx="0.03" ry="0.07" transform="translate(-4.78 5.12) rotate(-25.31)" fill="#fff"/><ellipse cx="9.38" cy="13.86" rx="0.02" ry="0.05" transform="translate(-6.53 8.66) rotate(-37.83)" fill="#fff"/><path d="M4.41,6h0c-.11.32-.2.65-.28,1l-.28-.07a13.57,13.57,0,0,0-.37,2.93h.42a12.53,12.53,0,0,0,.27,2.85h0A12.51,12.51,0,0,1,3.9,9.83H3.48A13.57,13.57,0,0,1,3.84,7l.28.07C4.21,6.72,4.3,6.38,4.41,6Z" fill="#fff"/><ellipse cx="4.17" cy="12.72" rx="0.03" ry="0.11" transform="translate(-2.51 1.12) rotate(-11.79)" fill="#fff"/><ellipse cx="3.89" cy="9.87" rx="0.11" ry="0.03" transform="translate(-6.04 13.59) rotate(-89.02)" fill="#fff"/><ellipse cx="4.4" cy="6.05" rx="0.1" ry="0.02" transform="translate(-2.71 8.37) rotate(-72.04)" fill="#fff"/><ellipse cx="3.48" cy="9.87" rx="0.12" ry="0.03" transform="translate(-6.41 13.3) rotate(-89.76)" fill="#fff"/><ellipse cx="3.85" cy="6.96" rx="0.12" ry="0.03" transform="translate(-3.79 9.15) rotate(-77.1)" fill="#fff"/><ellipse cx="4.12" cy="7.03" rx="0.07" ry="0.02" transform="translate(-3.66 9.43) rotate(-76.71)" fill="#fff"/><path d="M7.57,7.68h0c.06-.23.13-.46.21-.69l.27.1A8.67,8.67,0,0,1,8.9,5.34l-.35-.24A8.19,8.19,0,0,1,9.86,3.52h0A8.08,8.08,0,0,0,8.53,5.13l.35.24a8.61,8.61,0,0,0-.82,1.7L7.79,7C7.7,7.2,7.63,7.44,7.57,7.68Z" fill="#fff"/><ellipse cx="9.85" cy="3.52" rx="0.08" ry="0.03" transform="translate(0.24 7.64) rotate(-42.82)" fill="#fff"/><ellipse cx="8.55" cy="5.11" rx="0.08" ry="0.03" transform="translate(-0.34 9.6) rotate(-57.71)" fill="#fff"/><ellipse cx="7.57" cy="7.67" rx="0.07" ry="0.02" transform="translate(-1.71 13.16) rotate(-75.96)" fill="#fff"/><ellipse cx="8.89" cy="5.35" rx="0.08" ry="0.03" transform="matrix(0.55, -0.84, 0.84, 0.55, -0.46, 9.84)" fill="#fff"/><ellipse cx="8.05" cy="7.09" rx="0.08" ry="0.03" transform="translate(-1.31 12.32) rotate(-70.56)" fill="#fff"/><ellipse cx="7.79" cy="6.99" rx="0.05" ry="0.02" transform="translate(-1.31 12.17) rotate(-71.57)" fill="#fff"/><path d="M11.58,14.11h0l-.29-.28.17-.16a4.68,4.68,0,0,1-.64-.85l-.28.18a5.29,5.29,0,0,1-.47-1h0a5.5,5.5,0,0,0,.48,1l.28-.18a4.81,4.81,0,0,0,.62.82l-.17.16Z" fill="#fff"/><ellipse cx="10.07" cy="11.99" rx="0.02" ry="0.04" transform="translate(-3.42 4.04) rotate(-19.44)" fill="#fff"/><ellipse cx="10.55" cy="13.01" rx="0.02" ry="0.04" transform="translate(-5.34 7.7) rotate(-32.5)" fill="#fff"/><ellipse cx="11.58" cy="14.11" rx="0.02" ry="0.04" transform="translate(-6.66 13.5) rotate(-48.7)" fill="#fff"/><ellipse cx="10.83" cy="12.83" rx="0.02" ry="0.04" transform="translate(-5.05 7.36) rotate(-30.84)" fill="#fff"/><ellipse cx="11.46" cy="13.67" rx="0.02" ry="0.04" transform="translate(-6.23 11.39) rotate(-42.69)" fill="#fff"/><ellipse cx="11.3" cy="13.83" rx="0.01" ry="0.03" transform="translate(-6.44 11.81) rotate(-44.28)" fill="#fff"/><path d="M9.65,18h0c-.2-.14-.39-.28-.58-.43l.15-.17A8.62,8.62,0,0,1,7.88,16l-.26.21a9.08,9.08,0,0,1-1-1.63h0a9.08,9.08,0,0,0,1,1.65L7.89,16a8.52,8.52,0,0,0,1.3,1.31L9,17.51C9.24,17.66,9.44,17.81,9.65,18Z" fill="#fff"/><ellipse cx="6.59" cy="14.58" rx="0.02" ry="0.08" transform="translate(-5.64 4.27) rotate(-25.56)" fill="#fff"/><ellipse cx="7.62" cy="16.21" rx="0.02" ry="0.08" transform="translate(-8.43 8.25) rotate(-38.45)" fill="#fff"/><ellipse cx="9.64" cy="17.95" rx="0.02" ry="0.07" transform="translate(-10.62 15.79) rotate(-55.68)" fill="#fff"/><ellipse cx="7.88" cy="16" rx="0.02" ry="0.08" transform="translate(-8.28 8.45) rotate(-38.74)" fill="#fff"/><ellipse cx="9.21" cy="17.35" rx="0.02" ry="0.08" transform="translate(-10.11 13.81) rotate(-51.64)" fill="#fff"/><ellipse cx="9.07" cy="17.52" rx="0.01" ry="0.05" transform="translate(-10.16 13.11) rotate(-49.72)" fill="#fff"/><path d="M8.73,11.83h0c0-.2-.09-.39-.12-.59l.28-.06a7.36,7.36,0,0,1-.08-1.64l-.42,0a8,8,0,0,1,.3-1.73h0a8.07,8.07,0,0,0-.3,1.76l.42,0a7.36,7.36,0,0,0,.08,1.59l-.28.05C8.64,11.42,8.68,11.63,8.73,11.83Z" fill="#fff"/><ellipse cx="8.7" cy="7.78" rx="0.07" ry="0.03" transform="translate(-1.11 14.11) rotate(-74.64)" fill="#fff"/><ellipse cx="8.4" cy="9.53" rx="0.07" ry="0.03" transform="translate(-1.63 17.32) rotate(-86.42)" fill="#fff"/><ellipse cx="8.74" cy="11.83" rx="0.02" ry="0.06" transform="translate(-2.56 2.42) rotate(-13.76)" fill="#fff"/><ellipse cx="8.82" cy="9.55" rx="0.07" ry="0.03" transform="translate(-1.17 17.87) rotate(-87.07)" fill="#fff"/><ellipse cx="8.9" cy="11.18" rx="0.03" ry="0.07" transform="translate(-1.78 1.68) rotate(-9.83)" fill="#fff"/><ellipse cx="8.62" cy="11.23" rx="0.02" ry="0.04" transform="translate(-1.6 1.43) rotate(-8.7)" fill="#fff"/><path d="M12.67,13.5h0l-.15.19a4.69,4.69,0,0,1-.4-.34l-.49.49a4.74,4.74,0,0,0,.68.55l-.41.56h0l.41-.57a4.92,4.92,0,0,1-.68-.55l.47-.48a4.24,4.24,0,0,0,.4.34Z" fill="#fff"/><ellipse cx="11.89" cy="14.95" rx="0.03" ry="0.07" transform="translate(-7.2 15.36) rotate(-52.72)" fill="#fff"/><ellipse cx="12.3" cy="14.38" rx="0.03" ry="0.06" transform="translate(-6.59 15.49) rotate(-52.82)" fill="#fff"/><ellipse cx="12.66" cy="13.5" rx="0.02" ry="0.04" transform="matrix(0.61, -0.8, 0.8, 0.61, -5.75, 15.37)" fill="#fff"/><ellipse cx="11.62" cy="13.83" rx="0.03" ry="0.06" transform="translate(-6.32 11.73) rotate(-43.29)" fill="#fff"/><ellipse cx="12.11" cy="13.35" rx="0.03" ry="0.05" transform="translate(-5.9 12.69) rotate(-45.69)" fill="#fff"/><ellipse cx="12.5" cy="13.68" rx="0.02" ry="0.03" transform="matrix(0.65, -0.76, 0.76, 0.65, -6.02, 14.3)" fill="#fff"/><path d="M5,5.64h0a12.53,12.53,0,0,0-.22,8.19l1.16-.42a9.24,9.24,0,0,0,4.63,5.43l-.42.74a12.36,12.36,0,0,0,3.38,1.13v0a12.16,12.16,0,0,1-3.25-1.07l.41-.75a9.22,9.22,0,0,1-4.76-5.57L4.7,13.7A12.5,12.5,0,0,1,5,5.64Z" fill="#fff"/><ellipse cx="4.95" cy="5.64" rx="0.33" ry="0.08" transform="translate(-2.06 8.31) rotate(-69.59)" fill="#fff"/><path d="M4.8,14s0-.17,0-.34-.13-.3-.17-.29,0,.17,0,.34S4.76,14.05,4.8,14Z" fill="#fff"/><ellipse cx="13.41" cy="20.68" rx="0.07" ry="0.34" transform="translate(-9.39 30.04) rotate(-79.35)" fill="#fff"/><path d="M6,13.59s0-.15,0-.31S5.82,13,5.77,13s0,.15,0,.31S5.91,13.6,6,13.59Z" fill="#fff"/><ellipse cx="10.6" cy="18.86" rx="0.08" ry="0.33" transform="translate(-11.01 19.87) rotate(-63.32)" fill="#fff"/><ellipse cx="10.2" cy="19.6" rx="0.05" ry="0.23" transform="translate(-11.9 19.89) rotate(-63.27)" fill="#fff"/><path d="M11.6,17l-1,1.82.06,0,1-1.82Z" fill="#fff"/><path d="M11.67,16.95c-.14-.07-.27-.1-.3-.06s.07.14.21.21.28.09.31,0S11.81,17,11.67,16.95Z" fill="#fff"/><path d="M3.88,5.2h0A14.07,14.07,0,0,0,3,9.38a13.43,13.43,0,0,0-.33,1.42v.05A13.52,13.52,0,0,1,3,9.41,14,14,0,0,1,3.88,5.2Z" fill="#fff"/><path d="M9.72,5.18,9.53,5A8.07,8.07,0,0,0,8.33,7.3h0A7.92,7.92,0,0,1,9.51,5.07l.18.14Z" fill="#fff"/><path d="M5.25,5.75h0a12.35,12.35,0,0,0-.72,3.08l1.06.1s0-.05,0-.08l-1-.11A12.37,12.37,0,0,1,5.25,5.75Z" fill="#fff"/><path d="M9.9,10.61h0a6.08,6.08,0,0,0,.1.64l.78-.19c0,.12.05.23.08.34h0c0-.12-.07-.25-.09-.38L10,11.2A5.68,5.68,0,0,1,9.9,10.61Z" fill="#fff"/><path d="M9.31,7.7l-.19-.07,0,.05.17.05a7.37,7.37,0,0,0-.35,2.49l.44,0s0,0,0-.05l-.42,0A7.36,7.36,0,0,1,9.31,7.7Z" fill="#fff"/><path d="M6.94,5.39h0a10.71,10.71,0,0,0-.81,2.33l.88.2A9.8,9.8,0,0,0,6.81,9h0A9.92,9.92,0,0,1,7,7.84l-.88-.21A10.56,10.56,0,0,1,6.94,5.39Z" fill="#fff"/><path d="M7.76,7.68l-.18,0v0l.16,0A9,9,0,0,0,7.45,9.5L7,9.49s0,0,0,0l.42,0A9.07,9.07,0,0,1,7.76,7.68Z" fill="#fff"/><path d="M2.37,15.14h0q.21.58.47,1.14l.8-.4a11.8,11.8,0,0,0,4.26,4.9h0a11.79,11.79,0,0,1-4.28-5l-.8.4C2.65,15.85,2.5,15.5,2.37,15.14Z" fill="#fff"/><path d="M10.4,20.18l-.62,1.24.07,0,.61-1.23a13,13,0,0,0,2.88.89l.08-.43-.08,0-.08.41A12.93,12.93,0,0,1,10.4,20.18Z" fill="#fff"/><path d="M9.67,16.12l0,0a7.58,7.58,0,0,0,.92.72l.5-.71a7,7,0,0,1-.7-.53l.25-.27,0,0-.26.29a6.06,6.06,0,0,0,.7.54l-.48.67A7.65,7.65,0,0,1,9.67,16.12Z" fill="#fff"/><path d="M11.92,16.38l-.33.59,0,0,.32-.58c.2.1.42.19.64.28l0-.1.22,0,0,0-.24,0,0,.09C12.34,16.58,12.13,16.48,11.92,16.38Z" fill="#fff"/><path d="M5.32,16.52h0a10.74,10.74,0,0,0,1.35,1.73l-.45.43,0,.05.46-.44A11,11,0,0,1,5.32,16.52Z" fill="#fff"/><path d="M7.14,13.75,6.51,14l0,0,.62-.29c.09.21.19.42.3.62h0C7.34,14.2,7.24,14,7.14,13.75Z" fill="#fff"/><path d="M13,14.6h0a5.65,5.65,0,0,0,.84.32l-.34,1a6.49,6.49,0,0,1-.75-.27v0a7.57,7.57,0,0,0,.79.28l.34-1.05A5.62,5.62,0,0,1,13,14.6Z" fill="#fff"/><path d="M11.34,10.37l-.24,0v0l.23,0a4.12,4.12,0,0,0,.7,2h0A4.13,4.13,0,0,1,11.34,10.37Z" fill="#fff"/><path d="M12,4.58v0a4.87,4.87,0,0,0-.41.3l.05.06a5.8,5.8,0,0,0-1,1.06h0a6,6,0,0,1,1-1.08l-.05-.07Z" fill="#fff"/><path d="M8.51,1.71l-.32-.37A10.72,10.72,0,0,0,6.93,2.68h0A10.39,10.39,0,0,1,8.13,1.41l.29.34-.34.33.41.43.05-.06L8.16,2Z" fill="#fff"/><ellipse cx="15.94" cy="0.93" rx="6.43" ry="0.93" fill="#fff" opacity="0.3" style="mix-blend-mode:multiply"/></g></g></g></svg>