<svg xmlns="http://www.w3.org/2000/svg" xmlns:xlink="http://www.w3.org/1999/xlink" viewBox="0 0 313.14 313.14"><defs><linearGradient id="linear-gradient" x1="32.15" y1="271.82" x2="262.64" y2="41.32" gradientUnits="userSpaceOnUse"><stop offset="0" stop-color="#8ec9f0"/><stop offset="0.05" stop-color="#83bade" stop-opacity="0.81"/><stop offset="0.11" stop-color="#77a8c9" stop-opacity="0.6"/><stop offset="0.18" stop-color="#6c9ab7" stop-opacity="0.42"/><stop offset="0.24" stop-color="#638da9" stop-opacity="0.27"/><stop offset="0.3" stop-color="#5d849d" stop-opacity="0.15"/><stop offset="0.37" stop-color="#587d95" stop-opacity="0.07"/><stop offset="0.43" stop-color="#557991" stop-opacity="0.02"/><stop offset="0.5" stop-color="#54788f" stop-opacity="0"/><stop offset="0.63" stop-color="#557990" stop-opacity="0.01"/><stop offset="0.7" stop-color="#567b93" stop-opacity="0.04"/><stop offset="0.75" stop-color="#5a8099" stop-opacity="0.1"/><stop offset="0.8" stop-color="#5e87a0" stop-opacity="0.18"/><stop offset="0.85" stop-color="#658fab" stop-opacity="0.28"/><stop offset="0.89" stop-color="#6c9ab7" stop-opacity="0.41"/><stop offset="0.92" stop-color="#75a6c6" stop-opacity="0.57"/><stop offset="0.96" stop-color="#7fb4d7" stop-opacity="0.74"/><stop offset="0.99" stop-color="#8bc4ea" stop-opacity="0.94"/><stop offset="1" stop-color="#8ec9f0"/></linearGradient><linearGradient id="linear-gradient-2" x1="32.15" y1="41.32" x2="262.64" y2="271.82" xlink:href="#linear-gradient"/></defs><title>circle 2</title><g id="Layer_2" data-name="Layer 2"><g id="BACKGROUND_1" data-name="BACKGROUND 1"><path d="M313.14,156.57C313.14,70.24,242.91,0,156.57,0A155.67,155.67,0,0,0,92.84,13.57L83.06,3.79A170.61,170.61,0,0,0,.63,90l10,10a156.54,156.54,0,0,0,0,113.19l-10,10a170.61,170.61,0,0,0,82.43,86.22l9.78-9.78a155.67,155.67,0,0,0,63.74,13.57C242.91,313.14,313.14,242.91,313.14,156.57ZM156.57,3.2c84.57,0,153.37,68.8,153.37,153.37s-68.8,153.37-153.37,153.37S3.2,241.14,3.2,156.57,72,3.2,156.57,3.2Z" fill="url(#linear-gradient)"/><path d="M313.14,156.57C313.14,70.24,242.91,0,156.57,0A155.67,155.67,0,0,0,92.84,13.57L83.06,3.79A170.61,170.61,0,0,0,.63,90l10,10a156.54,156.54,0,0,0,0,113.19l-10,10a170.61,170.61,0,0,0,82.43,86.22l9.78-9.78a155.67,155.67,0,0,0,63.74,13.57C242.91,313.14,313.14,242.91,313.14,156.57ZM156.57,3.2c84.57,0,153.37,68.8,153.37,153.37s-68.8,153.37-153.37,153.37S3.2,241.14,3.2,156.57,72,3.2,156.57,3.2Z" fill="url(#linear-gradient-2)"/></g></g></svg>