<svg xmlns="http://www.w3.org/2000/svg" viewBox="0 0 378.41 379.54"><title>circle-lines</title><g id="Layer_2" data-name="Layer 2"><g id="BACKGROUND_1" data-name="BACKGROUND 1"><g opacity="0.51"><path d="M27,131.33l-10.82-4.56q-.64,1.52-1.26,3.05l10.89,4.39Q26.36,132.77,27,131.33Z" fill="#bde4ff"/><path d="M38.08,109l-10.15-5.91q-.83,1.43-1.64,2.87l10.24,5.74Q37.3,110.39,38.08,109Z" fill="#bde4ff"/><path d="M32.17,120l-10.51-5.24q-.74,1.48-1.45,3l10.59,5.08Q31.48,121.4,32.17,120Z" fill="#bde4ff"/><path d="M29.48,125.63l-10.67-4.91q-.69,1.5-1.36,3l10.75,4.73Q28.83,127,29.48,125.63Z" fill="#bde4ff"/><path d="M41.3,103.71l-10-6.22q-.87,1.4-1.72,2.81l10.05,6.07Q40.47,105,41.3,103.71Z" fill="#bde4ff"/><path d="M35,114.48l-10.33-5.57q-.78,1.45-1.54,2.92l10.42,5.41Q34.3,115.85,35,114.48Z" fill="#bde4ff"/><path d="M59.81,78.74,51,71q-1.08,1.24-2.15,2.5l9,7.58Q58.79,79.92,59.81,78.74Z" fill="#bde4ff"/><path d="M55.79,83.5l-9.09-7.44q-1,1.28-2.07,2.57l9.21,7.29Q54.81,84.7,55.79,83.5Z" fill="#bde4ff"/><path d="M44.68,98.49,34.93,92q-.92,1.37-1.82,2.76L43,101.09Q43.81,99.78,44.68,98.49Z" fill="#bde4ff"/><path d="M48.23,93.37l-9.54-6.84q-1,1.34-1.9,2.7l9.65,6.69Q47.32,94.64,48.23,93.37Z" fill="#bde4ff"/><path d="M51.93,88.37l-9.32-7.14q-1,1.31-2,2.64l9.44,7Q51,89.61,51.93,88.37Z" fill="#bde4ff"/><path d="M17.23,160.88,5.82,158.12q-.39,1.6-.75,3.21l11.45,2.59Q16.87,162.39,17.23,160.88Z" fill="#bde4ff"/><path d="M12.94,185.36l-11.67-1.3q-.18,1.64-.34,3.28l11.69,1.11Q12.77,186.9,12.94,185.36Z" fill="#bde4ff"/><path d="M12.35,191.55l-11.7-.93q-.13,1.64-.23,3.29l11.72.73Q12.23,193.09,12.35,191.55Z" fill="#bde4ff"/><path d="M13.72,179.19,2.09,177.53q-.23,1.63-.44,3.27l11.65,1.48Q13.5,180.73,13.72,179.19Z" fill="#bde4ff"/><path d="M12,197.75.23,197.2q-.08,1.64-.13,3.29l11.74.37Q11.89,199.3,12,197.75Z" fill="#bde4ff"/><path d="M14.69,173.06,3.13,171q-.29,1.62-.55,3.26l11.6,1.84Q14.42,174.58,14.69,173.06Z" fill="#bde4ff"/><path d="M11.77,204,0,203.78q0,1.64,0,3.29H11.74Q11.74,205.52,11.77,204Z" fill="#bde4ff"/><path d="M20.55,148.9,9.34,145.41q-.49,1.57-1,3.15l11.26,3.31Q20.09,150.39,20.55,148.9Z" fill="#bde4ff"/><path d="M22.5,143l-11.09-3.85q-.54,1.56-1.06,3.13l11.15,3.68Q22,144.45,22.5,143Z" fill="#bde4ff"/><path d="M15.87,166.95l-11.49-2.4q-.34,1.61-.65,3.23L15.26,170Q15.55,168.47,15.87,166.95Z" fill="#bde4ff"/><path d="M24.64,137.12l-11-4.21q-.59,1.54-1.16,3.1l11,4Q24.08,138.57,24.64,137.12Z" fill="#bde4ff"/><path d="M18.8,154.87,7.48,151.74q-.44,1.59-.85,3.19L18,157.87Q18.38,156.36,18.8,154.87Z" fill="#bde4ff"/><path d="M64,74.13l-8.6-8q-1.12,1.21-2.23,2.43l8.73,7.86Q62.91,75.26,64,74.13Z" fill="#bde4ff"/><path d="M107.3,39.11l-6-10.09q-1.41.84-2.81,1.7l6.16,10Z" fill="#bde4ff"/><path d="M158.7,17.78,155.8,6.4l-3.19.84,3.08,11.33Z" fill="#bde4ff"/><path d="M164.75,16.34,162.21,4.88,159,5.61,161.71,17Z" fill="#bde4ff"/><path d="M152.7,19.41,149.44,8.13l-3.16.94,3.44,11.23Z" fill="#bde4ff"/><path d="M170.83,15.1,168.67,3.56l-3.23.63,2.35,11.5Z" fill="#bde4ff"/><path d="M140.88,23.24l-4-11-3.09,1.14,4.15,11Z" fill="#bde4ff"/><path d="M146.76,21.23l-3.63-11.17-3.12,1,3.8,11.11Z" fill="#bde4ff"/><path d="M189.3,12.54,188.24.84,185,1.17l1.24,11.68Z" fill="#bde4ff"/><path d="M177,14l-1.8-11.6L171.91,3l2,11.57Z" fill="#bde4ff"/><path d="M195.5,12.08,194.82.36l-3.29.22.87,11.71Z" fill="#bde4ff"/><path d="M207.08,11.74V0h-2.4l.13,11.74Z" fill="#bde4ff"/><path d="M135.07,25.44l-4.33-10.91-3,1.23,4.51,10.84Z" fill="#bde4ff"/><path d="M183.12,13.2,181.69,1.54,178.43,2,180,13.6Z" fill="#bde4ff"/><path d="M129.35,27.82,124.67,17q-1.51.65-3,1.33l4.85,10.69Z" fill="#bde4ff"/><path d="M91.78,49.38l-6.94-9.47q-1.33,1-2.64,2l7.09,9.36Q90.53,50.3,91.78,49.38Z" fill="#bde4ff"/><path d="M86.83,53.13,79.6,43.88q-1.3,1-2.58,2l7.38,9.13Q85.61,54.08,86.83,53.13Z" fill="#bde4ff"/><path d="M82,57l-7.52-9Q73.21,49.07,72,50.14L79.63,59Q80.81,58,82,57Z" fill="#bde4ff"/><path d="M72.72,65.29l-8.08-8.52q-1.19,1.13-2.37,2.29l8.21,8.39Q71.59,66.36,72.72,65.29Z" fill="#bde4ff"/><path d="M77.3,61.09l-7.8-8.77Q68.26,53.41,67,54.52L75,63.17Q76.13,62.12,77.3,61.09Z" fill="#bde4ff"/><path d="M123.71,30.37l-5-10.61-3,1.43,5.19,10.53Z" fill="#bde4ff"/><path d="M118.15,33.11,112.8,22.66l-2.91,1.52,5.52,10.37Z" fill="#bde4ff"/><path d="M96.85,45.79,90.21,36.1Q88.86,37,87.52,38l6.78,9.58Z" fill="#bde4ff"/><path d="M68.28,69.63l-8.35-8.25q-1.15,1.17-2.29,2.35l8.47,8.13Q67.18,70.74,68.28,69.63Z" fill="#bde4ff"/><path d="M112.68,36,107,25.75l-2.86,1.61L110,37.55Z" fill="#bde4ff"/><path d="M102,42.37,95.7,32.48l-2.75,1.79,6.48,9.79Z" fill="#bde4ff"/><path d="M201.71,11.81,201.39.08l-3.28.11.5,11.73Z" fill="#bde4ff"/><path d="M127.76,98.56l-4.39-6q-1.33,1-2.63,2l4.52,5.95Q126.5,99.47,127.76,98.56Z" fill="#bde4ff"/><path d="M90.31,139.78,83.86,136q-.83,1.42-1.63,2.86l6.53,3.63Q89.52,141.13,90.31,139.78Z" fill="#bde4ff"/><path d="M118,106.32l-4.92-5.63q-1.24,1.08-2.45,2.19l5,5.51Q116.86,107.34,118,106.32Z" fill="#bde4ff"/><path d="M138.16,91.73l-3.81-6.43q-1.41.84-2.81,1.71l4,6.34Q136.82,92.52,138.16,91.73Z" fill="#bde4ff"/><path d="M132.88,95l-4.1-6.25q-1.37.9-2.72,1.83l4.24,6.15Q131.58,95.88,132.88,95Z" fill="#bde4ff"/><path d="M104.85,119.55l-5.64-4.9q-1.08,1.24-2.13,2.51l5.75,4.77Q103.82,120.72,104.85,119.55Z" fill="#bde4ff"/><path d="M97.12,129.32,91,125q-1,1.33-1.89,2.69l6.17,4.22Q96.2,130.59,97.12,129.32Z" fill="#bde4ff"/><path d="M100.87,124.35,95,119.71q-1,1.29-2,2.61l6,4.5Q99.9,125.57,100.87,124.35Z" fill="#bde4ff"/><path d="M109,114.94l-5.41-5.15q-1.13,1.19-2.24,2.41l5.53,5Q108,116.06,109,114.94Z" fill="#bde4ff"/><path d="M113.44,110.52l-5.17-5.39q-1.19,1.14-2.35,2.3l5.3,5.27Q112.31,111.6,113.44,110.52Z" fill="#bde4ff"/><path d="M93.59,134.47l-6.26-4.08q-.9,1.38-1.76,2.78l6.35,3.93Q92.74,135.78,93.59,134.47Z" fill="#bde4ff"/><path d="M122.81,102.32l-4.66-5.84q-1.28,1-2.54,2.08l4.79,5.74Q121.59,103.29,122.81,102.32Z" fill="#bde4ff"/><path d="M190.81,73.85l-.89-7.42q-1.64.2-3.26.43l1.06,7.4Q189.26,74,190.81,73.85Z" fill="#bde4ff"/><path d="M197,73.26l-.55-7.45q-1.64.12-3.27.28l.72,7.44Q195.46,73.37,197,73.26Z" fill="#bde4ff"/><polygon points="207.08 72.89 207.08 65.42 206.32 65.42 206.35 72.89 207.08 72.89" fill="#bde4ff"/><path d="M203.24,72.94,203,65.47q-1.65,0-3.28.13l.38,7.46Q201.68,73,203.24,72.94Z" fill="#bde4ff"/><path d="M178.53,75.9,177,68.6q-1.61.35-3.21.73l1.74,7.27Q177,76.23,178.53,75.9Z" fill="#bde4ff"/><path d="M154.8,83.36l-2.89-6.89q-1.51.63-3,1.3l3,6.82Q153.36,84,154.8,83.36Z" fill="#bde4ff"/><path d="M172.47,77.35l-1.91-7.22q-1.59.42-3.17.88l2.07,7.18Q171,77.75,172.47,77.35Z" fill="#bde4ff"/><path d="M149.13,85.89l-3.2-6.75q-1.48.7-2.94,1.44l3.36,6.67Q147.72,86.56,149.13,85.89Z" fill="#bde4ff"/><path d="M143.58,88.68l-3.51-6.59q-1.45.77-2.88,1.57l3.66,6.51Q142.21,89.41,143.58,88.68Z" fill="#bde4ff"/><path d="M166.48,79.08,164.24,72q-1.57.49-3.13,1l2.4,7.07Q165,79.55,166.48,79.08Z" fill="#bde4ff"/><path d="M160.58,81.09l-2.56-7q-1.55.57-3.08,1.17l2.73,7Q159.12,81.62,160.58,81.09Z" fill="#bde4ff"/><path d="M184.65,74.74l-1.23-7.37q-1.62.27-3.24.58l1.4,7.34Q183.11,75,184.65,74.74Z" fill="#bde4ff"/><path d="M68,175.62l7.28,1.7q.35-1.52.74-3l-7.23-1.87Q68.4,174,68,175.62Z" fill="#bde4ff"/><path d="M69.67,169.25l7.19,2q.42-1.5.88-3l-7.14-2.2Q70.11,167.67,69.67,169.25Z" fill="#bde4ff"/><path d="M87.27,145.24l-6.61-3.48q-.77,1.46-1.5,2.94L85.85,148Q86.54,146.62,87.27,145.24Z" fill="#bde4ff"/><path d="M71.61,163l7.09,2.37q.5-1.49,1-3l-7-2.53Q72.13,161.39,71.61,163Z" fill="#bde4ff"/><path d="M65.63,188.55l7.4,1q.21-1.54.46-3.08l-7.38-1.19Q65.85,186.92,65.63,188.55Z" fill="#bde4ff"/><path d="M66.68,182.06,74,183.42q.28-1.54.6-3.06l-7.31-1.53Q67,180.44,66.68,182.06Z" fill="#bde4ff"/><path d="M64.29,208.21h7.47q0-1.56,0-3.12l-7.47-.17Q64.29,206.56,64.29,208.21Z" fill="#bde4ff"/><path d="M82,156.54l-6.9-2.86q-.63,1.52-1.22,3.06l7,2.7Q81.37,158,82,156.54Z" fill="#bde4ff"/><path d="M64.44,201.64l7.46.33q.07-1.56.18-3.11l-7.46-.51Q64.51,200,64.44,201.64Z" fill="#bde4ff"/><path d="M64.88,195.08l7.44.68q.14-1.55.32-3.1l-7.42-.85Q65,193.44,64.88,195.08Z" fill="#bde4ff"/><path d="M84.49,150.83l-6.76-3.18q-.7,1.49-1.37,3l6.84,3Q83.83,152.24,84.49,150.83Z" fill="#bde4ff"/><path d="M208.71,36.88h-1.63v7.47h1.57Z" fill="#bde4ff"/><path d="M213.63,37,212,36.95l-.21,7.47,1.57.05Z" fill="#bde4ff"/><path d="M218.53,37.25l-1.63-.1-.42,7.46,1.56.1Z" fill="#bde4ff"/><path d="M360.39,266.18l7,2.65q.58-1.53,1.13-3.07l-7-2.51Q360.94,264.72,360.39,266.18Z" fill="#bde4ff"/><path d="M369.51,229.92l7.41,1q.21-1.61.4-3.24l-7.42-.84Q369.72,228.38,369.51,229.92Z" fill="#bde4ff"/><path d="M368.58,236.09l7.37,1.26q.27-1.61.52-3.22L369.07,233Q368.84,234.56,368.58,236.09Z" fill="#bde4ff"/><path d="M370.21,223.73l7.44.7q.15-1.62.28-3.25l-7.45-.56Q370.36,222.18,370.21,223.73Z" fill="#bde4ff"/><path d="M370.68,217.5l7.46.43q.09-1.63.15-3.26l-7.47-.28Q370.77,215.95,370.68,217.5Z" fill="#bde4ff"/><path d="M366,248.29l7.24,1.83q.4-1.58.77-3.17l-7.28-1.68Q366.38,246.79,366,248.29Z" fill="#bde4ff"/><path d="M367.4,242.22l7.31,1.54q.34-1.59.64-3.19L368,239.16Q367.73,240.7,367.4,242.22Z" fill="#bde4ff"/><path d="M364.36,254.32l7.17,2.1q.46-1.56.89-3.14l-7.21-2Q364.8,252.82,364.36,254.32Z" fill="#bde4ff"/><path d="M362.49,260.29l7.09,2.37q.52-1.55,1-3.11l-7.13-2.24Q363,258.81,362.49,260.29Z" fill="#bde4ff"/><path d="M331.91,314.36l5.69,4.84q1.06-1.24,2.09-2.5L333.91,312Q332.92,313.17,331.91,314.36Z" fill="#bde4ff"/><path d="M335.87,309.53l5.87,4.62q1-1.28,2-2.58l-6-4.51Q336.83,308.3,335.87,309.53Z" fill="#bde4ff"/><path d="M323.47,323.55l5.31,5.26q1.15-1.16,2.27-2.34l-5.41-5.16Q324.57,322.44,323.47,323.55Z" fill="#bde4ff"/><path d="M327.78,319l5.51,5.05q1.1-1.2,2.18-2.42l-5.6-5Q328.83,317.88,327.78,319Z" fill="#bde4ff"/><path d="M339.64,304.55l6,4.4q1-1.32,1.9-2.66L341.45,302Q340.55,303.29,339.64,304.55Z" fill="#bde4ff"/><path d="M346.6,294.19l6.36,3.92q.86-1.39,1.69-2.8l-6.43-3.8Q347.42,292.86,346.6,294.19Z" fill="#bde4ff"/><path d="M355.52,277.7l6.77,3.17q.69-1.48,1.36-3l-6.82-3Q356.18,276.29,355.52,277.7Z" fill="#bde4ff"/><path d="M343.22,299.43l6.2,4.17q.91-1.36,1.8-2.73l-6.28-4Q344.09,298.14,343.22,299.43Z" fill="#bde4ff"/><path d="M352.75,283.31l6.64,3.43q.75-1.45,1.47-2.92l-6.7-3.3Q353.47,281.93,352.75,283.31Z" fill="#bde4ff"/><path d="M349.78,288.81l6.5,3.68q.8-1.42,1.58-2.86l-6.57-3.56Q350.55,287.45,349.78,288.81Z" fill="#bde4ff"/><path d="M358.06,272l6.89,2.9q.63-1.5,1.24-3l-6.94-2.78Q358.67,270.55,358.06,272Z" fill="#bde4ff"/><path d="M364.33,162l7.17-2.1q-.46-1.57-.95-3.12L363.43,159Q363.89,160.5,364.33,162Z" fill="#bde4ff"/><path d="M358.05,144.41l6.88-2.91q-.63-1.5-1.3-3l-6.82,3Q357.45,143,358.05,144.41Z" fill="#bde4ff"/><path d="M346.65,122.32,353,118.4q-.86-1.39-1.74-2.76l-6.28,4Q345.84,121,346.65,122.32Z" fill="#bde4ff"/><path d="M349.82,127.68l6.5-3.68q-.8-1.42-1.63-2.82l-6.43,3.8Q349.05,126.32,349.82,127.68Z" fill="#bde4ff"/><path d="M352.78,133.15l6.64-3.43q-.75-1.45-1.52-2.88l-6.57,3.56Q352.06,131.77,352.78,133.15Z" fill="#bde4ff"/><path d="M355.52,138.73l6.77-3.17q-.69-1.47-1.41-2.93l-6.7,3.3Q354.86,137.32,355.52,138.73Z" fill="#bde4ff"/><path d="M343.28,117.08l6.2-4.16q-.91-1.35-1.84-2.69l-6.13,4.28Q342.42,115.79,343.28,117.08Z" fill="#bde4ff"/><path d="M254.87,365l2.18,7.15q1.56-.48,3.11-1l-2.31-7.1Q256.36,364.54,254.87,365Z" fill="#bde4ff"/><path d="M319,327.89l5.1,5.46q1.19-1.11,2.36-2.25l-5.21-5.36Q320.14,326.83,319,327.89Z" fill="#bde4ff"/><path d="M336,107l5.87-4.62q-1-1.28-2-2.54L334,104.57Q335,105.78,336,107Z" fill="#bde4ff"/><path d="M339.72,112l6-4.39q-1-1.32-1.94-2.62l-6,4.51Q338.8,110.71,339.72,112Z" fill="#bde4ff"/><path d="M370.2,192.58l7.44-.7q-.15-1.63-.34-3.24l-7.42.84Q370.06,191,370.2,192.58Z" fill="#bde4ff"/><path d="M369.5,186.39l7.41-1q-.22-1.62-.46-3.23l-7.39,1.13Q369.29,184.84,369.5,186.39Z" fill="#bde4ff"/><path d="M370.91,211.27l7.47.14q0-1.6,0-3.21v-.06l-7.47.06Q370.94,209.74,370.91,211.27Z" fill="#bde4ff"/><path d="M360.37,150.18l7-2.65q-.58-1.52-1.18-3l-6.93,2.78Q359.82,148.72,360.37,150.18Z" fill="#bde4ff"/><path d="M370.91,205l7.47-.15q0-1.63-.09-3.25l-7.47.28Q370.88,203.47,370.91,205Z" fill="#bde4ff"/><path d="M370.67,198.8l7.46-.42q-.09-1.63-.21-3.25l-7.45.56Q370.59,197.24,370.67,198.8Z" fill="#bde4ff"/><path d="M362.46,156l7.09-2.37q-.52-1.55-1.07-3.09l-7,2.51Q362,154.57,362.46,156Z" fill="#bde4ff"/><path d="M368.56,180.22l7.36-1.27q-.28-1.61-.58-3.21L368,177.15Q368.29,178.68,368.56,180.22Z" fill="#bde4ff"/><path d="M366,168l7.24-1.83q-.4-1.58-.83-3.15l-7.21,2Q365.59,166.5,366,168Z" fill="#bde4ff"/><path d="M367.38,174.09l7.31-1.54q-.34-1.6-.71-3.19L366.71,171Q367.06,172.56,367.38,174.09Z" fill="#bde4ff"/><path d="M332,102.18l5.69-4.84q-1.06-1.24-2.13-2.46L330,99.82Q331,101,332,102.18Z" fill="#bde4ff"/><path d="M237.94,39.65q-1.6-.29-3.22-.55l-1.19,7.38q1.54.25,3.07.53Z" fill="#bde4ff"/><path d="M231.5,38.6q-1.61-.23-3.24-.43l-.91,7.42q1.55.19,3.09.41Z" fill="#bde4ff"/><path d="M244.33,40.94q-1.59-.35-3.19-.68l-1.48,7.32q1.53.31,3.05.65Z" fill="#bde4ff"/><path d="M225,37.81q-1.62-.17-3.25-.31l-.63,7.44q1.55.13,3.1.29Z" fill="#bde4ff"/><path d="M269.32,48.53q-1.52-.59-3.06-1.16l-2.58,7q1.47.54,2.93,1.11Z" fill="#bde4ff"/><path d="M248.87,366.69l1.9,7.23q1.58-.42,3.15-.86l-2-7.19Q250.38,366.29,248.87,366.69Z" fill="#bde4ff"/><path d="M263.18,46.27q-1.54-.54-3.1-1l-2.31,7.11q1.49.48,3,1Z" fill="#bde4ff"/><path d="M257,44.25q-1.56-.48-3.13-.92l-2,7.19q1.5.42,3,.88Z" fill="#bde4ff"/><path d="M275.37,51q-1.5-.65-3-1.28l-2.85,6.91q1.45.6,2.88,1.22Z" fill="#bde4ff"/><path d="M250.68,42.47q-1.58-.41-3.16-.8l-1.76,7.26q1.52.37,3,.76Z" fill="#bde4ff"/><path d="M218.14,371.7l.5,7.46q1.63-.11,3.25-.25l-.64-7.44Z" fill="#bde4ff"/><path d="M224.35,371.17l.78,7.43q1.62-.17,3.24-.37l-.92-7.42Z" fill="#bde4ff"/><path d="M314.36,332.07l4.9,5.64q1.23-1.07,2.44-2.16l-5-5.55Q315.54,331,314.36,332.07Z" fill="#bde4ff"/><path d="M272.4,358.53l3,6.85q1.49-.65,3-1.32l-3.11-6.79Q273.82,357.91,272.4,358.53Z" fill="#bde4ff"/><path d="M260.8,363.06l2.45,7.06q1.54-.54,3.07-1.1l-2.58-7Q262.28,362.55,260.8,363.06Z" fill="#bde4ff"/><path d="M236.7,369.4l1.34,7.35q1.61-.29,3.2-.62l-1.48-7.32Q238.23,369.12,236.7,369.4Z" fill="#bde4ff"/><path d="M230.54,370.4l1.06,7.4q1.62-.23,3.23-.49l-1.2-7.37Q232.09,370.18,230.54,370.4Z" fill="#bde4ff"/><path d="M242.81,368.16l1.63,7.29q1.59-.36,3.17-.74l-1.76-7.26Z" fill="#bde4ff"/><path d="M327.89,97.5l5.51-5.05q-1.1-1.2-2.22-2.38l-5.41,5.15Q326.83,96.35,327.89,97.5Z" fill="#bde4ff"/><path d="M289,350.13l3.75,6.46q1.41-.81,2.8-1.65l-3.86-6.4Q290.39,349.35,289,350.13Z" fill="#bde4ff"/><path d="M278.07,60.48l3.24-6.73q-1.47-.71-3-1.39l-3.11,6.79Q276.67,59.81,278.07,60.48Z" fill="#bde4ff"/><path d="M283.6,353.14l3.5,6.6q1.44-.76,2.86-1.55l-3.62-6.54Q285,352.41,283.6,353.14Z" fill="#bde4ff"/><path d="M323.59,93l5.31-5.26q-1.15-1.16-2.31-2.29l-5.21,5.35Q322.49,91.88,323.59,93Z" fill="#bde4ff"/><path d="M266.65,360.9l2.72,7q1.51-.59,3-1.21l-2.85-6.91Q268.1,360.34,266.65,360.9Z" fill="#bde4ff"/><path d="M309.58,336.06l4.68,5.83q1.27-1,2.52-2.06L312,334.09Q310.79,335.08,309.58,336.06Z" fill="#bde4ff"/><path d="M304.65,339.87l4.45,6q1.31-1,2.6-2L307.13,338Q305.9,338.94,304.65,339.87Z" fill="#bde4ff"/><path d="M294.37,346.91l4,6.32q1.38-.87,2.74-1.76l-4.1-6.25Q295.69,346.08,294.37,346.91Z" fill="#bde4ff"/><path d="M299.58,343.49l4.22,6.16q1.34-.92,2.67-1.87l-4.34-6.08Q300.86,342.6,299.58,343.49Z" fill="#bde4ff"/><path d="M278,355.95l3.24,6.73q1.47-.71,2.92-1.44l-3.37-6.67Q279.45,355.27,278,355.95Z" fill="#bde4ff"/><path d="M319.12,88.63l5.11-5.45Q323,82.07,321.83,81l-5,5.55Q318,87.57,319.12,88.63Z" fill="#bde4ff"/><path d="M299.68,73l4.23-6.16q-1.34-.92-2.71-1.82l-4.11,6.24Q298.39,72.12,299.68,73Z" fill="#bde4ff"/><path d="M294.46,69.57l4-6.32q-1.38-.87-2.78-1.72l-3.87,6.39Q293.14,68.73,294.46,69.57Z" fill="#bde4ff"/><path d="M283.65,63.3l3.5-6.6q-1.44-.76-2.9-1.5l-3.37,6.67Q282.27,62.57,283.65,63.3Z" fill="#bde4ff"/><path d="M289.12,66.33l3.75-6.46Q291.45,59,290,58.26l-3.62,6.53Q287.76,65.55,289.12,66.33Z" fill="#bde4ff"/><path d="M309.7,80.45l4.68-5.82q-1.27-1-2.56-2l-4.57,5.91Q308.48,79.47,309.7,80.45Z" fill="#bde4ff"/><path d="M314.48,84.45l4.9-5.64q-1.23-1.07-2.48-2.12l-4.79,5.73Q313.31,83.43,314.48,84.45Z" fill="#bde4ff"/><path d="M304.76,76.63l4.46-6q-1.31-1-2.64-1.92l-4.34,6.08Q303.51,75.7,304.76,76.63Z" fill="#bde4ff"/><path d="M213.34,372l.29,7.47,1.63-.07-.35-7.46Z" fill="#bde4ff"/><path d="M210.22,372l.13,7.47,1.64,0-.22-7.47Z" fill="#bde4ff"/><path d="M207.08,372.07v7.47h1.64l-.07-7.47Z" fill="#bde4ff"/></g></g></g></svg>