<svg xmlns="http://www.w3.org/2000/svg" xmlns:xlink="http://www.w3.org/1999/xlink" viewBox="0 0 412.26 411.7"><defs><linearGradient id="linear-gradient" x1="59.24" y1="356.33" x2="354.59" y2="60.98" gradientUnits="userSpaceOnUse"><stop offset="0" stop-color="#8ec9f0"/><stop offset="0.05" stop-color="#83bade" stop-opacity="0.81"/><stop offset="0.11" stop-color="#77a8c9" stop-opacity="0.6"/><stop offset="0.18" stop-color="#6c9ab7" stop-opacity="0.42"/><stop offset="0.24" stop-color="#638da9" stop-opacity="0.27"/><stop offset="0.3" stop-color="#5d849d" stop-opacity="0.15"/><stop offset="0.37" stop-color="#587d95" stop-opacity="0.07"/><stop offset="0.43" stop-color="#557991" stop-opacity="0.02"/><stop offset="0.5" stop-color="#54788f" stop-opacity="0"/><stop offset="0.63" stop-color="#557990" stop-opacity="0.01"/><stop offset="0.7" stop-color="#567b93" stop-opacity="0.04"/><stop offset="0.75" stop-color="#5a8099" stop-opacity="0.1"/><stop offset="0.8" stop-color="#5e87a0" stop-opacity="0.18"/><stop offset="0.85" stop-color="#658fab" stop-opacity="0.28"/><stop offset="0.89" stop-color="#6c9ab7" stop-opacity="0.41"/><stop offset="0.92" stop-color="#75a6c6" stop-opacity="0.57"/><stop offset="0.96" stop-color="#7fb4d7" stop-opacity="0.74"/><stop offset="0.99" stop-color="#8bc4ea" stop-opacity="0.94"/><stop offset="1" stop-color="#8ec9f0"/></linearGradient><linearGradient id="linear-gradient-2" x1="69.36" y1="337.25" x2="328.98" y2="77.63" xlink:href="#linear-gradient"/><linearGradient id="linear-gradient-3" x1="67.03" y1="68.77" x2="346.8" y2="348.54" xlink:href="#linear-gradient"/><linearGradient id="linear-gradient-4" x1="69.36" y1="77.63" x2="328.98" y2="337.25" xlink:href="#linear-gradient"/></defs><title>circle3</title><g id="Layer_2" data-name="Layer 2"><g id="BACKGROUND_1" data-name="BACKGROUND 1"><path d="M412.26,194.67C406.67,99.88,339.23,21.73,249.72,0L231.17,18.54a192.05,192.05,0,0,0-32-2.69C93.53,15.85,7.59,101.8,7.59,207.44S93.53,399,199.17,399c102.64,0,186.67-81.13,191.37-182.62l6.46-6.46c-1.35,108-89.56,195.36-197.83,195.36a196.13,196.13,0,0,1-119.1-39.85,199.64,199.64,0,0,1-68.45-94.84,6.67,6.67,0,1,0-6,2.11,206.1,206.1,0,0,0,70.64,97.84,202.48,202.48,0,0,0,123,41.14c112.63,0,204.26-91.63,204.26-204.26q0-2,0-3.9ZM199.17,395.82c-103.87,0-188.38-84.51-188.38-188.38S95.3,19.06,199.17,19.06s188.38,84.51,188.38,188.38S303,395.82,199.17,395.82Z" fill="url(#linear-gradient)"/><path d="M199.17,23.78C97.9,23.78,15.51,106.17,15.51,207.44S97.9,391.1,199.17,391.1s183.66-82.39,183.66-183.66S300.44,23.78,199.17,23.78Zm0,364.12c-99.51,0-180.46-81-180.46-180.46S99.66,27,199.17,27s180.46,81,180.46,180.46S298.68,387.9,199.17,387.9Z" fill="url(#linear-gradient-2)"/><path d="M412.26,194.67C406.67,99.88,339.23,21.73,249.72,0L231.17,18.54a192.05,192.05,0,0,0-32-2.69C93.53,15.85,7.59,101.8,7.59,207.44S93.53,399,199.17,399c102.64,0,186.67-81.13,191.37-182.62l6.46-6.46c-1.35,108-89.56,195.36-197.83,195.36a196.13,196.13,0,0,1-119.1-39.85,199.64,199.64,0,0,1-68.45-94.84,6.67,6.67,0,1,0-6,2.11,206.1,206.1,0,0,0,70.64,97.84,202.48,202.48,0,0,0,123,41.14c112.63,0,204.26-91.63,204.26-204.26q0-2,0-3.9ZM199.17,395.82c-103.87,0-188.38-84.51-188.38-188.38S95.3,19.06,199.17,19.06s188.38,84.51,188.38,188.38S303,395.82,199.17,395.82Z" fill="url(#linear-gradient-3)"/><path d="M199.17,23.78C97.9,23.78,15.51,106.17,15.51,207.44S97.9,391.1,199.17,391.1s183.66-82.39,183.66-183.66S300.44,23.78,199.17,23.78Zm0,364.12c-99.51,0-180.46-81-180.46-180.46S99.66,27,199.17,27s180.46,81,180.46,180.46S298.68,387.9,199.17,387.9Z" fill="url(#linear-gradient-4)"/></g></g></svg>