<svg xmlns="http://www.w3.org/2000/svg" xmlns:xlink="http://www.w3.org/1999/xlink" viewBox="0 0 266.49 268.4"><defs><linearGradient id="linear-gradient" x1="37.14" y1="39.48" x2="216.17" y2="218.51" gradientUnits="userSpaceOnUse"><stop offset="0" stop-color="#8ec9f0"/><stop offset="0.05" stop-color="#83bade" stop-opacity="0.81"/><stop offset="0.11" stop-color="#77a8c9" stop-opacity="0.6"/><stop offset="0.18" stop-color="#6c9ab7" stop-opacity="0.42"/><stop offset="0.24" stop-color="#638da9" stop-opacity="0.27"/><stop offset="0.3" stop-color="#5d849d" stop-opacity="0.15"/><stop offset="0.37" stop-color="#587d95" stop-opacity="0.07"/><stop offset="0.43" stop-color="#557991" stop-opacity="0.02"/><stop offset="0.5" stop-color="#54788f" stop-opacity="0"/><stop offset="0.63" stop-color="#557990" stop-opacity="0.01"/><stop offset="0.7" stop-color="#567b93" stop-opacity="0.04"/><stop offset="0.75" stop-color="#5a8099" stop-opacity="0.1"/><stop offset="0.8" stop-color="#5e87a0" stop-opacity="0.18"/><stop offset="0.85" stop-color="#658fab" stop-opacity="0.28"/><stop offset="0.89" stop-color="#6c9ab7" stop-opacity="0.41"/><stop offset="0.92" stop-color="#75a6c6" stop-opacity="0.57"/><stop offset="0.96" stop-color="#7fb4d7" stop-opacity="0.74"/><stop offset="0.99" stop-color="#8bc4ea" stop-opacity="0.94"/><stop offset="1" stop-color="#8ec9f0"/></linearGradient></defs><title>circle 1</title><g id="Layer_2" data-name="Layer 2"><g id="BACKGROUND_1" data-name="BACKGROUND 1"><path d="M20.08,219.42,26,225.93a139.5,139.5,0,0,0,89.73,42.48l10.75-12.76h.21a126.87,126.87,0,0,0,118.79-82.71l15.52-5A139.87,139.87,0,0,0,180.64,0L170.48,10.16A126.65,126.65,0,0,0,9.29,176.58c-3.17,5.54-6.09,10.62-8.1,14.1A140.3,140.3,0,0,0,20.08,219.42ZM126.65,8.74c1.22,0,2.43,0,3.64.06L126,13.11a115.86,115.86,0,1,0,31.44,4.15,3.78,3.78,0,1,0-.62,3.15,112.7,112.7,0,1,1-30.16-4.1h.66l7.3-7.3a120.16,120.16,0,1,1-8-.27Z" fill="url(#linear-gradient)"/></g></g></svg>