<svg xmlns="http://www.w3.org/2000/svg" viewBox="0 0 94.28 11.8"><title>motto</title><g id="Layer_2" data-name="Layer 2"><g id="Layer_2-2" data-name="Layer 2"><path d="M5.84,2.32h-4V5.57H5.53V7.09H1.8v4.53H0V.79H5.84Z" fill="#e7f9fa"/><path d="M11.59,5.56a1.45,1.45,0,0,0-.91-.25,1.56,1.56,0,0,0-1.3.7,3.14,3.14,0,0,0-.52,1.91v3.7H7.11V3.89H8.86V5.48h0a2.69,2.69,0,0,1,.79-1.27,1.78,1.78,0,0,1,1.19-.46,1.48,1.48,0,0,1,.72.14Z" fill="#e7f9fa"/><path d="M18.3,11.62H16.6V10.41h0a2.56,2.56,0,0,1-2.35,1.39,2.47,2.47,0,0,1-1.79-.62,2.17,2.17,0,0,1-.64-1.64q0-2.19,2.52-2.55l2.3-.32Q16.61,5,15,5a3.73,3.73,0,0,0-2.49,1V4.43a5.43,5.43,0,0,1,2.82-.72q2.93,0,2.93,2.88Zm-1.69-3.8L15,8a2.57,2.57,0,0,0-1.14.37,1.07,1.07,0,0,0-.38.94,1,1,0,0,0,.35.8,1.36,1.36,0,0,0,.94.31,1.73,1.73,0,0,0,1.32-.56,2,2,0,0,0,.52-1.42Z" fill="#e7f9fa"/><path d="M31.53,11.62H29.78V7.4a3.42,3.42,0,0,0-.34-1.76,1.26,1.26,0,0,0-1.16-.54,1.4,1.4,0,0,0-1.17.69,2.8,2.8,0,0,0-.48,1.65v4.18H24.87V7.26q0-2.16-1.52-2.16a1.38,1.38,0,0,0-1.17.65,2.86,2.86,0,0,0-.46,1.68v4.18H20V3.89h1.75V5.11h0a2.68,2.68,0,0,1,2.44-1.4,2.3,2.3,0,0,1,1.4.44,2.2,2.2,0,0,1,.82,1.16A2.76,2.76,0,0,1,29,3.71q2.55,0,2.55,3.15Z" fill="#e7f9fa"/><path d="M39.74,8.23H34.47a2.23,2.23,0,0,0,.66,1.65,2.46,2.46,0,0,0,1.73.58,3.82,3.82,0,0,0,2.27-.74v1.41a5.19,5.19,0,0,1-2.79.66,3.46,3.46,0,0,1-2.68-1.05,4.21,4.21,0,0,1-1-3,4.12,4.12,0,0,1,1.07-2.94,3.49,3.49,0,0,1,2.65-1.14,3,3,0,0,1,2.45,1,4.23,4.23,0,0,1,.87,2.83ZM38.05,7a2.26,2.26,0,0,0-.44-1.47A1.49,1.49,0,0,0,36.4,5a1.7,1.7,0,0,0-1.28.55A2.52,2.52,0,0,0,34.47,7Z" fill="#e7f9fa"/><path d="M48.16,11.8a3.83,3.83,0,0,1-2.86-1.08,3.91,3.91,0,0,1-1.07-2.87,4.07,4.07,0,0,1,1.11-3,4.1,4.1,0,0,1,3-1.09,3.71,3.71,0,0,1,2.82,1.06,4.11,4.11,0,0,1,1,3,4.05,4.05,0,0,1-1.09,3A3.92,3.92,0,0,1,48.16,11.8Zm.08-6.7a2,2,0,0,0-1.62.72,3,3,0,0,0-.6,2,2.83,2.83,0,0,0,.6,1.91,2,2,0,0,0,1.62.7,1.92,1.92,0,0,0,1.59-.69,3,3,0,0,0,.55-2,3.09,3.09,0,0,0-.55-2A1.92,1.92,0,0,0,48.24,5.1Z" fill="#e7f9fa"/><path d="M57.62,1.6a1.59,1.59,0,0,0-.81-.2q-1.28,0-1.28,1.44v1h1.8V5.26H55.54v6.36H53.79V5.26H52.47V3.89h1.32V2.63a2.44,2.44,0,0,1,.8-1.93,2.91,2.91,0,0,1,2-.71,3,3,0,0,1,1,.14Z" fill="#e7f9fa"/><path d="M73.45,11.62H71.7V7.4a3.42,3.42,0,0,0-.34-1.76A1.26,1.26,0,0,0,70.2,5.1,1.4,1.4,0,0,0,69,5.79a2.8,2.8,0,0,0-.48,1.65v4.18H66.79V7.26q0-2.16-1.52-2.16a1.38,1.38,0,0,0-1.17.65,2.86,2.86,0,0,0-.46,1.68v4.18H61.9V3.89h1.75V5.11h0a2.68,2.68,0,0,1,2.44-1.4,2.3,2.3,0,0,1,1.4.44,2.2,2.2,0,0,1,.82,1.16,2.76,2.76,0,0,1,2.57-1.6q2.55,0,2.55,3.15Z" fill="#e7f9fa"/><path d="M76,2.26A1.05,1.05,0,0,1,75.27,2,.92.92,0,0,1,75,1.28a.94.94,0,0,1,.31-.72A1,1,0,0,1,76,.27a1.07,1.07,0,0,1,.76.29.94.94,0,0,1,.31.72.92.92,0,0,1-.31.7A1.06,1.06,0,0,1,76,2.26Zm.87,9.35H75.12V3.89h1.75Z" fill="#e7f9fa"/><path d="M85.58,11.62H83.83V7.26q0-2.17-1.53-2.17A1.67,1.67,0,0,0,81,5.7a2.23,2.23,0,0,0-.52,1.51v4.41H78.7V3.89h1.76V5.17h0A2.75,2.75,0,0,1,83,3.71a2.33,2.33,0,0,1,1.92.82,3.68,3.68,0,0,1,.66,2.37Z" fill="#e7f9fa"/><path d="M94.28,11.62H92.53V10.3h0a3,3,0,0,1-4.89.46,4.31,4.31,0,0,1-.86-2.83,4.69,4.69,0,0,1,.95-3.07,3.1,3.1,0,0,1,2.52-1.15A2.42,2.42,0,0,1,92.5,5h0V.17h1.75ZM92.55,8.08v-1A2,2,0,0,0,92,5.68a1.79,1.79,0,0,0-1.37-.57,1.84,1.84,0,0,0-1.54.73,3.26,3.26,0,0,0-.56,2,2.92,2.92,0,0,0,.54,1.86,1.75,1.75,0,0,0,1.45.68A1.82,1.82,0,0,0,92,9.75,2.49,2.49,0,0,0,92.55,8.08Z" fill="#e7f9fa"/></g></g></svg>