<svg xmlns="http://www.w3.org/2000/svg" xmlns:xlink="http://www.w3.org/1999/xlink" viewBox="0 0 283.47 43.28"><defs><linearGradient id="linear-gradient" y1="28.94" x2="33.42" y2="28.94" gradientUnits="userSpaceOnUse"><stop offset="0" stop-color="#fff"/><stop offset="0.16" stop-color="#c0eef1"/><stop offset="0.33" stop-color="#88dfe4"/><stop offset="0.48" stop-color="#5bd3da"/><stop offset="0.63" stop-color="#38cad2"/><stop offset="0.77" stop-color="#1fc3cd"/><stop offset="0.9" stop-color="#0fbfc9"/><stop offset="1" stop-color="#0abec8"/></linearGradient><linearGradient id="linear-gradient-2" x1="22.28" y1="19.29" x2="44.55" y2="19.29" gradientUnits="userSpaceOnUse"><stop offset="0" stop-color="#fff"/><stop offset="1" stop-color="#0adcc8"/></linearGradient><linearGradient id="linear-gradient-3" x1="33.42" y1="9.65" x2="66.83" y2="9.65" gradientUnits="userSpaceOnUse"><stop offset="0" stop-color="#fff"/><stop offset="0.07" stop-color="#e0f7f8"/><stop offset="0.21" stop-color="#a8e8eb"/><stop offset="0.35" stop-color="#77dbe1"/><stop offset="0.49" stop-color="#50d1d8"/><stop offset="0.62" stop-color="#31c8d1"/><stop offset="0.76" stop-color="#1cc3cc"/><stop offset="0.88" stop-color="#0ebfc9"/><stop offset="1" stop-color="#0abec8"/></linearGradient><linearGradient id="linear-gradient-4" x1="2.78" y1="7.23" x2="27.85" y2="7.23" xlink:href="#linear-gradient-2"/><linearGradient id="linear-gradient-5" x1="38.98" y1="31.35" x2="64.05" y2="31.35" xlink:href="#linear-gradient-2"/></defs><title>tagline</title><g id="Layer_2" data-name="Layer 2"><g id="Layer_2-2" data-name="Layer 2"><path d="M95.25,16.6h-4.9q-3.8,0-3.8-3.5,0-4.59,7.87-4.59a28.29,28.29,0,0,1,9.95,1.75V5a31.94,31.94,0,0,0-9.95-1.53q-13.67,0-13.66,9.62,0,8.75,9.6,8.75h4.9q4.42,0,4.42,3.5,0,4.81-7.19,4.81a30.29,30.29,0,0,1-10.63-1.75v5.25a34.24,34.24,0,0,0,10.63,1.53q13,0,13-9.84Q105.46,16.6,95.25,16.6Z" fill="#fff"/><path d="M119.52,12q-10.78,0-10.78,11.22Q108.74,35,121.22,35a35.62,35.62,0,0,0,7.39-.66V29.72a37.41,37.41,0,0,1-7,.66q-7.13,0-7.13-4.85h15.24a20.68,20.68,0,0,0,.2-2.84Q130,12,119.52,12Zm4.81,9.49h-9.79q.39-4.94,5-4.94,4.81,0,4.81,4.77Z" fill="#fff"/><path d="M147,12a10.27,10.27,0,0,0-7.52,3.37L138.8,12h-4.48V35h5.79v-16a8.54,8.54,0,0,1,5.51-2.25q3.78,0,3.78,3.8V35h5.79V20.49Q155.2,12,147,12Z" fill="#fff"/><path d="M164.62,8.29h-4.29V28.78q0,6.19,5.77,6.19h5.16V30.38H168.9q-2.78,0-2.78-3.21V16.6h5.14V12h-5.77Z" fill="#fff"/><path d="M187.93,12A9,9,0,0,0,181,14.94V3.7H175.2V35H181v-16a8.54,8.54,0,0,1,5.51-2.25q3.78,0,3.78,3.8V35h5.79V20.49Q196.08,12,187.93,12Z" fill="#fff"/><rect x="201.55" y="3.7" width="5.79" height="4.59" fill="#fff"/><rect x="201.55" y="12.01" width="5.79" height="22.96" fill="#fff"/><path d="M225.53,12A10.27,10.27,0,0,0,218,15.38L217.29,12h-4.48V35h5.79v-16a8.54,8.54,0,0,1,5.51-2.25q3.78,0,3.78,3.8V35h5.79V20.49Q233.68,12,225.53,12Z" fill="#fff"/><path d="M238.06,23.36q0,11.17,10.23,11.17a14.09,14.09,0,0,0,5.55-1.09q0,5.25-6.25,5.25A24.31,24.31,0,0,1,240,37.59v4.59a23.76,23.76,0,0,0,7.52,1.09q12.09,0,12.09-10.06V13A60.49,60.49,0,0,0,250,12Q238.06,12,238.06,23.36Zm15.78,5.18A10.87,10.87,0,0,1,249,29.72q-5.18,0-5.18-6.41,0-6.62,6-6.62a12.17,12.17,0,0,1,4,.52Z" fill="#fff"/><path d="M275.81,21.08H272.1q-2.73,0-2.73-2.3t4.7-2.41a22.17,22.17,0,0,1,8.31,1.53V13.1a25,25,0,0,0-8.15-1.31Q264,11.79,264,19q0,6.89,7,6.89h4.15q2.51,0,2.51,2.3t-3.74,2.41a23.66,23.66,0,0,1-8.83-1.53v4.81a26.46,26.46,0,0,0,8.61,1.31q9.75,0,9.75-7.21Q283.47,21.08,275.81,21.08Z" fill="#fff"/><path d="M9,35,0,19.29H22.28L33.42,38.58H15.32A7.23,7.23,0,0,1,9,35Z" fill="url(#linear-gradient)"/><polygon points="44.55 19.29 33.41 38.59 22.28 19.29 33.41 0 44.55 19.29" fill="url(#linear-gradient-2)"/><path d="M51.52,0H33.42L44.55,19.29H66.83l-9-15.68A7.23,7.23,0,0,0,51.52,0Z" fill="url(#linear-gradient-3)"/><path d="M15.32,0H27.85L19.49,14.47H2.78L9,3.62A7.23,7.23,0,0,1,15.32,0Z" fill="url(#linear-gradient-4)"/><path d="M47.34,24.12H64L57.78,35a7.23,7.23,0,0,1-6.27,3.62H39Z" fill="url(#linear-gradient-5)"/></g></g></svg>